<svg width="520" height="520" viewBox="0 0 520 520" fill="none" xmlns="http://www.w3.org/2000/svg">
<g clip-path="url(#clip0_265_3812)">
<path fill-rule="evenodd" clip-rule="evenodd" d="M173.635 462.655L66.1919 278.206C44.8685 241.6 42.7195 196.899 60.4328 158.416L90.1601 93.8321C103.95 63.8738 128.61 40.2762 159.146 27.8189L203.73 9.63094C239.703 -5.04437 280.355 -2.86102 314.549 15.5829L395.823 59.4208C425.74 75.5571 448.146 102.769 458.242 135.225L468.648 168.681C478.836 201.431 475.694 236.814 460.025 267.324C436.799 312.551 400.367 384.075 365.386 455.15C346.972 492.564 309.014 516.5 267.314 516.5C228.731 516.5 193.055 495.995 173.635 462.655ZM151.169 263.85L189.621 257.236C220.457 251.933 238.49 219.481 226.709 190.495L222.801 180.881C215.294 162.411 197.345 150.331 177.407 150.331H142.863C115.801 150.331 93.8626 172.269 93.8626 199.331V215.559C93.8626 245.941 121.226 269 151.169 263.85ZM338.322 257.86L376.774 264.473C406.717 269.623 434.08 246.565 434.08 216.183V199.954C434.08 172.892 412.142 150.954 385.08 150.954H350.536C330.598 150.954 312.649 163.034 305.142 181.504L301.234 191.118C289.453 220.104 307.486 252.556 338.322 257.86ZM259.61 398.952H274.14C290.198 398.952 301.722 383.482 297.126 368.096C294.091 357.935 284.745 350.972 274.14 350.972H259.61C246.361 350.972 235.62 361.713 235.62 374.962C235.62 388.211 246.361 398.952 259.61 398.952Z" fill="#FF5E00"/>
</g>
<defs>
<clipPath id="clip0_265_3812">
<rect width="520" height="520" fill="white"/>
</clipPath>
</defs>
</svg>
