<svg width="706" height="706" viewBox="0 0 706 706" fill="none" xmlns="http://www.w3.org/2000/svg">
<path d="M544.285 260.754C493.412 155.078 366.683 110.56 261.223 161.329C155.764 212.097 111.52 338.922 162.393 444.598C213.266 550.274 339.995 594.792 445.454 544.023C550.913 493.255 595.157 366.429 544.285 260.754Z" fill="black" stroke="white" stroke-width="3"/>
<mask id="path-2-outside-1_103_186" maskUnits="userSpaceOnUse" x="67.2558" y="67.0883" width="571.723" height="572.19" fill="black">
<rect fill="white" x="67.2558" y="67.0883" width="571.723" height="572.19"/>
<path fill-rule="evenodd" clip-rule="evenodd" d="M399.115 147.007C458.711 160.441 511.972 199.586 541.407 258.298L427.087 313.332C401.482 259.604 392.87 202.129 399.115 147.007ZM396.169 146.364C389.795 202.123 398.478 260.278 424.384 314.633L353.189 348.907L263.228 162.035C306.276 141.681 352.811 137.238 396.169 146.364ZM260.525 163.336L350.486 350.208L284.9 381.781C257.985 326.424 216.74 282.66 167.783 252.806C187.857 215.254 219.458 183.461 260.525 163.336ZM351.787 352.911L286.199 384.486C313.053 441.074 321.261 501.755 313.267 559.55C355.835 567.92 401.313 563.241 443.45 543.319L351.787 352.911ZM446.153 542.017C489.687 520.684 522.584 486.237 542.388 445.719C493.653 415.954 452.574 372.397 425.688 317.335L354.49 351.61L446.153 542.017ZM166.384 255.467C214.792 285.028 255.573 328.328 282.197 383.083L162.268 440.817C133.943 379.476 137.531 311.34 166.384 255.467ZM283.496 385.787L163.545 443.532C163.612 443.671 163.678 443.81 163.745 443.948C193.28 505.301 248.565 545.892 310.321 558.949C318.192 501.777 310.054 441.76 283.496 385.787ZM542.733 260.989L428.391 316.034C454.969 370.457 495.548 413.53 543.693 443C569.843 387.507 571.653 321.063 542.933 261.405C542.867 261.267 542.8 261.128 542.733 260.989Z"/>
</mask>
<path fill-rule="evenodd" clip-rule="evenodd" d="M399.115 147.007C458.711 160.441 511.972 199.586 541.407 258.298L427.087 313.332C401.482 259.604 392.87 202.129 399.115 147.007ZM396.169 146.364C389.795 202.123 398.478 260.278 424.384 314.633L353.189 348.907L263.228 162.035C306.276 141.681 352.811 137.238 396.169 146.364ZM260.525 163.336L350.486 350.208L284.9 381.781C257.985 326.424 216.74 282.66 167.783 252.806C187.857 215.254 219.458 183.461 260.525 163.336ZM351.787 352.911L286.199 384.486C313.053 441.074 321.261 501.755 313.267 559.55C355.835 567.92 401.313 563.241 443.45 543.319L351.787 352.911ZM446.153 542.017C489.687 520.684 522.584 486.237 542.388 445.719C493.653 415.954 452.574 372.397 425.688 317.335L354.49 351.61L446.153 542.017ZM166.384 255.467C214.792 285.028 255.573 328.328 282.197 383.083L162.268 440.817C133.943 379.476 137.531 311.34 166.384 255.467ZM283.496 385.787L163.545 443.532C163.612 443.671 163.678 443.81 163.745 443.948C193.28 505.301 248.565 545.892 310.321 558.949C318.192 501.777 310.054 441.76 283.496 385.787ZM542.733 260.989L428.391 316.034C454.969 370.457 495.548 413.53 543.693 443C569.843 387.507 571.653 321.063 542.933 261.405C542.867 261.267 542.8 261.128 542.733 260.989Z" fill="#FF5E00"/>
<path d="M541.407 258.298L542.708 261.001L545.455 259.679L544.089 256.954L541.407 258.298ZM399.115 147.007L399.775 144.08L396.511 143.344L396.134 146.669L399.115 147.007ZM427.087 313.332L424.379 314.623L425.675 317.342L428.389 316.035L427.087 313.332ZM424.384 314.633L425.686 317.336L428.378 316.04L427.092 313.343L424.384 314.633ZM396.169 146.364L399.149 146.705L399.459 143.991L396.786 143.429L396.169 146.364ZM353.189 348.907L350.486 350.208L351.787 352.911L354.49 351.61L353.189 348.907ZM263.228 162.035L261.945 159.323L259.214 160.614L260.525 163.336L263.228 162.035ZM350.486 350.208L351.787 352.911L354.49 351.61L353.189 348.907L350.486 350.208ZM260.525 163.336L263.228 162.035L261.917 159.313L259.205 160.642L260.525 163.336ZM284.9 381.781L282.202 383.093L283.509 385.781L286.202 384.485L284.9 381.781ZM167.783 252.806L165.137 251.391L163.801 253.891L166.221 255.367L167.783 252.806ZM286.199 384.486L284.898 381.783L282.21 383.077L283.489 385.772L286.199 384.486ZM351.787 352.911L354.49 351.61L353.189 348.907L350.486 350.208L351.787 352.911ZM313.267 559.55L310.295 559.139L309.907 561.947L312.688 562.494L313.267 559.55ZM443.45 543.319L444.732 546.031L447.463 544.74L446.153 542.017L443.45 543.319ZM542.388 445.719L545.083 447.037L546.283 444.583L543.952 443.159L542.388 445.719ZM446.153 542.017L443.45 543.319L444.76 546.041L447.473 544.711L446.153 542.017ZM425.688 317.335L428.384 316.019L427.075 313.338L424.387 314.632L425.688 317.335ZM354.49 351.61L353.189 348.907L350.486 350.208L351.787 352.912L354.49 351.61ZM282.197 383.083L283.499 385.786L286.212 384.479L284.895 381.771L282.197 383.083ZM166.384 255.467L167.948 252.907L165.198 251.227L163.719 254.091L166.384 255.467ZM162.268 440.817L159.545 442.075L160.823 444.842L163.57 443.52L162.268 440.817ZM163.545 443.532L162.244 440.829L159.547 442.127L160.839 444.827L163.545 443.532ZM283.496 385.787L286.207 384.501L284.913 381.775L282.195 383.084L283.496 385.787ZM310.321 558.949L309.7 561.884L312.853 562.551L313.293 559.359L310.321 558.949ZM428.391 316.034L427.09 313.331L424.371 314.64L425.695 317.351L428.391 316.034ZM542.733 260.989L545.433 259.682L544.129 256.988L541.431 258.286L542.733 260.989ZM543.693 443L542.127 445.559L544.981 447.306L546.407 444.279L543.693 443ZM544.089 256.954C514.235 197.406 460.212 157.704 399.775 144.08L398.455 149.933C457.21 163.178 509.709 201.767 538.725 259.643L544.089 256.954ZM428.389 316.035L542.708 261.001L540.106 255.595L425.786 310.629L428.389 316.035ZM396.134 146.669C389.828 202.333 398.526 260.374 424.379 314.623L429.796 312.041C404.439 258.835 395.912 201.926 402.096 147.344L396.134 146.669ZM427.092 313.343C401.435 259.509 392.838 201.922 399.149 146.705L393.188 146.024C386.752 202.325 395.52 261.046 421.676 315.924L427.092 313.343ZM354.49 351.61L425.686 317.336L423.083 311.93L351.888 346.204L354.49 351.61ZM260.525 163.336L350.486 350.208L355.892 347.606L265.931 160.734L260.525 163.336ZM396.786 143.429C352.811 134.173 305.606 138.679 261.945 159.323L264.51 164.747C306.945 144.683 352.811 140.304 395.551 149.3L396.786 143.429ZM353.189 348.907L263.228 162.035L257.822 164.638L347.783 351.51L353.189 348.907ZM286.202 384.485L351.787 352.911L349.184 347.505L283.599 379.078L286.202 384.485ZM166.221 255.367C214.703 284.931 255.546 328.267 282.202 383.093L287.598 380.47C260.424 324.58 218.778 280.388 169.345 250.244L166.221 255.367ZM259.205 160.642C217.554 181.053 185.498 213.304 165.137 251.391L170.429 254.22C190.216 217.205 221.363 185.869 261.845 166.03L259.205 160.642ZM287.501 387.189L353.088 355.615L350.486 350.208L284.898 381.783L287.501 387.189ZM316.238 559.961C324.31 501.605 316.022 440.332 288.91 383.199L283.489 385.772C310.084 441.816 318.212 501.905 310.295 559.139L316.238 559.961ZM442.168 540.607C400.631 560.246 355.806 564.857 313.846 556.607L312.688 562.494C355.863 570.983 401.996 566.237 444.732 546.031L442.168 540.607ZM446.153 542.017L354.49 351.61L349.084 354.213L440.747 544.62L446.153 542.017ZM539.693 444.402C520.171 484.343 487.746 518.294 444.833 539.324L447.473 544.711C491.627 523.074 524.997 488.132 545.083 447.037L539.693 444.402ZM422.992 318.652C450.137 374.243 491.615 418.225 540.824 448.28L543.952 443.159C495.69 413.683 455.012 370.552 428.384 316.019L422.992 318.652ZM355.791 354.313L426.989 320.038L424.387 314.632L353.189 348.907L355.791 354.313ZM351.787 352.912L443.45 543.319L448.856 540.716L357.193 350.309L351.787 352.912ZM284.895 381.771C258.012 326.485 216.831 282.758 167.948 252.907L164.821 258.027C212.753 287.298 253.133 330.172 279.499 384.395L284.895 381.771ZM163.57 443.52L283.499 385.786L280.896 380.38L160.967 438.114L163.57 443.52ZM163.719 254.091C134.458 310.752 130.816 379.86 159.545 442.075L164.992 439.559C137.07 379.091 140.604 311.927 169.05 256.844L163.719 254.091ZM164.846 446.235L284.798 388.49L282.195 383.084L162.244 440.829L164.846 446.235ZM166.448 442.647C166.382 442.51 166.316 442.373 166.251 442.236L160.839 444.827C160.907 444.968 160.974 445.109 161.042 445.25L166.448 442.647ZM310.942 556.014C250.058 543.141 195.564 503.128 166.448 442.647L161.042 445.25C190.997 507.474 247.072 548.643 309.7 561.884L310.942 556.014ZM280.786 387.073C307.086 442.502 315.143 501.928 307.349 558.54L313.293 559.359C321.241 501.625 313.023 441.018 286.207 384.501L280.786 387.073ZM429.692 318.737L544.034 263.693L541.431 258.286L427.09 313.331L429.692 318.737ZM545.259 440.442C497.587 411.261 457.407 368.613 431.087 314.718L425.695 317.351C452.532 372.302 493.51 415.8 542.127 445.559L545.259 440.442ZM540.23 262.707C568.542 321.516 566.76 387.012 540.979 441.722L546.407 444.279C572.926 388.002 574.764 320.609 545.636 260.104L540.23 262.707ZM540.032 262.297C540.098 262.433 540.164 262.57 540.23 262.707L545.636 260.104C545.569 259.964 545.501 259.823 545.433 259.682L540.032 262.297Z" fill="white" mask="url(#path-2-outside-1_103_186)"/>
</svg>
