<svg width="233" height="233" viewBox="0 0 233 233" fill="none" xmlns="http://www.w3.org/2000/svg">
<path d="M196.469 111.879C194.13 67.3562 156.216 33.1503 111.78 35.4846C67.3443 37.8189 33.2236 75.8089 35.5624 120.331C37.9013 164.854 75.8146 199.06 120.251 196.725C164.687 194.391 198.807 156.401 196.469 111.879Z" fill="black" stroke="white" stroke-width="3"/>
<mask id="path-2-outside-1_103_251" maskUnits="userSpaceOnUse" x="28.7268" y="29.0849" width="174.48" height="174.48" fill="black">
<rect fill="white" x="28.7268" y="29.0849" width="174.48" height="174.48"/>
<path fill-rule="evenodd" clip-rule="evenodd" d="M162.47 51.999C180.528 65.1589 192.904 85.8361 194.822 109.724L148.178 112.174C147.296 90.4037 152.572 69.7766 162.47 51.999ZM160 50.2694C149.738 68.5847 144.265 89.8654 145.182 112.332L117.396 113.791L113.358 36.9173C130.545 36.3354 146.68 41.3167 160 50.2694ZM110.362 37.0747L114.4 113.949L88.9507 115.286C87.4772 92.3535 79.4957 71.3521 66.9059 53.9918C78.9596 44.4054 93.9118 38.2467 110.362 37.0747ZM114.558 116.945L89.1056 118.282C90.0205 141.653 84.0205 163.735 72.9109 182.522C86.0583 191.108 101.863 195.861 118.673 195.292L114.558 116.945ZM121.669 195.134C139.145 193.889 154.931 187.016 167.346 176.384C154.809 159.081 146.848 138.165 145.342 115.328L117.554 116.787L121.669 195.134ZM64.5887 55.9074C76.7848 72.7848 84.5173 93.1796 85.9546 115.443L36.9739 118.016C36.3615 93.3497 47.1296 70.9066 64.5887 55.9074ZM86.1094 118.439L37.104 121.014C38.6465 145.904 51.5249 167.441 70.4252 180.831C81.1816 162.571 86.9897 141.13 86.1094 118.439ZM195.007 112.719L148.338 115.17C149.805 137.3 157.493 157.577 169.599 174.379C186.119 159.109 196.05 136.927 195.007 112.719Z"/>
</mask>
<path fill-rule="evenodd" clip-rule="evenodd" d="M162.47 51.999C180.528 65.1589 192.904 85.8361 194.822 109.724L148.178 112.174C147.296 90.4037 152.572 69.7766 162.47 51.999ZM160 50.2694C149.738 68.5847 144.265 89.8654 145.182 112.332L117.396 113.791L113.358 36.9173C130.545 36.3354 146.68 41.3167 160 50.2694ZM110.362 37.0747L114.4 113.949L88.9507 115.286C87.4772 92.3535 79.4957 71.3521 66.9059 53.9918C78.9596 44.4054 93.9118 38.2467 110.362 37.0747ZM114.558 116.945L89.1056 118.282C90.0205 141.653 84.0205 163.735 72.9109 182.522C86.0583 191.108 101.863 195.861 118.673 195.292L114.558 116.945ZM121.669 195.134C139.145 193.889 154.931 187.016 167.346 176.384C154.809 159.081 146.848 138.165 145.342 115.328L117.554 116.787L121.669 195.134ZM64.5887 55.9074C76.7848 72.7848 84.5173 93.1796 85.9546 115.443L36.9739 118.016C36.3615 93.3497 47.1296 70.9066 64.5887 55.9074ZM86.1094 118.439L37.104 121.014C38.6465 145.904 51.5249 167.441 70.4252 180.831C81.1816 162.571 86.9897 141.13 86.1094 118.439ZM195.007 112.719L148.338 115.17C149.805 137.3 157.493 157.577 169.599 174.379C186.119 159.109 196.05 136.927 195.007 112.719Z" fill="#FF5E00"/>
<path d="M194.822 109.724L194.98 112.72L198.06 112.558L197.813 109.484L194.822 109.724ZM162.47 51.999L164.237 49.5745L161.498 47.5783L159.849 50.5396L162.47 51.999ZM148.178 112.174L145.181 112.296L145.304 115.33L148.336 115.17L148.178 112.174ZM145.182 112.332L145.339 115.328L148.301 115.172L148.18 112.209L145.182 112.332ZM160 50.2694L162.617 51.7357L163.969 49.3226L161.673 47.7795L160 50.2694ZM117.396 113.791L114.4 113.949L114.558 116.945L117.554 116.787L117.396 113.791ZM113.358 36.9173L113.256 33.919L110.202 34.0224L110.362 37.0747L113.358 36.9173ZM114.4 113.949L114.558 116.945L117.553 116.787L117.396 113.791L114.4 113.949ZM110.362 37.0747L113.358 36.9173L113.197 33.865L110.149 34.0822L110.362 37.0747ZM88.9507 115.286L85.9569 115.478L86.147 118.437L89.1081 118.282L88.9507 115.286ZM66.9059 53.9918L65.0385 51.6438L62.7926 53.43L64.4773 55.753L66.9059 53.9918ZM89.1056 118.282L88.9482 115.286L85.9921 115.441L86.1079 118.399L89.1056 118.282ZM114.558 116.945L117.553 116.787L117.396 113.791L114.4 113.949L114.558 116.945ZM72.9109 182.522L70.3286 180.995L68.868 183.465L71.2706 185.034L72.9109 182.522ZM118.673 195.292L118.775 198.29L121.83 198.186L121.669 195.134L118.673 195.292ZM167.346 176.384L169.298 178.662L171.399 176.863L169.776 174.624L167.346 176.384ZM121.669 195.134L118.673 195.292L118.834 198.344L121.882 198.127L121.669 195.134ZM145.342 115.328L148.335 115.13L148.141 112.176L145.185 112.332L145.342 115.328ZM117.554 116.787L117.396 113.791L114.4 113.949L114.558 116.945L117.554 116.787ZM85.9546 115.443L86.112 118.439L89.144 118.28L88.9484 115.25L85.9546 115.443ZM64.5887 55.9074L67.0202 54.1503L65.1089 51.5054L62.6337 53.6319L64.5887 55.9074ZM36.9739 118.016L33.9748 118.091L34.0514 121.174L37.1313 121.012L36.9739 118.016ZM37.104 121.014L36.9466 118.018L33.9224 118.177L34.1098 121.199L37.104 121.014ZM86.1094 118.439L89.1072 118.323L88.9893 115.284L85.952 115.443L86.1094 118.439ZM70.4252 180.831L68.6909 183.279L71.3537 185.165L73.01 182.354L70.4252 180.831ZM148.338 115.17L148.181 112.174L145.143 112.334L145.345 115.369L148.338 115.17ZM195.007 112.719L198.004 112.589L197.874 109.564L194.85 109.723L195.007 112.719ZM169.599 174.379L167.165 176.133L169.147 178.883L171.636 176.582L169.599 174.379ZM197.813 109.484C195.821 84.6902 182.974 63.2289 164.237 49.5745L160.703 54.4235C178.083 67.0889 189.986 86.9821 191.832 109.964L197.813 109.484ZM148.336 115.17L194.98 112.72L194.665 106.728L148.021 109.179L148.336 115.17ZM159.849 50.5396C149.69 68.7855 144.276 89.9578 145.181 112.296L151.176 112.053C150.317 90.8496 155.454 70.7677 165.091 53.4584L159.849 50.5396ZM148.18 112.209C147.286 90.3136 152.619 69.5809 162.617 51.7357L157.382 48.803C146.858 67.5884 141.244 89.4173 142.185 112.454L148.18 112.209ZM117.554 116.787L145.339 115.328L145.025 109.336L117.239 110.796L117.554 116.787ZM110.362 37.0747L114.4 113.949L120.392 113.634L116.354 36.7599L110.362 37.0747ZM161.673 47.7795C147.848 38.4872 131.095 33.3151 113.256 33.919L113.459 39.9156C129.994 39.3558 145.512 44.1462 158.326 52.7592L161.673 47.7795ZM117.396 113.791L113.358 36.9173L107.366 37.232L111.404 114.106L117.396 113.791ZM89.1081 118.282L114.558 116.945L114.243 110.953L88.7933 112.29L89.1081 118.282ZM64.4773 55.753C76.7442 72.668 84.5208 93.1284 85.9569 115.478L91.9445 115.093C90.4336 91.5785 82.2472 70.0361 69.3345 52.2305L64.4773 55.753ZM110.149 34.0822C93.0751 35.2987 77.5503 41.6932 65.0385 51.6438L68.7732 56.3397C80.369 47.1177 94.7485 41.1947 110.575 40.0671L110.149 34.0822ZM89.263 121.278L114.715 119.941L114.4 113.949L88.9482 115.286L89.263 121.278ZM75.4932 184.049C86.8875 164.781 93.0415 142.13 92.1033 118.164L86.1079 118.399C86.9996 141.177 81.1534 162.69 70.3286 180.995L75.4932 184.049ZM118.572 192.293C102.399 192.841 87.1994 188.27 74.5512 180.01L71.2706 185.034C84.9172 193.946 101.327 198.881 118.775 198.29L118.572 192.293ZM121.669 195.134L117.553 116.787L111.562 117.102L115.677 195.449L121.669 195.134ZM165.395 174.105C153.45 184.334 138.269 190.944 121.456 192.142L121.882 198.127C140.022 196.834 156.411 189.698 169.298 178.662L165.395 174.105ZM142.348 115.525C143.893 138.943 152.058 160.398 164.917 178.144L169.776 174.624C157.56 157.765 149.803 137.388 148.335 115.13L142.348 115.525ZM117.711 119.783L145.499 118.323L145.185 112.332L117.396 113.791L117.711 119.783ZM114.558 116.945L118.673 195.292L124.665 194.977L120.549 116.63L114.558 116.945ZM88.9484 115.25C87.4735 92.4059 79.5375 71.472 67.0202 54.1503L62.1571 57.6646C74.0322 74.0977 81.561 93.9532 82.9609 115.636L88.9484 115.25ZM37.1313 121.012L86.112 118.439L85.7972 112.447L36.8165 115.02L37.1313 121.012ZM62.6337 53.6319C44.5186 69.1946 33.3392 92.4886 33.9748 118.091L39.973 117.942C39.3838 94.2108 49.7405 72.6186 66.5436 58.183L62.6337 53.6319ZM37.2614 124.009L86.2668 121.435L85.952 115.443L36.9466 118.018L37.2614 124.009ZM72.1594 178.383C53.9694 165.496 41.5824 144.776 40.0983 120.828L34.1098 121.199C35.7107 147.032 49.0803 169.386 68.6909 183.279L72.1594 178.383ZM83.1117 118.555C83.969 140.654 78.3137 161.529 67.8403 179.308L73.01 182.354C84.0494 163.614 90.0104 141.605 89.1072 118.323L83.1117 118.555ZM148.495 118.166L195.164 115.714L194.85 109.723L148.181 112.174L148.495 118.166ZM172.033 172.625C160.245 156.265 152.76 136.525 151.332 114.972L145.345 115.369C146.85 138.076 154.74 158.888 167.165 176.133L172.033 172.625ZM192.01 112.848C193.014 136.14 183.462 157.48 167.563 172.176L171.636 176.582C188.776 160.738 199.087 137.714 198.004 112.589L192.01 112.848Z" fill="white" mask="url(#path-2-outside-1_103_251)"/>
</svg>
