<svg width="400" height="400" viewBox="0 0 400 400" fill="none" xmlns="http://www.w3.org/2000/svg">
<path d="M320.157 264.644C356.088 197.907 331.232 114.734 264.629 78.875C198.026 43.016 114.908 68.0548 78.9769 134.792C43.0456 201.529 67.9023 284.701 134.505 320.56C201.108 356.419 284.226 331.381 320.157 264.644Z" fill="black" stroke="white" stroke-width="3"/>
<mask id="path-2-outside-1_9_3142" maskUnits="userSpaceOnUse" x="10.5325" y="10.9862" width="377.04" height="377.446" fill="black">
<rect fill="white" x="10.5325" y="10.9862" width="377.04" height="377.446"/>
<path fill-rule="evenodd" clip-rule="evenodd" d="M324.217 146.24C339.489 182.103 339.233 224.231 320.122 261.487L248.688 223.027C266.916 189.699 293.396 163.712 324.217 146.24ZM323.005 143.478C291.594 161.221 264.605 187.664 246.046 221.604L202.197 197.996L265.235 80.9142C291.717 95.5461 311.393 117.801 323.005 143.478ZM262.593 79.492L199.556 196.574L159.236 174.866C177.754 139.929 184.884 101.953 181.909 65.216C208.738 61.6164 236.871 66.002 262.593 79.492ZM198.134 199.215L157.812 177.506C138.447 212.779 109.966 239.93 76.8851 257.602C88.5862 282.584 107.983 304.203 133.899 318.522L198.134 199.215ZM136.541 319.944C163.827 334.254 193.826 338.319 222.104 333.475C219.163 296.881 226.247 259.062 244.626 224.247L200.775 200.638L136.541 319.944ZM178.934 65.6487C181.823 101.768 174.796 139.097 156.595 173.444L81.6316 133.083C102.809 95.5594 139.286 71.8636 178.934 65.6487ZM155.17 176.084L80.1854 135.712C59.6079 174.088 59.3251 217.929 75.64 254.865C108.145 237.46 136.129 210.757 155.17 176.084ZM318.724 264.141L247.268 225.669C229.224 259.86 222.238 296.99 225.071 332.933C263.588 325.452 298.592 301.381 318.724 264.141Z"/>
</mask>
<path fill-rule="evenodd" clip-rule="evenodd" d="M324.217 146.24C339.489 182.103 339.233 224.231 320.122 261.487L248.688 223.027C266.916 189.699 293.396 163.712 324.217 146.24ZM323.005 143.478C291.594 161.221 264.605 187.664 246.046 221.604L202.197 197.996L265.235 80.9142C291.717 95.5461 311.393 117.801 323.005 143.478ZM262.593 79.492L199.556 196.574L159.236 174.866C177.754 139.929 184.884 101.953 181.909 65.216C208.738 61.6164 236.871 66.002 262.593 79.492ZM198.134 199.215L157.812 177.506C138.447 212.779 109.966 239.93 76.8851 257.602C88.5862 282.584 107.983 304.203 133.899 318.522L198.134 199.215ZM136.541 319.944C163.827 334.254 193.826 338.319 222.104 333.475C219.163 296.881 226.247 259.062 244.626 224.247L200.775 200.638L136.541 319.944ZM178.934 65.6487C181.823 101.768 174.796 139.097 156.595 173.444L81.6316 133.083C102.809 95.5594 139.286 71.8636 178.934 65.6487ZM155.17 176.084L80.1854 135.712C59.6079 174.088 59.3251 217.929 75.64 254.865C108.145 237.46 136.129 210.757 155.17 176.084ZM318.724 264.141L247.268 225.669C229.224 259.86 222.238 296.99 225.071 332.933C263.588 325.452 298.592 301.381 318.724 264.141Z" fill="#FF5E00"/>
<path d="M320.122 261.487L318.7 264.128L321.394 265.579L322.791 262.856L320.122 261.487ZM324.217 146.24L326.978 145.064L325.661 141.973L322.738 143.63L324.217 146.24ZM248.688 223.027L246.056 221.587L244.606 224.236L247.265 225.668L248.688 223.027ZM246.046 221.604L244.624 224.246L247.248 225.659L248.678 223.044L246.046 221.604ZM323.005 143.478L324.481 146.09L326.869 144.741L325.739 142.242L323.005 143.478ZM202.197 197.996L199.556 196.574L198.134 199.215L200.775 200.638L202.197 197.996ZM265.235 80.9142L266.685 78.2883L264.031 76.8216L262.593 79.492L265.235 80.9142ZM199.556 196.574L198.134 199.215L200.775 200.638L202.197 197.996L199.556 196.574ZM262.593 79.492L265.235 80.9142L266.672 78.2438L263.986 76.8352L262.593 79.492ZM159.236 174.866L156.586 173.461L155.19 176.094L157.814 177.507L159.236 174.866ZM181.909 65.216L181.51 62.2426L178.689 62.6211L178.919 65.4581L181.909 65.216ZM157.812 177.506L159.234 174.865L156.614 173.454L155.182 176.062L157.812 177.506ZM198.134 199.215L200.775 200.638L202.197 197.996L199.556 196.574L198.134 199.215ZM76.8851 257.602L75.4715 254.956L72.9611 256.297L74.1683 258.874L76.8851 257.602ZM133.899 318.522L132.448 321.148L135.103 322.614L136.541 319.944L133.899 318.522ZM222.104 333.475L222.611 336.432L225.314 335.968L225.095 333.234L222.104 333.475ZM136.541 319.944L133.899 318.522L132.461 321.192L135.147 322.601L136.541 319.944ZM244.626 224.247L247.279 225.648L248.668 223.016L246.048 221.606L244.626 224.247ZM200.775 200.638L202.197 197.996L199.556 196.574L198.134 199.215L200.775 200.638ZM156.595 173.444L155.173 176.085L157.832 177.517L159.246 174.848L156.595 173.444ZM178.934 65.6487L181.925 65.4095L181.666 62.1838L178.469 62.6849L178.934 65.6487ZM81.6316 133.083L79.019 131.609L77.5148 134.274L80.2094 135.725L81.6316 133.083ZM80.1854 135.712L81.6076 133.07L78.9616 131.646L77.5415 134.294L80.1854 135.712ZM155.17 176.084L157.8 177.528L159.256 174.876L156.593 173.442L155.17 176.084ZM75.64 254.865L72.8958 256.077L74.2033 259.038L77.0562 257.51L75.64 254.865ZM247.268 225.669L248.69 223.028L246.026 221.594L244.614 224.269L247.268 225.669ZM318.724 264.141L321.363 265.568L322.792 262.924L320.146 261.5L318.724 264.141ZM225.071 332.933L222.08 333.168L222.344 336.518L225.643 335.878L225.071 332.933ZM322.791 262.856C342.325 224.776 342.584 181.714 326.978 145.064L321.457 147.415C336.394 182.491 336.141 223.685 317.452 260.118L322.791 262.856ZM247.265 225.668L318.7 264.128L321.544 258.845L250.11 220.385L247.265 225.668ZM322.738 143.63C291.445 161.37 264.559 187.756 246.056 221.587L251.32 224.466C269.272 191.642 295.347 166.055 325.697 148.849L322.738 143.63ZM248.678 223.044C266.961 189.609 293.543 163.566 324.481 146.09L321.53 140.866C289.646 158.876 262.25 185.719 243.414 220.165L248.678 223.044ZM200.775 200.638L244.624 224.246L247.468 218.963L203.62 195.355L200.775 200.638ZM262.593 79.492L199.556 196.574L204.839 199.418L267.876 82.3363L262.593 79.492ZM325.739 142.242C313.869 115.997 293.754 93.2439 266.685 78.2883L263.784 83.54C289.681 97.8482 308.916 119.606 320.272 144.714L325.739 142.242ZM202.197 197.996L265.235 80.9142L259.952 78.0698L196.914 195.152L202.197 197.996ZM157.814 177.507L198.134 199.215L200.978 193.932L160.659 172.224L157.814 177.507ZM178.919 65.4581C181.849 101.642 174.828 139.045 156.586 173.461L161.887 176.271C180.681 140.814 187.919 102.264 184.9 64.9739L178.919 65.4581ZM263.986 76.8352C237.696 63.047 208.934 58.5632 181.51 62.2426L182.308 68.1894C208.542 64.6696 236.047 68.957 261.2 82.1488L263.986 76.8352ZM156.39 180.148L196.712 201.857L199.556 196.574L159.234 174.865L156.39 180.148ZM78.2987 260.248C111.877 242.31 140.788 214.749 160.442 178.95L155.182 176.062C136.106 210.81 108.055 237.549 75.4715 254.956L78.2987 260.248ZM135.35 315.896C110.007 301.894 91.0437 280.758 79.6019 256.329L74.1683 258.874C86.1287 284.41 105.959 306.512 132.448 321.148L135.35 315.896ZM136.541 319.944L200.775 200.638L195.492 197.793L131.258 317.1L136.541 319.944ZM221.598 330.518C193.945 335.255 164.616 331.281 137.934 317.287L135.147 322.601C163.037 337.228 193.707 341.383 222.611 336.432L221.598 330.518ZM241.973 222.846C223.32 258.181 216.128 296.571 219.114 333.715L225.095 333.234C222.198 297.192 229.174 259.944 247.279 225.648L241.973 222.846ZM199.353 203.279L243.204 226.888L246.048 221.606L202.197 197.996L199.353 203.279ZM198.134 199.215L133.899 318.522L139.182 321.366L203.417 202.06L198.134 199.215ZM159.246 174.848C177.722 139.982 184.858 102.081 181.925 65.4095L175.944 65.8879C178.788 101.455 171.87 138.212 153.944 172.039L159.246 174.848ZM80.2094 135.725L155.173 176.085L158.017 170.802L83.0538 130.442L80.2094 135.725ZM178.469 62.6849C137.952 69.0361 100.665 93.2546 79.019 131.609L84.2442 134.558C104.953 97.8642 140.62 74.6912 179.399 68.6125L178.469 62.6849ZM78.7632 138.353L153.748 178.725L156.593 173.442L81.6076 133.07L78.7632 138.353ZM78.3842 253.653C62.4273 217.527 62.7062 174.658 82.8293 137.129L77.5415 134.294C56.5095 173.518 56.223 218.331 72.8958 256.077L78.3842 253.653ZM152.541 174.64C133.788 208.788 106.232 235.081 74.2238 252.221L77.0562 257.51C110.058 239.838 138.471 212.726 157.8 177.528L152.541 174.64ZM245.846 228.311L317.301 266.783L320.146 261.5L248.69 223.028L245.846 228.311ZM228.062 332.697C225.272 297.304 232.15 260.743 249.921 227.069L244.614 224.269C226.298 258.977 219.204 296.677 222.08 333.168L228.062 332.697ZM316.085 262.715C296.397 299.133 262.171 322.671 224.499 329.988L225.643 335.878C265.005 328.233 300.786 303.63 321.363 265.568L316.085 262.715Z" fill="white" mask="url(#path-2-outside-1_9_3142)"/>
</svg>
