<svg width="502" height="502" viewBox="0 0 502 502" fill="none" xmlns="http://www.w3.org/2000/svg">
<path d="M394.356 196.573C364.245 117.188 275.613 77.1863 196.388 107.237C117.163 137.287 77.3552 226.006 107.467 305.392C137.578 384.778 226.21 424.779 305.435 394.728C384.66 364.678 424.468 275.959 394.356 196.573Z" fill="black" stroke="white" stroke-width="3"/>
<mask id="path-2-outside-1_105_420" maskUnits="userSpaceOnUse" x="49.8862" y="50.3393" width="401.435" height="402.016" fill="black">
<rect fill="white" x="49.8862" y="50.3393" width="401.435" height="402.016"/>
<path fill-rule="evenodd" clip-rule="evenodd" d="M297.01 106.015C338.747 119.412 374.368 150.671 391.894 194.388L306.646 226.723C291.729 186.698 289.147 145.062 297.01 106.015ZM294.13 105.122C286.084 144.792 288.677 187.11 303.841 227.787L251.28 247.723L198.325 108.114C230.294 96.3411 263.74 96.0258 294.13 105.122ZM195.52 109.178L248.475 248.787L200.117 267.13C184.143 225.73 157.2 191.757 123.872 167.272C140.568 141.777 165.052 121.074 195.52 109.178ZM249.539 251.592L201.178 269.936C216.881 312.275 218.977 356.379 209.642 397.412C239.509 405.921 272.211 405.373 303.498 393.851L249.539 251.592ZM306.303 392.787C338.618 380.17 364.2 357.646 380.9 330.006C347.72 305.599 320.88 271.781 304.907 230.591L252.344 250.528L306.303 392.787ZM122.25 169.804C155.055 193.948 181.576 227.42 197.312 268.194L107.86 302.123C91.5257 256.496 98.276 208.036 122.25 169.804ZM198.373 271L108.899 304.938C126.292 350.721 163.346 383.263 206.759 396.56C215.917 356.137 213.834 312.701 198.373 271ZM392.984 197.183L307.712 229.527C323.433 270.055 349.817 303.347 382.434 327.41C404.5 289.201 409.847 241.714 392.984 197.183Z"/>
</mask>
<path fill-rule="evenodd" clip-rule="evenodd" d="M297.01 106.015C338.747 119.412 374.368 150.671 391.894 194.388L306.646 226.723C291.729 186.698 289.147 145.062 297.01 106.015ZM294.13 105.122C286.084 144.792 288.677 187.11 303.841 227.787L251.28 247.723L198.325 108.114C230.294 96.3411 263.74 96.0258 294.13 105.122ZM195.52 109.178L248.475 248.787L200.117 267.13C184.143 225.73 157.2 191.757 123.872 167.272C140.568 141.777 165.052 121.074 195.52 109.178ZM249.539 251.592L201.178 269.936C216.881 312.275 218.977 356.379 209.642 397.412C239.509 405.921 272.211 405.373 303.498 393.851L249.539 251.592ZM306.303 392.787C338.618 380.17 364.2 357.646 380.9 330.006C347.72 305.599 320.88 271.781 304.907 230.591L252.344 250.528L306.303 392.787ZM122.25 169.804C155.055 193.948 181.576 227.42 197.312 268.194L107.86 302.123C91.5257 256.496 98.276 208.036 122.25 169.804ZM198.373 271L108.899 304.938C126.292 350.721 163.346 383.263 206.759 396.56C215.917 356.137 213.834 312.701 198.373 271ZM392.984 197.183L307.712 229.527C323.433 270.055 349.817 303.347 382.434 327.41C404.5 289.201 409.847 241.714 392.984 197.183Z" fill="#FF5E00"/>
<path d="M391.894 194.388L392.958 197.193L395.816 196.109L394.679 193.272L391.894 194.388ZM297.01 106.015L297.927 103.159L294.732 102.133L294.069 105.423L297.01 106.015ZM306.646 226.723L303.835 227.771L304.889 230.598L307.71 229.528L306.646 226.723ZM303.841 227.787L304.905 230.592L307.694 229.534L306.652 226.739L303.841 227.787ZM294.13 105.122L297.07 105.718L297.614 103.033L294.99 102.248L294.13 105.122ZM251.28 247.723L248.475 248.787L249.539 251.592L252.344 250.528L251.28 247.723ZM198.325 108.114L197.289 105.299L194.446 106.346L195.52 109.178L198.325 108.114ZM248.475 248.787L249.539 251.592L252.344 250.528L251.28 247.723L248.475 248.787ZM195.52 109.178L198.325 108.114L197.251 105.282L194.429 106.383L195.52 109.178ZM200.117 267.13L197.318 268.21L198.392 270.993L201.181 269.935L200.117 267.13ZM123.872 167.272L121.363 165.629L119.805 168.007L122.096 169.69L123.872 167.272ZM201.178 269.936L200.114 267.131L197.33 268.187L198.366 270.979L201.178 269.936ZM249.539 251.592L252.344 250.528L251.28 247.723L248.475 248.787L249.539 251.592ZM209.642 397.412L206.717 396.747L206.086 399.519L208.82 400.298L209.642 397.412ZM303.498 393.851L304.535 396.666L307.377 395.619L306.303 392.787L303.498 393.851ZM380.9 330.006L383.467 331.558L384.884 329.213L382.677 327.59L380.9 330.006ZM306.303 392.787L303.498 393.851L304.572 396.683L307.394 395.582L306.303 392.787ZM304.907 230.591L307.704 229.506L306.628 226.73L303.843 227.786L304.907 230.591ZM252.344 250.528L251.28 247.723L248.475 248.787L249.539 251.592L252.344 250.528ZM197.312 268.194L198.376 270.999L201.197 269.929L200.11 267.113L197.312 268.194ZM122.25 169.804L124.028 167.387L121.425 165.472L119.708 168.21L122.25 169.804ZM107.86 302.123L105.036 303.134L106.066 306.012L108.924 304.928L107.86 302.123ZM108.899 304.938L107.835 302.133L105.028 303.197L106.094 306.003L108.899 304.938ZM198.373 271L201.186 269.957L200.135 267.123L197.309 268.195L198.373 271ZM206.759 396.56L205.88 399.429L208.971 400.375L209.685 397.223L206.759 396.56ZM307.712 229.527L306.648 226.722L303.822 227.794L304.915 230.612L307.712 229.527ZM392.984 197.183L395.789 196.121L394.726 193.314L391.92 194.378L392.984 197.183ZM382.434 327.41L380.653 329.824L383.353 331.816L385.032 328.91L382.434 327.41ZM394.679 193.272C376.807 148.693 340.48 116.818 297.927 103.159L296.093 108.872C337.014 122.007 371.929 152.65 389.109 195.504L394.679 193.272ZM307.71 229.528L392.958 197.193L390.83 191.583L305.582 223.918L307.71 229.528ZM294.069 105.423C286.099 145.002 288.717 187.207 303.835 227.771L309.457 225.675C294.741 186.189 292.195 145.122 299.951 106.608L294.069 105.423ZM306.652 226.739C291.69 186.603 289.132 144.855 297.07 105.718L291.19 104.526C283.036 144.729 285.665 187.618 301.03 228.835L306.652 226.739ZM252.344 250.528L304.905 230.592L302.777 224.982L250.216 244.918L252.344 250.528ZM195.52 109.178L248.475 248.787L254.085 246.659L201.13 107.05L195.52 109.178ZM294.99 102.248C264.001 92.9722 229.888 93.2937 197.289 105.299L199.362 110.929C230.701 99.3885 263.48 99.0794 293.27 107.996L294.99 102.248ZM251.28 247.723L198.325 108.114L192.715 110.242L245.67 249.851L251.28 247.723ZM201.181 269.935L249.539 251.592L247.411 245.982L199.053 264.325L201.181 269.935ZM122.096 169.69C154.976 193.845 181.556 227.36 197.318 268.21L202.916 266.05C186.729 224.1 159.424 189.668 125.649 164.855L122.096 169.69ZM194.429 106.383C163.36 118.514 138.389 139.63 121.363 165.629L126.382 168.916C142.748 143.925 166.743 123.634 196.611 111.972L194.429 106.383ZM202.242 272.741L250.603 254.397L248.475 248.787L200.114 267.131L202.242 272.741ZM212.568 398.078C222.027 356.494 219.902 311.795 203.991 268.892L198.366 270.979C213.859 312.755 215.926 356.265 206.717 396.747L212.568 398.078ZM302.461 391.036C271.791 402.33 239.741 402.867 210.464 394.527L208.82 400.298C239.277 408.974 272.631 408.415 304.535 396.666L302.461 391.036ZM306.303 392.787L252.344 250.528L246.734 252.656L300.693 394.915L306.303 392.787ZM378.332 328.455C361.962 355.55 336.889 377.625 305.212 389.993L307.394 395.582C340.347 382.716 366.438 359.743 383.467 331.558L378.332 328.455ZM302.11 231.676C318.295 273.413 345.497 307.688 379.122 332.423L382.677 327.59C349.944 303.51 323.465 270.149 307.704 229.506L302.11 231.676ZM253.408 253.333L305.971 233.396L303.843 227.786L251.28 247.723L253.408 253.333ZM249.539 251.592L303.498 393.851L309.108 391.723L255.149 249.464L249.539 251.592ZM200.11 267.113C184.162 225.791 157.28 191.861 124.028 167.387L120.472 172.22C152.83 196.036 178.989 229.049 194.513 269.274L200.11 267.113ZM108.924 304.928L198.376 270.999L196.248 265.389L106.796 299.318L108.924 304.928ZM119.708 168.21C95.2655 207.19 88.3791 256.608 105.036 303.134L110.685 301.112C94.6724 256.385 101.286 208.882 124.792 171.397L119.708 168.21ZM109.963 307.743L199.437 273.805L197.309 268.195L107.835 302.133L109.963 307.743ZM207.638 393.692C165.074 380.654 128.754 348.754 111.703 303.872L106.094 306.003C123.831 352.688 161.618 385.871 205.88 399.429L207.638 393.692ZM195.56 272.042C210.813 313.182 212.867 356.024 203.833 395.897L209.685 397.223C218.968 356.25 216.856 312.22 201.186 269.957L195.56 272.042ZM308.776 232.332L394.047 199.988L391.92 194.378L306.648 226.722L308.776 232.332ZM384.215 324.995C352.043 301.261 326.018 268.424 310.509 228.442L304.915 230.612C320.848 271.686 347.592 305.434 380.653 329.824L384.215 324.995ZM390.178 198.246C406.71 241.9 401.471 288.448 379.836 325.909L385.032 328.91C407.53 289.954 412.984 241.528 395.789 196.121L390.178 198.246Z" fill="white" mask="url(#path-2-outside-1_105_420)"/>
</svg>
