<svg width="381" height="381" viewBox="0 0 381 381" fill="none" xmlns="http://www.w3.org/2000/svg">
<path d="M299.328 149.297C276.771 88.7942 209.539 57.9895 149.157 80.5014C88.7748 103.013 58.1183 170.313 80.6752 230.816C103.232 291.319 170.464 322.123 230.846 299.611C291.228 277.1 321.885 209.8 299.328 149.297Z" fill="black" stroke="white" stroke-width="3"/>
<mask id="path-2-outside-1_103_233" maskUnits="userSpaceOnUse" x="36.9066" y="37.4307" width="306.147" height="306.147" fill="black">
<rect fill="white" x="36.9066" y="37.4307" width="306.147" height="306.147"/>
<path fill-rule="evenodd" clip-rule="evenodd" d="M225.922 80.4629C257.25 90.8246 283.897 114.497 296.997 147.419L232.576 171.437C221.58 141.213 219.839 109.846 225.922 80.4629ZM223.047 79.5532C216.778 109.558 218.527 141.608 229.765 172.485L190.508 187.121L151.09 81.3923C175.151 72.7705 200.247 72.6659 223.047 79.5532ZM148.279 82.4403L187.697 188.169L151.633 201.614C139.656 170.237 119.382 144.423 94.2489 125.743C106.948 106.719 125.406 91.3028 148.279 82.4403ZM188.745 190.98L152.679 204.426C164.315 236.564 165.681 269.964 158.432 300.995C180.837 307.439 205.37 307.158 228.914 298.721L188.745 190.98ZM231.725 297.673C255.998 288.269 275.298 271.483 288.021 250.838C262.996 232.216 242.794 206.518 230.816 175.295L191.556 189.932L231.725 297.673ZM92.6123 128.265C117.225 146.603 137.079 171.912 148.822 202.662L81.2078 227.87C69.2182 193.432 74.489 157.005 92.6123 128.265ZM149.868 205.474L82.2303 230.691C95.2288 265.176 122.955 289.826 155.554 300.127C162.623 269.704 161.267 236.973 149.868 205.474ZM298.071 150.22L233.627 174.247C245.357 204.806 265.105 229.977 289.57 248.25C306.255 219.528 310.464 183.832 298.071 150.22Z"/>
</mask>
<path fill-rule="evenodd" clip-rule="evenodd" d="M225.922 80.4629C257.25 90.8246 283.897 114.497 296.997 147.419L232.576 171.437C221.58 141.213 219.839 109.846 225.922 80.4629ZM223.047 79.5532C216.778 109.558 218.527 141.608 229.765 172.485L190.508 187.121L151.09 81.3923C175.151 72.7705 200.247 72.6659 223.047 79.5532ZM148.279 82.4403L187.697 188.169L151.633 201.614C139.656 170.237 119.382 144.423 94.2489 125.743C106.948 106.719 125.406 91.3028 148.279 82.4403ZM188.745 190.98L152.679 204.426C164.315 236.564 165.681 269.964 158.432 300.995C180.837 307.439 205.37 307.158 228.914 298.721L188.745 190.98ZM231.725 297.673C255.998 288.269 275.298 271.483 288.021 250.838C262.996 232.216 242.794 206.518 230.816 175.295L191.556 189.932L231.725 297.673ZM92.6123 128.265C117.225 146.603 137.079 171.912 148.822 202.662L81.2078 227.87C69.2182 193.432 74.489 157.005 92.6123 128.265ZM149.868 205.474L82.2303 230.691C95.2288 265.176 122.955 289.826 155.554 300.127C162.623 269.704 161.267 236.973 149.868 205.474ZM298.071 150.22L233.627 174.247C245.357 204.806 265.105 229.977 289.57 248.25C306.255 219.528 310.464 183.832 298.071 150.22Z" fill="#FF5E00"/>
<path d="M296.997 147.419L298.045 150.23L300.918 149.159L299.784 146.31L296.997 147.419ZM225.922 80.4629L226.864 77.6146L223.667 76.5572L222.984 79.8547L225.922 80.4629ZM232.576 171.437L229.757 172.462L230.791 175.304L233.624 174.248L232.576 171.437ZM229.765 172.485L230.813 175.296L233.603 174.256L232.584 171.458L229.765 172.485ZM223.047 79.5532L225.983 80.1668L226.545 77.4762L223.914 76.6814L223.047 79.5532ZM190.508 187.121L187.697 188.169L188.745 190.98L191.556 189.932L190.508 187.121ZM151.09 81.3923L150.078 78.5681L147.217 79.5931L148.279 82.4403L151.09 81.3923ZM187.697 188.169L188.745 190.98L191.556 189.932L190.508 187.121L187.697 188.169ZM148.279 82.4403L151.09 81.3923L150.028 78.5451L147.195 79.6429L148.279 82.4403ZM151.633 201.614L148.83 202.684L149.892 205.465L152.681 204.425L151.633 201.614ZM94.2489 125.743L91.7538 124.077L90.1703 126.449L92.4594 128.151L94.2489 125.743ZM152.679 204.426L151.631 201.615L148.846 202.653L149.858 205.447L152.679 204.426ZM188.745 190.98L191.556 189.932L190.508 187.121L187.697 188.169L188.745 190.98ZM158.432 300.995L155.511 300.313L154.862 303.09L157.603 303.879L158.432 300.995ZM228.914 298.721L229.926 301.546L232.786 300.521L231.725 297.673L228.914 298.721ZM288.021 250.838L290.575 252.412L292.017 250.072L289.812 248.431L288.021 250.838ZM231.725 297.673L228.914 298.721L229.975 301.569L232.808 300.471L231.725 297.673ZM230.816 175.295L233.617 174.22L232.552 171.446L229.768 172.484L230.816 175.295ZM191.556 189.932L190.508 187.121L187.697 188.169L188.745 190.98L191.556 189.932ZM148.822 202.662L149.87 205.473L152.703 204.417L151.625 201.592L148.822 202.662ZM92.6123 128.265L94.4047 125.859L91.8044 123.922L90.0747 126.665L92.6123 128.265ZM81.2078 227.87L78.3746 228.857L79.3828 231.752L82.2559 230.681L81.2078 227.87ZM82.2303 230.691L81.1823 227.88L78.3611 228.932L79.4231 231.749L82.2303 230.691ZM149.868 205.474L152.688 204.453L151.658 201.605L148.82 202.663L149.868 205.474ZM155.554 300.127L154.65 302.988L157.742 303.965L158.476 300.806L155.554 300.127ZM233.627 174.247L232.579 171.436L229.741 172.494L230.826 175.322L233.627 174.247ZM298.071 150.22L300.885 149.183L299.844 146.358L297.023 147.409L298.071 150.22ZM289.57 248.25L287.775 250.654L290.473 252.669L292.164 249.757L289.57 248.25ZM299.784 146.31C286.344 112.532 259 88.2436 226.864 77.6146L224.98 83.3111C255.5 93.4055 281.451 116.463 294.21 148.528L299.784 146.31ZM233.624 174.248L298.045 150.23L295.949 144.608L231.528 168.626L233.624 174.248ZM222.984 79.8547C216.791 109.767 218.565 141.701 229.757 172.462L235.396 170.411C224.595 140.726 222.886 109.925 228.86 81.0711L222.984 79.8547ZM232.584 171.458C221.542 141.122 219.825 109.64 225.983 80.1668L220.11 78.9397C213.73 109.475 215.511 142.094 226.946 173.511L232.584 171.458ZM191.556 189.932L230.813 175.296L228.717 169.674L189.46 184.31L191.556 189.932ZM148.279 82.4403L187.697 188.169L193.319 186.073L153.901 80.3443L148.279 82.4403ZM223.914 76.6814C200.52 69.6147 174.765 69.722 150.078 78.5681L152.102 84.2165C175.537 75.8191 199.973 75.7171 222.179 82.4251L223.914 76.6814ZM190.508 187.121L151.09 81.3923L145.468 83.4883L184.886 189.217L190.508 187.121ZM152.681 204.425L188.745 190.98L186.649 185.358L150.585 198.803L152.681 204.425ZM92.4594 128.151C117.148 146.501 137.063 171.856 148.83 202.684L154.436 200.544C142.249 168.618 121.616 142.346 96.0385 123.335L92.4594 128.151ZM147.195 79.6429C123.727 88.7359 104.785 104.557 91.7538 124.077L96.7441 127.409C109.112 108.881 127.084 93.8697 149.363 85.2377L147.195 79.6429ZM153.727 207.237L189.793 193.791L187.697 188.169L151.631 201.615L153.727 207.237ZM161.354 301.678C168.73 270.098 167.34 236.106 155.499 203.405L149.858 205.447C161.291 237.023 162.631 269.83 155.511 300.313L161.354 301.678ZM227.902 295.897C204.971 304.114 181.082 304.388 159.261 298.112L157.603 303.879C180.591 310.49 205.77 310.201 229.926 301.546L227.902 295.897ZM231.725 297.673L191.556 189.932L185.934 192.028L226.103 299.769L231.725 297.673ZM285.467 249.264C273.075 269.372 254.282 285.716 230.641 294.876L232.808 300.471C257.713 290.821 277.521 273.595 290.575 252.412L285.467 249.264ZM228.015 176.369C240.203 208.139 260.762 234.294 286.23 253.245L289.812 248.431C265.229 230.139 245.385 204.897 233.617 174.22L228.015 176.369ZM192.604 192.743L231.864 178.106L229.768 172.484L190.508 187.121L192.604 192.743ZM188.745 190.98L228.914 298.721L234.536 296.625L194.367 188.884L188.745 190.98ZM151.625 201.592C139.673 170.295 119.46 144.527 94.4047 125.859L90.82 130.671C114.989 148.678 134.486 173.53 146.019 203.732L151.625 201.592ZM82.2559 230.681L149.87 205.473L147.774 199.851L80.1598 225.059L82.2559 230.681ZM90.0747 126.665C71.484 156.146 66.073 193.522 78.3746 228.857L84.0411 226.884C72.3635 193.342 77.4941 157.864 95.1499 129.865L90.0747 126.665ZM83.2783 233.502L150.916 208.285L148.82 202.663L81.1823 227.88L83.2783 233.502ZM156.458 297.266C124.7 287.231 97.6984 263.222 85.0375 229.633L79.4231 231.749C92.7593 267.13 121.21 292.421 154.65 302.988L156.458 297.266ZM147.047 206.495C158.243 237.432 159.574 269.572 152.632 299.448L158.476 300.806C165.672 269.836 164.291 236.514 152.688 204.453L147.047 206.495ZM234.675 177.058L299.119 153.031L297.023 147.409L232.579 171.436L234.675 177.058ZM291.365 245.847C267.341 227.902 247.948 203.186 236.428 173.172L230.826 175.322C242.765 206.425 262.87 232.051 287.775 250.654L291.365 245.847ZM295.256 151.258C307.327 183.997 303.23 218.762 286.976 246.743L292.164 249.757C309.279 220.294 313.6 183.667 300.885 149.183L295.256 151.258Z" fill="white" mask="url(#path-2-outside-1_103_233)"/>
</svg>
