<svg width="517" height="517" viewBox="0 0 517 517" fill="none" xmlns="http://www.w3.org/2000/svg">
<path d="M410.253 209.154C382.991 125.072 292.871 78.9581 208.959 106.165C125.047 133.372 79.13 223.593 106.392 307.675C133.654 391.757 223.775 437.871 307.687 410.664C391.599 383.457 437.516 293.236 410.253 209.154Z" fill="black" stroke="white" stroke-width="3"/>
<mask id="path-2-outside-1_105_456" maskUnits="userSpaceOnUse" x="53.909" y="53.9817" width="408.442" height="409.085" fill="black">
<rect fill="white" x="53.909" y="53.9817" width="408.442" height="409.085"/>
<path fill-rule="evenodd" clip-rule="evenodd" d="M313.612 109.946C356.389 126.008 391.884 160.374 407.883 206.794L317.496 236.1C303.998 193.672 303.431 150.194 313.612 109.946ZM310.779 108.913C300.385 149.774 300.93 193.935 314.642 237.026L258.832 255.121L210.851 107.135C244.746 96.4932 279.598 97.875 310.779 108.913ZM207.997 108.061L255.978 256.046L204.622 272.698C190.126 228.805 163.832 192.08 130.408 164.906C149.089 139.199 175.648 118.883 207.997 108.061ZM256.904 258.9L205.544 275.552C219.733 320.401 219.669 366.395 207.864 408.608C238.532 419.007 272.622 420.109 305.795 409.693L256.904 258.9ZM308.649 408.768C342.956 397.29 370.75 375.136 389.543 347.196C356.27 320.109 330.075 283.553 315.57 239.879L259.757 257.975L308.649 408.768ZM128.664 167.355C161.582 194.165 187.479 230.367 201.768 273.623L106.927 304.373C92.2308 256.039 101.736 205.925 128.664 167.355ZM202.691 276.477L107.826 307.235C123.58 355.799 160.501 391.572 205.026 407.616C216.625 366.002 216.669 320.677 202.691 276.477ZM408.834 209.639L318.424 238.953C332.71 281.953 358.475 317.963 391.202 344.677C416.142 306.034 424.137 256.861 408.834 209.639Z"/>
</mask>
<path fill-rule="evenodd" clip-rule="evenodd" d="M313.612 109.946C356.389 126.008 391.884 160.374 407.883 206.794L317.496 236.1C303.998 193.672 303.431 150.194 313.612 109.946ZM310.779 108.913C300.385 149.774 300.93 193.935 314.642 237.026L258.832 255.121L210.851 107.135C244.746 96.4932 279.598 97.875 310.779 108.913ZM207.997 108.061L255.978 256.046L204.622 272.698C190.126 228.805 163.832 192.08 130.408 164.906C149.089 139.199 175.648 118.883 207.997 108.061ZM256.904 258.9L205.544 275.552C219.733 320.401 219.669 366.395 207.864 408.608C238.532 419.007 272.622 420.109 305.795 409.693L256.904 258.9ZM308.649 408.768C342.956 397.29 370.75 375.136 389.543 347.196C356.27 320.109 330.075 283.553 315.57 239.879L259.757 257.975L308.649 408.768ZM128.664 167.355C161.582 194.165 187.479 230.367 201.768 273.623L106.927 304.373C92.2308 256.039 101.736 205.925 128.664 167.355ZM202.691 276.477L107.826 307.235C123.58 355.799 160.501 391.572 205.026 407.616C216.625 366.002 216.669 320.677 202.691 276.477ZM408.834 209.639L318.424 238.953C332.71 281.953 358.475 317.963 391.202 344.677C416.142 306.034 424.137 256.861 408.834 209.639Z" fill="#FF5E00"/>
<path d="M407.883 206.794L408.808 209.648L411.715 208.705L410.719 205.817L407.883 206.794ZM313.612 109.946L314.667 107.138L311.526 105.958L310.704 109.21L313.612 109.946ZM317.496 236.1L314.637 237.01L315.552 239.884L318.421 238.954L317.496 236.1ZM314.642 237.026L315.567 239.879L318.406 238.959L317.501 236.116L314.642 237.026ZM310.779 108.913L313.686 109.652L314.361 106.999L311.78 106.085L310.779 108.913ZM258.832 255.121L255.978 256.046L256.904 258.9L259.757 257.975L258.832 255.121ZM210.851 107.135L209.952 104.273L207.063 105.18L207.997 108.061L210.851 107.135ZM255.978 256.046L256.904 258.9L259.757 257.975L258.832 255.121L255.978 256.046ZM207.997 108.061L210.851 107.135L209.917 104.255L207.045 105.216L207.997 108.061ZM204.622 272.698L201.773 273.638L202.709 276.472L205.547 275.551L204.622 272.698ZM130.408 164.906L127.981 163.143L126.311 165.442L128.516 167.234L130.408 164.906ZM205.544 275.552L204.619 272.698L201.786 273.617L202.684 276.457L205.544 275.552ZM256.904 258.9L259.757 257.975L258.832 255.121L255.978 256.046L256.904 258.9ZM207.864 408.608L204.975 407.8L204.21 410.537L206.901 411.449L207.864 408.608ZM305.795 409.693L306.694 412.555L309.583 411.648L308.649 408.768L305.795 409.693ZM389.543 347.196L392.032 348.87L393.56 346.598L391.437 344.869L389.543 347.196ZM308.649 408.768L305.795 409.693L306.729 412.573L309.601 411.613L308.649 408.768ZM315.57 239.879L318.417 238.933L317.478 236.106L314.644 237.025L315.57 239.879ZM259.757 257.975L258.832 255.121L255.978 256.046L256.904 258.9L259.757 257.975ZM201.768 273.623L202.693 276.477L205.563 275.546L204.616 272.682L201.768 273.623ZM128.664 167.355L130.558 165.029L128.053 162.989L126.204 165.638L128.664 167.355ZM106.927 304.373L104.057 305.246L104.946 308.169L107.852 307.227L106.927 304.373ZM107.826 307.235L106.901 304.382L104.047 305.307L104.973 308.161L107.826 307.235ZM202.691 276.477L205.551 275.573L204.64 272.692L201.765 273.624L202.691 276.477ZM205.026 407.616L204.01 410.438L207.049 411.533L207.916 408.421L205.026 407.616ZM318.424 238.953L317.498 236.1L314.624 237.032L315.577 239.899L318.424 238.953ZM408.834 209.639L411.688 208.715L410.763 205.86L407.909 206.786L408.834 209.639ZM391.202 344.677L389.305 347.001L391.904 349.122L393.723 346.304L391.202 344.677ZM410.719 205.817C394.418 158.518 358.247 123.501 314.667 107.138L312.558 112.755C354.531 128.515 389.351 162.231 405.047 207.772L410.719 205.817ZM318.421 238.954L408.808 209.648L406.958 203.94L316.571 233.247L318.421 238.954ZM310.704 109.21C300.39 149.985 300.965 194.033 314.637 237.01L320.355 235.191C307.031 193.311 306.473 150.403 316.521 110.682L310.704 109.21ZM317.501 236.116C303.963 193.575 303.427 149.986 313.686 109.652L307.871 108.173C297.344 149.562 297.896 194.294 311.783 237.935L317.501 236.116ZM259.757 257.975L315.567 239.879L313.717 234.172L257.907 252.267L259.757 257.975ZM207.997 108.061L255.978 256.046L261.686 254.196L213.704 106.21L207.997 108.061ZM311.78 106.085C280.008 94.8378 244.489 93.4294 209.952 104.273L211.749 109.998C245.003 99.557 279.188 100.912 309.778 111.741L311.78 106.085ZM258.832 255.121L210.851 107.135L205.143 108.986L253.125 256.971L258.832 255.121ZM205.547 275.551L256.904 258.9L255.053 253.192L203.696 269.844L205.547 275.551ZM128.516 167.234C161.508 194.058 187.462 230.306 201.773 273.638L207.47 271.757C192.789 227.304 166.156 190.103 132.301 162.579L128.516 167.234ZM207.045 105.216C174.084 116.243 147.017 136.947 127.981 163.143L132.835 166.67C151.162 141.45 177.212 121.523 208.949 110.906L207.045 105.216ZM206.47 278.406L257.829 261.754L255.978 256.046L204.619 272.698L206.47 278.406ZM210.754 409.416C222.71 366.658 222.775 320.069 208.405 274.647L202.684 276.457C216.692 320.733 216.627 366.131 204.975 407.8L210.754 409.416ZM304.897 406.831C272.351 417.049 238.914 415.969 208.828 405.767L206.901 411.449C238.15 422.045 272.893 423.168 306.694 412.555L304.897 406.831ZM308.649 408.768L259.757 257.975L254.05 259.825L302.942 410.618L308.649 408.768ZM387.053 345.521C368.617 372.932 341.354 394.663 307.697 405.923L309.601 411.613C344.557 399.918 372.883 377.339 392.032 348.87L387.053 345.521ZM312.723 240.824C327.413 285.056 353.947 322.087 387.649 349.522L391.437 344.869C358.593 318.132 332.737 282.05 318.417 238.933L312.723 240.824ZM260.683 260.828L316.495 242.732L314.644 237.025L258.832 255.121L260.683 260.828ZM256.904 258.9L305.795 409.693L311.503 407.842L262.611 257.049L256.904 258.9ZM204.616 272.682C190.143 228.867 163.907 192.189 130.558 165.029L126.769 169.681C159.258 196.14 184.815 231.867 198.919 274.564L204.616 272.682ZM107.852 307.227L202.693 276.477L200.843 270.769L106.002 301.519L107.852 307.227ZM126.204 165.638C98.771 204.932 89.0822 255.996 104.057 305.246L109.797 303.5C95.3794 256.081 104.702 206.919 131.124 169.073L126.204 165.638ZM108.752 310.089L203.616 279.331L201.765 273.624L106.901 304.382L108.752 310.089ZM206.043 404.793C162.355 389.051 126.136 353.955 110.68 306.31L104.973 308.161C121.024 357.643 158.648 394.093 204.01 410.438L206.043 404.793ZM199.83 277.382C213.628 321.01 213.584 365.741 202.137 406.81L207.916 408.421C219.666 366.264 219.711 320.345 205.551 275.573L199.83 277.382ZM319.349 241.807L409.759 212.493L407.909 206.786L317.498 236.1L319.349 241.807ZM393.099 342.353C360.8 315.988 335.372 280.451 321.271 238.007L315.577 239.899C330.047 283.455 356.15 319.938 389.305 347.001L393.099 342.353ZM405.98 210.564C420.994 256.894 413.153 305.133 388.681 343.05L393.723 346.304C419.131 306.935 427.28 256.829 411.688 208.715L405.98 210.564Z" fill="white" mask="url(#path-2-outside-1_105_456)"/>
</svg>
