<svg width="481" height="482" viewBox="0 0 481 482" fill="none" xmlns="http://www.w3.org/2000/svg">
<path d="M400.899 224.867C392.094 136.138 313.178 71.3262 224.629 80.1131C136.08 88.9001 71.4402 167.957 80.2451 256.686C89.0499 345.415 167.966 410.227 256.515 401.44C345.064 392.653 409.704 313.596 400.899 224.867Z" fill="black" stroke="white" stroke-width="3"/>
<mask id="path-2-outside-1_105_375" maskUnits="userSpaceOnUse" x="61.6557" y="62.3862" width="357.692" height="357.692" fill="black">
<rect fill="white" x="61.6557" y="62.3862" width="357.692" height="357.692"/>
<path fill-rule="evenodd" clip-rule="evenodd" d="M326.959 106.307C365.681 131.332 393.291 172.841 399.084 222.045L303.68 231.512C299.488 186.783 308.273 143.798 326.959 106.307ZM324.411 104.694C305.386 142.738 296.435 186.386 300.695 231.808L241.769 237.656L226.27 81.4656C261.976 78.2547 296.042 87.1079 324.411 104.694ZM223.285 81.7618L238.784 237.952L184.559 243.333C179.703 196.951 161.677 155.101 134.57 121.133C158.512 99.7995 189.064 85.4768 223.285 81.7618ZM239.08 240.937L184.852 246.318C189.204 293.576 179.259 338.899 158.553 377.973C186.553 394.819 219.927 403.232 254.873 400.09L239.08 240.937ZM257.859 399.793C294.15 395.854 326.316 379.984 350.847 356.473C323.87 322.625 305.905 280.961 300.994 234.793L242.065 240.641L257.859 399.793ZM132.344 123.154C159.035 156.658 176.784 197.914 181.573 243.629L81.4695 253.562C77.364 202.752 97.5056 155.39 132.344 123.154ZM181.867 246.615L81.7386 256.551C86.8292 307.814 115.542 351.017 155.992 376.399C176.369 337.867 186.152 293.193 181.867 246.615ZM399.407 225.027L303.979 234.497C308.82 279.959 326.481 320.997 353.004 354.366C385.9 321.631 404.35 274.871 399.407 225.027Z"/>
</mask>
<path fill-rule="evenodd" clip-rule="evenodd" d="M326.959 106.307C365.681 131.332 393.291 172.841 399.084 222.045L303.68 231.512C299.488 186.783 308.273 143.798 326.959 106.307ZM324.411 104.694C305.386 142.738 296.435 186.386 300.695 231.808L241.769 237.656L226.27 81.4656C261.976 78.2547 296.042 87.1079 324.411 104.694ZM223.285 81.7618L238.784 237.952L184.559 243.333C179.703 196.951 161.677 155.101 134.57 121.133C158.512 99.7995 189.064 85.4768 223.285 81.7618ZM239.08 240.937L184.852 246.318C189.204 293.576 179.259 338.899 158.553 377.973C186.553 394.819 219.927 403.232 254.873 400.09L239.08 240.937ZM257.859 399.793C294.15 395.854 326.316 379.984 350.847 356.473C323.87 322.625 305.905 280.961 300.994 234.793L242.065 240.641L257.859 399.793ZM132.344 123.154C159.035 156.658 176.784 197.914 181.573 243.629L81.4695 253.562C77.364 202.752 97.5056 155.39 132.344 123.154ZM181.867 246.615L81.7386 256.551C86.8292 307.814 115.542 351.017 155.992 376.399C176.369 337.867 186.152 293.193 181.867 246.615ZM399.407 225.027L303.979 234.497C308.82 279.959 326.481 320.997 353.004 354.366C385.9 321.631 404.35 274.871 399.407 225.027Z" fill="#FF5E00"/>
<path d="M399.084 222.045L399.38 225.03L402.42 224.728L402.063 221.694L399.084 222.045ZM326.959 106.307L328.587 103.788L325.77 101.967L324.274 104.969L326.959 106.307ZM303.68 231.512L300.693 231.792L300.975 234.795L303.976 234.497L303.68 231.512ZM300.695 231.808L300.991 234.793L303.96 234.499L303.682 231.528L300.695 231.808ZM324.411 104.694L327.094 106.036L328.319 103.587L325.991 102.144L324.411 104.694ZM241.769 237.656L238.784 237.952L239.08 240.937L242.065 240.641L241.769 237.656ZM226.27 81.4656L226.001 78.4776L222.986 78.7488L223.285 81.7618L226.27 81.4656ZM238.784 237.952L239.08 240.937L242.065 240.641L241.769 237.656L238.784 237.952ZM223.285 81.7618L226.27 81.4656L225.971 78.4526L222.961 78.7793L223.285 81.7618ZM184.559 243.333L181.575 243.645L181.886 246.613L184.855 246.318L184.559 243.333ZM134.57 121.133L132.574 118.893L130.452 120.784L132.225 123.004L134.57 121.133ZM184.852 246.318L184.556 243.333L181.592 243.627L181.865 246.593L184.852 246.318ZM239.08 240.937L242.065 240.641L241.769 237.656L238.784 237.952L239.08 240.937ZM158.553 377.973L155.902 376.568L154.572 379.079L157.007 380.544L158.553 377.973ZM254.873 400.09L255.142 403.078L258.158 402.806L257.859 399.793L254.873 400.09ZM350.847 356.473L352.923 358.639L354.899 356.745L353.193 354.603L350.847 356.473ZM257.859 399.793L254.873 400.09L255.172 403.103L258.182 402.776L257.859 399.793ZM300.994 234.793L303.977 234.476L303.662 231.514L300.697 231.808L300.994 234.793ZM242.065 240.641L241.769 237.656L238.784 237.952L239.08 240.937L242.065 240.641ZM181.573 243.629L181.869 246.614L184.871 246.316L184.557 243.316L181.573 243.629ZM132.344 123.154L134.69 121.285L132.677 118.758L130.306 120.952L132.344 123.154ZM81.4695 253.562L78.4792 253.804L78.7253 256.85L81.7657 256.548L81.4695 253.562ZM81.7386 256.551L81.4423 253.565L78.4568 253.861L78.7533 256.847L81.7386 256.551ZM181.867 246.615L184.854 246.34L184.577 243.331L181.571 243.629L181.867 246.615ZM155.992 376.399L154.397 378.94L157.134 380.657L158.644 377.801L155.992 376.399ZM303.979 234.497L303.683 231.512L300.676 231.81L300.996 234.815L303.979 234.497ZM399.407 225.027L402.392 224.731L402.096 221.746L399.111 222.042L399.407 225.027ZM353.004 354.366L350.656 356.233L352.743 358.859L355.121 356.493L353.004 354.366ZM402.063 221.694C396.162 171.567 368.03 129.278 328.587 103.788L325.331 108.827C363.332 133.386 390.42 174.116 396.104 222.396L402.063 221.694ZM303.976 234.497L399.38 225.03L398.787 219.059L303.384 228.527L303.976 234.497ZM324.274 104.969C305.345 142.945 296.448 186.49 300.693 231.792L306.667 231.232C302.529 187.076 311.2 144.65 329.644 107.645L324.274 104.969ZM303.682 231.528C299.476 186.68 308.313 143.593 327.094 106.036L321.728 103.352C302.459 141.883 293.394 186.091 297.708 232.088L303.682 231.528ZM242.065 240.641L300.991 234.793L300.399 228.823L241.473 234.67L242.065 240.641ZM223.285 81.7618L238.784 237.952L244.755 237.359L229.255 81.1693L223.285 81.7618ZM325.991 102.144C297.09 84.2277 262.378 75.2064 226.001 78.4776L226.539 84.4535C261.575 81.3029 294.995 89.9882 322.83 107.244L325.991 102.144ZM241.769 237.656L226.27 81.4656L220.299 82.0581L235.799 238.248L241.769 237.656ZM184.855 246.318L239.08 240.937L238.488 234.966L184.262 240.347L184.855 246.318ZM132.225 123.004C158.985 156.538 176.781 197.85 181.575 243.645L187.542 243.02C182.625 196.052 164.369 153.664 136.914 119.262L132.225 123.004ZM222.961 78.7793C188.098 82.564 156.966 97.1582 132.574 118.893L136.565 123.373C160.057 102.441 190.029 88.3896 223.608 84.7443L222.961 78.7793ZM185.149 249.304L239.376 243.922L238.784 237.952L184.556 243.333L185.149 249.304ZM161.204 379.378C182.175 339.804 192.247 293.899 187.84 246.043L181.865 246.593C186.162 293.252 176.344 337.994 155.902 376.568L161.204 379.378ZM254.605 397.102C220.315 400.185 187.573 391.932 160.1 375.402L157.007 380.544C185.533 397.706 219.54 406.279 255.142 403.078L254.605 397.102ZM257.859 399.793L242.065 240.641L236.095 241.233L251.888 400.386L257.859 399.793ZM348.771 354.307C324.701 377.376 293.145 392.945 257.535 396.811L258.182 402.776C295.156 398.762 327.931 382.591 352.923 358.639L348.771 354.307ZM298.01 235.111C302.984 281.863 321.179 324.062 348.501 358.343L353.193 354.603C326.561 321.188 308.826 280.059 303.977 234.476L298.01 235.111ZM242.362 243.626L301.29 237.779L300.697 231.808L241.769 237.656L242.362 243.626ZM239.08 240.937L254.873 400.09L260.844 399.497L245.051 240.345L239.08 240.937ZM184.557 243.316C179.707 197.015 161.727 155.223 134.69 121.285L129.997 125.024C156.343 158.093 173.862 198.812 178.589 243.941L184.557 243.316ZM81.7657 256.548L181.869 246.614L181.277 240.644L81.1733 250.577L81.7657 256.548ZM130.306 120.952C94.8197 153.788 74.2967 202.04 78.4792 253.804L84.4598 253.321C80.4313 203.465 100.192 156.992 134.381 125.356L130.306 120.952ZM82.0348 259.536L182.163 249.6L181.571 243.629L81.4423 253.565L82.0348 259.536ZM157.586 373.858C117.889 348.949 89.7192 306.557 84.7239 256.254L78.7533 256.847C83.9393 309.072 113.194 353.086 154.397 378.94L157.586 373.858ZM178.879 246.889C183.109 292.87 173.453 336.964 153.34 374.996L158.644 377.801C179.285 338.771 189.194 293.515 184.854 246.34L178.879 246.889ZM304.275 237.482L399.703 228.013L399.111 222.042L303.683 231.512L304.275 237.482ZM355.353 352.499C329.173 319.563 311.741 279.059 306.962 234.179L300.996 234.815C305.899 280.86 323.789 322.431 350.656 356.233L355.353 352.499ZM396.422 225.323C401.272 274.233 383.171 320.114 350.888 352.24L355.121 356.493C388.628 323.148 407.428 275.509 402.392 224.731L396.422 225.323Z" fill="white" mask="url(#path-2-outside-1_105_375)"/>
</svg>
