<svg width="350" height="351" viewBox="0 0 350 351" fill="none" xmlns="http://www.w3.org/2000/svg">
<path d="M283.36 230.323C313.96 170.294 290.208 96.8735 230.299 66.3352C170.391 35.7969 97.0228 59.7105 66.4233 119.739C35.8238 179.767 59.5759 253.188 119.484 283.726C179.392 314.264 252.761 290.351 283.36 230.323Z" fill="black" stroke="white" stroke-width="3"/>
<mask id="path-2-outside-1_9_3310" maskUnits="userSpaceOnUse" x="7.65778" y="7.67783" width="334.033" height="334.47" fill="black">
<rect fill="white" x="7.65778" y="7.67783" width="334.033" height="334.47"/>
<path fill-rule="evenodd" clip-rule="evenodd" d="M284.522 125.237C298.701 156.68 299.306 193.941 283.19 227.293L219.179 194.664C234.673 164.829 257.595 141.316 284.522 125.237ZM283.248 122.503C255.737 138.866 232.317 162.846 216.506 193.301L177.419 173.377L230.951 68.3611C254.618 80.7931 272.445 100.059 283.248 122.503ZM228.278 66.9987L174.746 172.014L138.829 153.705C154.525 122.339 160.077 88.5132 156.704 55.9872C180.342 52.307 205.277 55.6266 228.278 66.9987ZM173.384 174.687L137.464 156.377C120.964 188.03 96.2344 212.667 67.2424 229.001C78.1082 250.827 95.6746 269.536 118.833 281.7L173.384 174.687ZM121.506 283.063C145.912 295.13 172.496 298.13 197.396 293.322C194.055 260.92 199.569 227.233 215.146 195.975L176.056 176.049L121.506 283.063ZM153.739 56.4866C157.013 88.3977 151.549 121.573 136.156 152.343L68.9752 118.097C87.0073 84.5103 118.793 62.8228 153.739 56.4866ZM134.791 155.014L67.5884 120.758C50.197 155.135 50.8116 193.916 65.9362 226.293C94.3586 210.239 118.602 186.06 134.791 155.014ZM281.851 229.979L217.819 197.338C202.563 227.963 197.132 260.96 200.35 292.713C234.267 285.281 264.741 263.292 281.851 229.979Z"/>
</mask>
<path fill-rule="evenodd" clip-rule="evenodd" d="M284.522 125.237C298.701 156.68 299.306 193.941 283.19 227.293L219.179 194.664C234.673 164.829 257.595 141.316 284.522 125.237ZM283.248 122.503C255.737 138.866 232.317 162.846 216.506 193.301L177.419 173.377L230.951 68.3611C254.618 80.7931 272.445 100.059 283.248 122.503ZM228.278 66.9987L174.746 172.014L138.829 153.705C154.525 122.339 160.077 88.5132 156.704 55.9872C180.342 52.307 205.277 55.6266 228.278 66.9987ZM173.384 174.687L137.464 156.377C120.964 188.03 96.2344 212.667 67.2424 229.001C78.1082 250.827 95.6746 269.536 118.833 281.7L173.384 174.687ZM121.506 283.063C145.912 295.13 172.496 298.13 197.396 293.322C194.055 260.92 199.569 227.233 215.146 195.975L176.056 176.049L121.506 283.063ZM153.739 56.4866C157.013 88.3977 151.549 121.573 136.156 152.343L68.9752 118.097C87.0073 84.5103 118.793 62.8228 153.739 56.4866ZM134.791 155.014L67.5884 120.758C50.197 155.135 50.8116 193.916 65.9362 226.293C94.3586 210.239 118.602 186.06 134.791 155.014ZM281.851 229.979L217.819 197.338C202.563 227.963 197.132 260.96 200.35 292.713C234.267 285.281 264.741 263.292 281.851 229.979Z" fill="#FF5E00"/>
<path d="M283.19 227.293L281.827 229.966L284.557 231.358L285.891 228.599L283.19 227.293ZM284.522 125.237L287.256 124.003L285.873 120.935L282.984 122.661L284.522 125.237ZM219.179 194.664L216.517 193.281L215.124 195.964L217.817 197.337L219.179 194.664ZM216.506 193.301L215.144 195.974L217.797 197.327L219.169 194.684L216.506 193.301ZM283.248 122.503L284.781 125.081L287.142 123.677L285.951 121.202L283.248 122.503ZM177.419 173.377L174.746 172.014L173.384 174.687L176.056 176.049L177.419 173.377ZM230.951 68.3611L232.346 65.7052L229.657 64.293L228.278 66.9987L230.951 68.3611ZM174.746 172.014L173.384 174.687L176.056 176.049L177.419 173.377L174.746 172.014ZM228.278 66.9987L230.951 68.3611L232.33 65.6554L229.608 64.3094L228.278 66.9987ZM138.829 153.705L136.146 152.363L134.813 155.025L137.466 156.378L138.829 153.705ZM156.704 55.9872L156.243 53.0229L153.426 53.4614L153.72 56.2966L156.704 55.9872ZM137.464 156.377L138.826 153.704L136.178 152.354L134.804 154.99L137.464 156.377ZM173.384 174.687L176.056 176.049L177.419 173.377L174.746 172.014L173.384 174.687ZM67.2424 229.001L65.7699 226.387L63.2866 227.786L64.5568 230.338L67.2424 229.001ZM118.833 281.7L117.438 284.356L120.127 285.769L121.506 283.063L118.833 281.7ZM197.396 293.322L197.965 296.267L200.662 295.746L200.381 293.014L197.396 293.322ZM121.506 283.063L118.833 281.7L117.454 284.406L120.176 285.752L121.506 283.063ZM215.146 195.975L217.831 197.313L219.157 194.653L216.509 193.303L215.146 195.975ZM176.056 176.049L177.419 173.377L174.746 172.014L173.384 174.687L176.056 176.049ZM136.156 152.343L134.793 155.015L137.486 156.388L138.839 153.685L136.156 152.343ZM153.739 56.4866L156.724 56.1805L156.393 52.9566L153.204 53.5348L153.739 56.4866ZM68.9752 118.097L66.3321 116.678L64.8825 119.378L67.6128 120.77L68.9752 118.097ZM67.5884 120.758L68.9509 118.085L66.2699 116.718L64.9115 119.403L67.5884 120.758ZM134.791 155.014L137.451 156.401L138.851 153.717L136.153 152.341L134.791 155.014ZM65.9362 226.293L63.2181 227.563L64.5898 230.499L67.4116 228.905L65.9362 226.293ZM217.819 197.338L219.181 194.665L216.484 193.29L215.134 196L217.819 197.338ZM281.851 229.979L284.52 231.349L285.895 228.672L283.214 227.306L281.851 229.979ZM200.35 292.713L197.366 293.015L197.705 296.364L200.992 295.643L200.35 292.713ZM285.891 228.599C302.409 194.415 301.786 156.224 287.256 124.003L281.787 126.47C295.616 157.137 296.203 193.467 280.488 225.988L285.891 228.599ZM217.817 197.337L281.827 229.966L284.552 224.621L220.542 191.991L217.817 197.337ZM282.984 122.661C255.593 139.017 232.274 162.938 216.517 193.281L221.842 196.047C237.071 166.72 259.598 143.614 286.06 127.812L282.984 122.661ZM219.169 194.684C234.715 164.739 257.737 141.167 284.781 125.081L281.714 119.925C253.737 136.565 229.919 160.953 213.844 191.919L219.169 194.684ZM176.056 176.049L215.144 195.974L217.869 190.629L178.781 170.704L176.056 176.049ZM228.278 66.9987L174.746 172.014L180.092 174.739L233.623 69.7236L228.278 66.9987ZM285.951 121.202C274.878 98.1982 256.603 78.4471 232.346 65.7052L229.556 71.017C252.633 83.1391 270.011 101.92 280.544 123.804L285.951 121.202ZM177.419 173.377L230.951 68.3611L225.605 65.6362L172.073 170.652L177.419 173.377ZM137.466 156.378L173.384 174.687L176.109 169.341L140.191 151.032L137.466 156.378ZM153.72 56.2966C157.036 88.2716 151.579 121.522 136.146 152.363L141.511 155.048C157.471 123.156 163.118 88.7548 159.688 55.6777L153.72 56.2966ZM229.608 64.3094C206.034 52.6541 180.471 49.2508 156.243 53.0229L157.166 58.9514C180.213 55.3632 204.52 58.5991 226.948 69.6879L229.608 64.3094ZM136.101 159.049L172.021 177.36L174.746 172.014L138.826 153.704L136.101 159.049ZM68.715 231.615C98.1978 215.004 123.347 189.947 140.124 157.763L134.804 154.99C118.581 186.112 94.271 210.33 65.7699 226.387L68.715 231.615ZM120.228 279.044C97.6467 267.183 80.5226 248.945 69.928 227.664L64.5568 230.338C75.6938 252.709 93.7025 271.888 117.438 284.356L120.228 279.044ZM121.506 283.063L176.056 176.049L170.711 173.324L116.16 280.338L121.506 283.063ZM196.828 290.376C172.547 295.064 146.633 292.139 122.836 280.374L120.176 285.752C145.191 298.12 172.444 301.195 197.965 296.267L196.828 290.376ZM212.461 194.637C196.623 226.419 191.014 260.679 194.412 293.629L200.381 293.014C197.096 261.161 202.516 228.047 217.831 197.313L212.461 194.637ZM174.694 178.722L213.784 198.648L216.509 193.303L177.419 173.377L174.694 178.722ZM173.384 174.687L118.833 281.7L124.179 284.425L178.729 177.412L173.384 174.687ZM138.839 153.685C154.494 122.391 160.054 88.6415 156.724 56.1805L150.755 56.7928C153.972 88.1539 148.603 120.756 133.473 151L138.839 153.685ZM67.6128 120.77L134.793 155.015L137.518 149.67L70.3377 115.424L67.6128 120.77ZM153.204 53.5348C117.394 60.0275 84.8136 82.254 66.3321 116.678L71.6184 119.516C89.2009 86.7666 120.191 65.6181 154.275 59.4385L153.204 53.5348ZM66.226 123.43L133.429 157.687L136.153 152.341L68.9509 118.085L66.226 123.43ZM68.6542 225.023C53.9034 193.446 53.3066 155.634 70.2654 122.112L64.9115 119.403C47.0873 154.637 47.7198 194.385 63.2181 227.563L68.6542 225.023ZM132.131 153.627C116.218 184.143 92.3937 207.903 64.4607 223.681L67.4116 228.905C96.3235 212.574 120.985 187.977 137.451 156.401L132.131 153.627ZM216.456 200.011L280.489 232.651L283.214 227.306L219.181 194.665L216.456 200.011ZM203.335 292.41C200.172 261.205 205.509 228.779 220.504 198.676L215.134 196C199.618 227.148 194.091 260.715 197.366 293.015L203.335 292.41ZM279.183 228.608C262.498 261.093 232.787 282.534 199.708 289.782L200.992 295.643C235.748 288.028 266.984 265.491 284.52 231.349L279.183 228.608Z" fill="white" mask="url(#path-2-outside-1_9_3310)"/>
</svg>
