<svg width="505" height="506" viewBox="0 0 505 506" fill="none" xmlns="http://www.w3.org/2000/svg">
<path d="M459.018 299.513C484.939 185.13 413.423 71.4304 299.274 45.5625C185.126 19.6946 71.5809 91.4567 45.6599 205.84C19.7389 320.223 91.2551 433.923 205.404 459.79C319.552 485.658 433.097 413.896 459.018 299.513Z" fill="black" stroke="white" stroke-width="3"/>
<mask id="path-2-outside-1_9_3110" maskUnits="userSpaceOnUse" x="-4.26511" y="-3.5574" width="512.23" height="512.984" fill="black">
<rect fill="white" x="-4.26511" y="-3.5574" width="512.23" height="512.984"/>
<path fill-rule="evenodd" clip-rule="evenodd" d="M416.138 120.141C454.436 167.738 471.778 231.521 458.293 295.799L334.554 267.758C347.936 209.765 376.953 159.41 416.138 120.141ZM414.231 117.805C374.549 157.492 345.165 208.422 331.628 267.095L254.567 249.631L300.404 47.3616C346.769 58.2101 385.965 83.6851 414.231 117.805ZM297.478 46.6986L251.641 248.968L180.651 232.881C194.022 172.796 188.961 112.873 169.207 59.0412C208.286 42.1325 252.807 36.9036 297.478 46.6986ZM250.978 251.894L179.986 235.806C165.802 296.816 134.473 349.429 92.2562 389.702C120.375 422.739 158.89 447.372 204.273 457.991L250.978 251.894ZM207.199 458.654C254.554 469.037 301.74 462.537 342.453 443.138C322.818 389.514 317.759 329.856 330.968 270.021L253.904 252.557L207.199 458.654ZM166.456 60.2547C185.962 113.515 190.948 172.787 177.726 232.218L47.9148 202.801C63.9039 137.154 109.106 86.0445 166.456 60.2547ZM177.06 235.143L47.2252 205.721C47.1908 205.871 47.1567 206.021 47.1226 206.171C32.0735 272.579 50.1004 338.753 90.3239 387.398C132.057 347.536 163.027 295.487 177.06 235.143ZM457.657 298.731L333.894 270.684C320.841 329.828 325.81 388.796 345.167 441.821C400.166 414.646 442.922 363.754 457.555 299.181C457.589 299.031 457.623 298.881 457.657 298.731Z"/>
</mask>
<path fill-rule="evenodd" clip-rule="evenodd" d="M416.138 120.141C454.436 167.738 471.778 231.521 458.293 295.799L334.554 267.758C347.936 209.765 376.953 159.41 416.138 120.141ZM414.231 117.805C374.549 157.492 345.165 208.422 331.628 267.095L254.567 249.631L300.404 47.3616C346.769 58.2101 385.965 83.6851 414.231 117.805ZM297.478 46.6986L251.641 248.968L180.651 232.881C194.022 172.796 188.961 112.873 169.207 59.0412C208.286 42.1325 252.807 36.9036 297.478 46.6986ZM250.978 251.894L179.986 235.806C165.802 296.816 134.473 349.429 92.2562 389.702C120.375 422.739 158.89 447.372 204.273 457.991L250.978 251.894ZM207.199 458.654C254.554 469.037 301.74 462.537 342.453 443.138C322.818 389.514 317.759 329.856 330.968 270.021L253.904 252.557L207.199 458.654ZM166.456 60.2547C185.962 113.515 190.948 172.787 177.726 232.218L47.9148 202.801C63.9039 137.154 109.106 86.0445 166.456 60.2547ZM177.06 235.143L47.2252 205.721C47.1908 205.871 47.1567 206.021 47.1226 206.171C32.0735 272.579 50.1004 338.753 90.3239 387.398C132.057 347.536 163.027 295.487 177.06 235.143ZM457.657 298.731L333.894 270.684C320.841 329.828 325.81 388.796 345.167 441.821C400.166 414.646 442.922 363.754 457.555 299.181C457.589 299.031 457.623 298.881 457.657 298.731Z" fill="#FF5E00"/>
<path d="M458.293 295.799L457.63 298.725L460.603 299.399L461.229 296.415L458.293 295.799ZM416.138 120.141L418.475 118.261L416.378 115.654L414.014 118.022L416.138 120.141ZM334.554 267.758L331.631 267.083L330.954 270.018L333.891 270.684L334.554 267.758ZM331.628 267.095L330.965 270.021L333.88 270.681L334.552 267.769L331.628 267.095ZM414.231 117.805L416.352 119.926L418.284 117.995L416.541 115.891L414.231 117.805ZM254.567 249.631L251.641 248.968L250.978 251.894L253.904 252.557L254.567 249.631ZM300.404 47.3616L301.088 44.4405L298.146 43.7523L297.478 46.6986L300.404 47.3616ZM251.641 248.968L250.978 251.894L253.904 252.557L254.567 249.631L251.641 248.968ZM297.478 46.6986L300.404 47.3616L301.072 44.4153L298.121 43.7682L297.478 46.6986ZM180.651 232.881L177.723 232.229L177.074 235.146L179.988 235.807L180.651 232.881ZM169.207 59.0412L168.016 56.2878L165.414 57.4135L166.391 60.0746L169.207 59.0412ZM179.986 235.806L180.649 232.881L177.739 232.221L177.064 235.127L179.986 235.806ZM250.978 251.894L253.904 252.557L254.567 249.631L251.641 248.968L250.978 251.894ZM92.2562 389.702L90.1855 387.531L88.1345 389.488L89.9717 391.646L92.2562 389.702ZM204.273 457.991L203.59 460.912L206.531 461.6L207.199 458.654L204.273 457.991ZM342.453 443.138L343.744 445.846L346.21 444.671L345.27 442.107L342.453 443.138ZM207.199 458.654L204.273 457.991L203.605 460.937L206.556 461.584L207.199 458.654ZM330.968 270.021L333.897 270.668L334.54 267.755L331.631 267.095L330.968 270.021ZM253.904 252.557L254.567 249.631L251.641 248.968L250.978 251.894L253.904 252.557ZM177.726 232.218L177.062 235.144L180 235.81L180.654 232.87L177.726 232.218ZM166.456 60.2547L169.274 59.223L168.165 56.1969L165.226 57.5186L166.456 60.2547ZM47.9148 202.801L45 202.091L44.2786 205.053L47.2518 205.727L47.9148 202.801ZM47.2252 205.721L47.8882 202.795L44.9686 202.133L44.3008 205.051L47.2252 205.721ZM177.06 235.143L179.982 235.823L180.665 232.884L177.723 232.218L177.06 235.143ZM90.3239 387.398L88.0119 389.31L90.0656 391.794L92.3961 389.568L90.3239 387.398ZM333.894 270.684L334.557 267.758L331.614 267.092L330.964 270.038L333.894 270.684ZM457.657 298.731L460.584 299.388L461.239 296.467L458.32 295.805L457.657 298.731ZM345.167 441.821L342.349 442.85L343.496 445.993L346.496 444.511L345.167 441.821ZM461.229 296.415C474.906 231.222 457.314 166.529 418.475 118.261L413.801 122.022C451.558 168.946 468.65 231.82 455.357 295.183L461.229 296.415ZM333.891 270.684L457.63 298.725L458.956 292.873L335.217 264.832L333.891 270.684ZM414.014 118.022C374.445 157.677 345.143 208.528 331.631 267.083L337.477 268.432C350.73 211.002 379.461 161.144 418.262 122.26L414.014 118.022ZM334.552 267.769C347.958 209.66 377.057 159.228 416.352 119.926L412.109 115.684C372.042 155.757 342.372 207.184 328.705 266.42L334.552 267.769ZM253.904 252.557L330.965 270.021L332.291 264.169L255.23 246.706L253.904 252.557ZM297.478 46.6986L251.641 248.968L257.492 250.294L303.33 48.0247L297.478 46.6986ZM416.541 115.891C387.873 81.2849 348.112 55.4435 301.088 44.4405L299.721 50.2828C345.425 60.9768 384.058 86.0852 411.921 119.719L416.541 115.891ZM254.567 249.631L300.404 47.3616L294.552 46.0356L248.715 248.305L254.567 249.631ZM179.988 235.807L250.978 251.894L252.304 246.043L181.314 229.955L179.988 235.807ZM166.391 60.0746C185.952 113.383 190.965 172.722 177.723 232.229L183.58 233.533C197.079 172.871 191.969 112.363 172.024 58.0077L166.391 60.0746ZM298.121 43.7682C252.814 33.8338 207.653 39.1379 168.016 56.2878L170.399 61.7945C208.92 45.1272 252.8 39.9733 296.836 49.629L298.121 43.7682ZM179.323 238.732L250.315 254.82L251.641 248.968L180.649 232.881L179.323 238.732ZM94.327 391.873C136.954 351.208 168.587 298.082 182.908 236.486L177.064 235.127C163.016 295.549 131.992 347.649 90.1855 387.531L94.327 391.873ZM204.957 455.069C160.219 444.602 122.258 420.323 94.5408 387.757L89.9717 391.646C118.491 425.154 157.56 450.142 203.59 460.912L204.957 455.069ZM207.199 458.654L253.904 252.557L248.052 251.231L201.347 457.328L207.199 458.654ZM341.163 440.43C301.029 459.553 254.522 465.959 207.841 455.723L206.556 461.584C254.586 472.116 302.45 465.522 343.744 445.846L341.163 440.43ZM328.038 269.375C314.702 329.785 319.81 390.024 339.636 444.17L345.27 442.107C325.826 389.004 320.815 329.928 333.897 270.668L328.038 269.375ZM253.24 255.483L330.305 272.947L331.631 267.095L254.567 249.631L253.24 255.483ZM250.978 251.894L204.273 457.991L210.125 459.317L256.829 253.22L250.978 251.894ZM180.654 232.87C194.005 172.861 188.971 113.006 169.274 59.223L163.639 61.2864C182.954 114.024 187.891 172.712 174.797 231.567L180.654 232.87ZM47.2518 205.727L177.062 235.144L178.389 229.292L48.5779 199.875L47.2518 205.727ZM165.226 57.5186C107.065 83.6725 61.2168 135.51 45 202.091L50.8296 203.511C66.591 138.799 111.146 88.4165 167.687 62.9908L165.226 57.5186ZM46.5621 208.647L176.397 238.069L177.723 232.218L47.8882 202.795L46.5621 208.647ZM50.0484 206.834C50.082 206.686 50.1157 206.538 50.1496 206.39L44.3008 205.051C44.266 205.203 44.2313 205.356 44.1968 205.508L50.0484 206.834ZM92.6359 385.487C52.9804 337.529 35.2133 272.298 50.0484 206.834L44.1968 205.508C28.9338 272.86 47.2203 339.978 88.0119 389.31L92.6359 385.487ZM174.138 234.464C160.241 294.222 129.576 345.758 88.2518 385.229L92.3961 389.568C134.539 349.315 165.813 296.753 179.982 235.823L174.138 234.464ZM333.231 273.61L456.994 301.657L458.32 295.805L334.557 267.758L333.231 273.61ZM347.985 440.793C328.819 388.287 323.897 329.9 336.823 271.331L330.964 270.038C317.784 329.755 322.802 389.304 342.349 442.85L347.985 440.793ZM454.629 298.518C440.204 362.174 398.06 412.341 343.838 439.132L346.496 444.511C402.272 416.952 445.64 365.335 460.481 299.844L454.629 298.518ZM454.729 298.074C454.696 298.222 454.663 298.37 454.629 298.518L460.481 299.844C460.515 299.692 460.55 299.54 460.584 299.388L454.729 298.074Z" fill="white" mask="url(#path-2-outside-1_9_3110)"/>
</svg>
