<svg width="371" height="372" viewBox="0 0 371 372" fill="none" xmlns="http://www.w3.org/2000/svg">
<path d="M326.858 200.77C335.276 122.46 278.752 52.1632 200.601 43.7624C122.449 35.3616 52.2759 92.0396 43.8581 170.349C35.4404 248.658 91.9646 318.955 170.116 327.356C248.267 335.757 318.441 279.079 326.858 200.77Z" fill="black" stroke="white" stroke-width="3"/>
<mask id="path-2-outside-1_105_438" maskUnits="userSpaceOnUse" x="25.864" y="26.0173" width="318.339" height="319.227" fill="black">
<rect fill="white" x="25.864" y="26.0173" width="318.339" height="319.227"/>
<path fill-rule="evenodd" clip-rule="evenodd" d="M284.351 85.148C313.157 113.701 329.451 154.403 325.64 197.809L241.724 188.789C246.197 149.517 261.51 114.08 284.351 85.148ZM282.187 83.0478C258.901 112.453 243.289 148.504 238.742 188.468L187.15 182.922L201.931 45.4218C233.21 49.1155 260.918 62.8465 282.187 83.0478ZM198.948 45.1012L184.168 182.602L136.719 177.501C140.859 136.596 132.834 97.2291 115.561 63.0217C140.006 49.0057 168.852 42.1841 198.948 45.1012ZM183.847 185.584L136.396 180.484C131.596 222.048 114.824 259.365 89.9028 289.357C110.985 308.854 138.175 322.082 168.786 325.696L183.847 185.584ZM171.769 326.017C203.693 329.111 234.21 321.248 259.561 305.463C242.377 271.381 234.37 232.184 238.423 191.451L186.83 185.905L171.769 326.017ZM112.969 64.5448C129.929 98.2131 137.805 136.941 133.736 177.181L45.6775 167.715C51.3385 123.237 77.1925 86.0815 112.969 64.5448ZM133.413 180.163L45.3297 170.695C40.545 215.754 57.4853 258.116 87.7173 287.292C112.206 257.765 128.686 221.049 133.413 180.163ZM325.347 200.795L241.406 191.772C237.428 231.8 245.266 270.322 262.104 303.842C296.294 281.529 320.582 244.59 325.347 200.795Z"/>
</mask>
<path fill-rule="evenodd" clip-rule="evenodd" d="M284.351 85.148C313.157 113.701 329.451 154.403 325.64 197.809L241.724 188.789C246.197 149.517 261.51 114.08 284.351 85.148ZM282.187 83.0478C258.901 112.453 243.289 148.504 238.742 188.468L187.15 182.922L201.931 45.4218C233.21 49.1155 260.918 62.8465 282.187 83.0478ZM198.948 45.1012L184.168 182.602L136.719 177.501C140.859 136.596 132.834 97.2291 115.561 63.0217C140.006 49.0057 168.852 42.1841 198.948 45.1012ZM183.847 185.584L136.396 180.484C131.596 222.048 114.824 259.365 89.9028 289.357C110.985 308.854 138.175 322.082 168.786 325.696L183.847 185.584ZM171.769 326.017C203.693 329.111 234.21 321.248 259.561 305.463C242.377 271.381 234.37 232.184 238.423 191.451L186.83 185.905L171.769 326.017ZM112.969 64.5448C129.929 98.2131 137.805 136.941 133.736 177.181L45.6775 167.715C51.3385 123.237 77.1925 86.0815 112.969 64.5448ZM133.413 180.163L45.3297 170.695C40.545 215.754 57.4853 258.116 87.7173 287.292C112.206 257.765 128.686 221.049 133.413 180.163ZM325.347 200.795L241.406 191.772C237.428 231.8 245.266 270.322 262.104 303.842C296.294 281.529 320.582 244.59 325.347 200.795Z" fill="#FF5E00"/>
<path d="M325.64 197.809L325.32 200.792L328.361 201.119L328.629 198.071L325.64 197.809ZM284.351 85.148L286.463 83.0173L284.078 80.6528L281.996 83.2891L284.351 85.148ZM241.724 188.789L238.744 188.449L238.402 191.449L241.404 191.771L241.724 188.789ZM238.742 188.468L238.421 191.451L241.385 191.769L241.722 188.807L238.742 188.468ZM282.187 83.0478L284.539 84.9102L286.241 82.7608L284.253 80.8726L282.187 83.0478ZM187.15 182.922L184.168 182.602L183.847 185.584L186.83 185.905L187.15 182.922ZM201.931 45.4218L202.283 42.4425L199.272 42.087L198.948 45.1012L201.931 45.4218ZM184.168 182.602L183.847 185.584L186.83 185.905L187.15 182.922L184.168 182.602ZM198.948 45.1012L201.931 45.4218L202.255 42.4077L199.238 42.1152L198.948 45.1012ZM136.719 177.501L133.735 177.199L133.434 180.165L136.399 180.484L136.719 177.501ZM115.561 63.0217L114.069 60.4191L111.601 61.8343L112.883 64.3739L115.561 63.0217ZM136.396 180.484L136.717 177.501L133.758 177.183L133.416 180.14L136.396 180.484ZM183.847 185.584L186.83 185.905L187.15 182.922L184.168 182.602L183.847 185.584ZM89.9028 289.357L87.5954 287.44L85.7772 289.628L87.8658 291.56L89.9028 289.357ZM168.786 325.696L168.434 328.676L171.445 329.031L171.769 326.017L168.786 325.696ZM259.561 305.463L261.147 308.01L263.474 306.561L262.24 304.113L259.561 305.463ZM171.769 326.017L168.786 325.696L168.462 328.711L171.479 329.003L171.769 326.017ZM238.423 191.451L241.409 191.748L241.703 188.786L238.744 188.468L238.423 191.451ZM186.83 185.905L187.15 182.922L184.168 182.602L183.847 185.584L186.83 185.905ZM133.736 177.181L133.416 180.163L136.418 180.486L136.721 177.482L133.736 177.181ZM112.969 64.5448L115.648 63.1951L114.193 60.3063L111.422 61.9746L112.969 64.5448ZM45.6775 167.715L42.7015 167.336L42.3153 170.371L45.3569 170.698L45.6775 167.715ZM45.3297 170.695L45.6504 167.712L42.6637 167.391L42.3465 170.378L45.3297 170.695ZM133.413 180.163L136.393 180.508L136.741 177.503L133.734 177.18L133.413 180.163ZM87.7173 287.292L85.634 289.451L87.9616 291.697L90.0265 289.208L87.7173 287.292ZM241.406 191.772L241.727 188.789L238.72 188.466L238.421 191.475L241.406 191.772ZM325.347 200.795L328.329 201.119L328.654 198.133L325.668 197.812L325.347 200.795ZM262.104 303.842L259.423 305.189L260.931 308.19L263.743 306.354L262.104 303.842ZM328.629 198.071C332.521 153.742 315.877 112.173 286.463 83.0173L282.239 87.2786C310.437 115.23 326.382 155.064 322.652 197.547L328.629 198.071ZM241.404 191.771L325.32 200.792L325.961 194.826L242.045 185.806L241.404 191.771ZM281.996 83.2891C258.819 112.647 243.281 148.607 238.744 188.449L244.705 189.128C249.113 150.427 264.2 115.514 286.706 87.0069L281.996 83.2891ZM241.722 188.807C246.205 149.416 261.59 113.889 284.539 84.9102L279.835 81.1854C256.212 111.017 240.374 147.592 235.761 188.129L241.722 188.807ZM186.83 185.905L238.421 191.451L239.062 185.485L187.471 179.939L186.83 185.905ZM198.948 45.1012L184.168 182.602L190.133 183.243L204.914 45.7425L198.948 45.1012ZM284.253 80.8726C262.531 60.2411 234.228 46.2148 202.283 42.4425L201.579 48.4011C232.193 52.0162 259.305 65.4519 280.121 85.223L284.253 80.8726ZM187.15 182.922L201.931 45.4218L195.965 44.7806L181.185 182.281L187.15 182.922ZM136.399 180.484L183.847 185.584L184.488 179.619L137.04 174.518L136.399 180.484ZM112.883 64.3739C129.906 98.0858 137.815 136.88 133.735 177.199L139.704 177.803C143.903 136.312 135.762 96.3724 118.239 61.6695L112.883 64.3739ZM199.238 42.1152C168.501 39.136 139.035 46.1042 114.069 60.4191L117.053 65.6242C140.977 51.9073 169.202 45.2321 198.659 48.0872L199.238 42.1152ZM136.076 183.467L183.526 188.567L184.168 182.602L136.717 177.501L136.076 183.467ZM92.2101 291.274C117.492 260.848 134.507 222.988 139.376 180.828L133.416 180.14C128.684 221.108 112.156 257.882 87.5954 287.44L92.2101 291.274ZM169.138 322.717C139.178 319.179 112.572 306.236 91.9397 287.155L87.8658 291.56C109.397 311.472 137.172 324.984 168.434 328.676L169.138 322.717ZM171.769 326.017L186.83 185.905L180.864 185.264L165.803 325.376L171.769 326.017ZM257.975 302.917C233.164 318.365 203.303 326.059 172.058 323.031L171.479 329.003C204.083 332.163 235.257 324.13 261.147 308.01L257.975 302.917ZM235.438 191.154C231.327 232.471 239.449 272.238 256.882 306.814L262.24 304.113C245.305 270.524 237.414 231.898 241.409 191.748L235.438 191.154ZM186.509 188.888L238.103 194.434L238.744 188.468L187.15 182.922L186.509 188.888ZM183.847 185.584L168.786 325.696L174.751 326.338L189.813 186.226L183.847 185.584ZM136.721 177.482C140.849 136.658 132.858 97.3582 115.648 63.1951L110.29 65.8945C127.001 99.0679 134.761 137.224 130.752 176.879L136.721 177.482ZM45.3569 170.698L133.416 180.163L134.057 174.198L45.9982 164.732L45.3569 170.698ZM111.422 61.9746C74.8905 83.9656 48.483 121.911 42.7015 167.336L48.6535 168.094C54.194 124.562 79.4946 88.1973 114.516 67.115L111.422 61.9746ZM45.0091 173.677L133.093 183.146L133.734 177.18L45.6504 167.712L45.0091 173.677ZM89.8006 285.134C60.2066 256.573 43.6298 215.114 48.313 171.011L42.3465 170.378C37.4601 216.395 54.764 259.659 85.634 289.451L89.8006 285.134ZM130.433 179.819C125.775 220.11 109.537 256.283 85.4081 285.377L90.0265 289.208C114.875 259.246 131.598 221.989 136.393 180.508L130.433 179.819ZM241.086 194.755L325.026 203.778L325.668 197.812L241.727 188.789L241.086 194.755ZM264.785 302.495C248.194 269.468 240.471 231.515 244.392 192.068L238.421 191.475C234.385 232.086 242.338 271.176 259.423 305.189L264.785 302.495ZM322.365 200.47C317.701 243.335 293.933 279.487 260.464 301.33L263.743 306.354C298.655 283.57 323.463 245.844 328.329 201.119L322.365 200.47Z" fill="white" mask="url(#path-2-outside-1_105_438)"/>
</svg>
