<svg width="436" height="436" viewBox="0 0 436 436" fill="none" xmlns="http://www.w3.org/2000/svg">
<path d="M360.259 198.711C349.653 119.837 277.249 64.4714 198.534 75.0558C119.819 85.6402 64.6119 158.165 75.2176 237.039C85.8234 315.913 158.227 371.279 236.942 360.694C315.657 350.11 370.864 277.585 360.259 198.711Z" fill="black" stroke="white" stroke-width="3"/>
<mask id="path-2-outside-1_103_195" maskUnits="userSpaceOnUse" x="53.2295" y="53.3614" width="328.442" height="329.3" fill="black">
<rect fill="white" x="53.2295" y="53.3614" width="328.442" height="329.3"/>
<path fill-rule="evenodd" clip-rule="evenodd" d="M290.684 95.4691C325.846 116.553 351.652 152.582 358.368 196.112L273.821 207.481C268.744 167.852 275.235 129.375 290.684 95.4691ZM288.082 93.9456C272.313 128.417 265.679 167.561 270.848 207.881L218.848 214.873L200.222 76.3501C231.821 72.4335 262.334 79.2362 288.082 93.9456ZM197.248 76.7499L215.875 215.273L168.048 221.704C162.257 180.558 144.896 143.854 119.701 114.442C140.32 94.7877 166.996 81.1368 197.248 76.7499ZM216.275 218.246L168.445 224.677C173.752 266.628 166.284 307.296 149.052 342.737C174.447 356.8 204.33 363.233 235.255 359.4L216.275 218.246ZM238.228 359C270.317 354.347 298.383 339.27 319.464 317.661C294.386 288.351 277.084 251.81 271.25 210.854L219.248 217.846L238.228 359ZM117.547 116.54C142.31 145.502 159.374 181.622 165.074 222.104L76.3546 234.033C71.1872 189.006 87.6138 146.3 117.547 116.54ZM165.472 225.077L76.7273 237.01C82.8851 282.398 109.725 319.901 146.437 341.252C163.36 306.365 170.688 266.352 165.472 225.077ZM358.795 199.082L274.224 210.454C279.962 250.707 296.94 286.634 321.547 315.48C349.736 285.339 364.677 243.223 358.795 199.082Z"/>
</mask>
<path fill-rule="evenodd" clip-rule="evenodd" d="M290.684 95.4691C325.846 116.553 351.652 152.582 358.368 196.112L273.821 207.481C268.744 167.852 275.235 129.375 290.684 95.4691ZM288.082 93.9456C272.313 128.417 265.679 167.561 270.848 207.881L218.848 214.873L200.222 76.3501C231.821 72.4335 262.334 79.2362 288.082 93.9456ZM197.248 76.7499L215.875 215.273L168.048 221.704C162.257 180.558 144.896 143.854 119.701 114.442C140.32 94.7877 166.996 81.1368 197.248 76.7499ZM216.275 218.246L168.445 224.677C173.752 266.628 166.284 307.296 149.052 342.737C174.447 356.8 204.33 363.233 235.255 359.4L216.275 218.246ZM238.228 359C270.317 354.347 298.383 339.27 319.464 317.661C294.386 288.351 277.084 251.81 271.25 210.854L219.248 217.846L238.228 359ZM117.547 116.54C142.31 145.502 159.374 181.622 165.074 222.104L76.3546 234.033C71.1872 189.006 87.6138 146.3 117.547 116.54ZM165.472 225.077L76.7273 237.01C82.8851 282.398 109.725 319.901 146.437 341.252C163.36 306.365 170.688 266.352 165.472 225.077ZM358.795 199.082L274.224 210.454C279.962 250.707 296.94 286.634 321.547 315.48C349.736 285.339 364.677 243.223 358.795 199.082Z" fill="#FF5E00"/>
<path d="M358.368 196.112L358.768 199.086L361.799 198.678L361.333 195.655L358.368 196.112ZM290.684 95.4691L292.227 92.8962L289.347 91.1692L287.954 94.2252L290.684 95.4691ZM273.821 207.481L270.846 207.862L271.229 210.857L274.221 210.454L273.821 207.481ZM270.848 207.881L271.248 210.854L274.203 210.457L273.824 207.499L270.848 207.881ZM288.082 93.9456L290.81 95.1935L291.95 92.7005L289.57 91.3407L288.082 93.9456ZM218.848 214.873L215.875 215.273L216.275 218.246L219.248 217.846L218.848 214.873ZM200.222 76.3501L199.853 73.3728L196.844 73.7457L197.248 76.7499L200.222 76.3501ZM215.875 215.273L216.275 218.246L219.248 217.846L218.848 214.873L215.875 215.273ZM197.248 76.7499L200.222 76.3501L199.818 73.3459L196.818 73.7809L197.248 76.7499ZM168.048 221.704L165.077 222.122L165.493 225.074L168.448 224.677L168.048 221.704ZM119.701 114.442L117.631 112.271L115.572 114.234L117.423 116.394L119.701 114.442ZM168.445 224.677L168.045 221.704L165.095 222.101L165.469 225.054L168.445 224.677ZM216.275 218.246L219.248 217.846L218.848 214.873L215.875 215.273L216.275 218.246ZM149.052 342.737L146.354 341.425L145.11 343.983L147.598 345.361L149.052 342.737ZM235.255 359.4L235.624 362.377L238.632 362.004L238.228 359L235.255 359.4ZM319.464 317.661L321.611 319.756L323.526 317.794L321.743 315.711L319.464 317.661ZM238.228 359L235.255 359.4L235.659 362.404L238.659 361.969L238.228 359ZM271.25 210.854L274.22 210.431L273.801 207.484L270.851 207.88L271.25 210.854ZM219.248 217.846L218.848 214.873L215.875 215.273L216.275 218.246L219.248 217.846ZM165.074 222.104L165.474 225.077L168.466 224.675L168.045 221.685L165.074 222.104ZM117.547 116.54L119.827 114.59L117.725 112.132L115.432 114.412L117.547 116.54ZM76.3546 234.033L73.3741 234.375L73.7229 237.414L76.7544 237.007L76.3546 234.033ZM76.7273 237.01L76.3275 234.037L73.3508 234.437L73.7545 237.414L76.7273 237.01ZM165.472 225.077L168.448 224.701L168.069 221.701L165.072 222.104L165.472 225.077ZM146.437 341.252L144.929 343.846L147.725 345.472L149.136 342.562L146.437 341.252ZM274.224 210.454L273.824 207.481L270.827 207.884L271.254 210.877L274.224 210.454ZM358.795 199.082L361.769 198.686L361.372 195.709L358.395 196.109L358.795 199.082ZM321.547 315.48L319.265 317.427L321.444 319.982L323.738 317.53L321.547 315.48ZM361.333 195.655C354.476 151.208 328.123 114.42 292.227 92.8962L289.141 98.042C323.569 118.685 348.829 153.956 355.403 196.57L361.333 195.655ZM274.221 210.454L358.768 199.086L357.968 193.139L273.422 204.508L274.221 210.454ZM287.954 94.2252C272.28 128.625 265.696 167.663 270.846 207.862L276.797 207.1C271.793 168.041 278.19 130.126 293.414 96.713L287.954 94.2252ZM273.824 207.499C268.728 167.752 275.267 129.17 290.81 95.1935L285.353 92.6976C269.359 127.663 262.63 167.371 267.873 208.262L273.824 207.499ZM219.248 217.846L271.248 210.854L270.448 204.908L218.448 211.9L219.248 217.846ZM197.248 76.7499L215.875 215.273L221.821 214.473L203.195 75.9503L197.248 76.7499ZM289.57 91.3407C263.279 76.3213 232.118 69.3738 199.853 73.3728L200.591 79.3273C231.525 75.4932 261.388 82.1511 286.593 96.5505L289.57 91.3407ZM218.848 214.873L200.222 76.3501L194.275 77.1497L212.902 215.673L218.848 214.873ZM168.448 224.677L216.275 218.246L215.475 212.3L167.648 218.731L168.448 224.677ZM117.423 116.394C142.257 145.384 159.369 181.56 165.077 222.122L171.018 221.286C165.146 179.556 147.536 142.324 121.979 112.491L117.423 116.394ZM196.818 73.7809C165.929 78.2602 138.685 92.2013 117.631 112.271L121.771 116.614C141.955 97.374 168.063 84.0135 197.679 79.7188L196.818 73.7809ZM168.845 227.651L216.674 221.219L215.875 215.273L168.045 221.704L168.845 227.651ZM151.75 344.048C169.229 308.1 176.803 266.847 171.421 224.301L165.469 225.054C170.7 266.409 163.34 306.491 146.354 341.425L151.75 344.048ZM234.886 356.423C204.612 360.175 175.365 353.879 150.505 340.112L147.598 345.361C173.529 359.721 204.049 366.291 235.624 362.377L234.886 356.423ZM238.228 359L219.248 217.846L213.301 218.646L232.282 359.8L238.228 359ZM317.316 315.566C296.679 336.72 269.21 351.476 237.797 356.031L238.659 361.969C271.423 357.218 300.086 341.82 321.611 319.756L317.316 315.566ZM268.28 211.277C274.197 252.814 291.747 289.881 317.184 319.612L321.743 315.711C297.025 286.821 279.972 250.806 274.22 210.431L268.28 211.277ZM219.648 220.819L271.65 213.827L270.851 207.88L218.848 214.873L219.648 220.819ZM216.275 218.246L235.255 359.4L241.201 358.6L222.221 217.446L216.275 218.246ZM168.045 221.685C162.262 180.621 144.95 143.974 119.827 114.59L115.267 118.489C139.67 147.03 156.485 182.622 162.104 222.522L168.045 221.685ZM76.7544 237.007L165.474 225.077L164.675 219.13L75.9548 231.06L76.7544 237.007ZM115.432 114.412C84.8737 144.794 68.098 188.4 73.3741 234.375L79.335 233.691C74.2765 189.612 90.3539 147.806 119.662 118.667L115.432 114.412ZM77.1271 239.983L165.871 228.05L165.072 222.104L76.3275 234.037L77.1271 239.983ZM147.945 338.659C112 317.754 85.7284 281.041 79.7001 236.607L73.7545 237.414C80.0418 283.756 107.451 322.049 144.929 343.846L147.945 338.659ZM162.495 225.453C167.637 266.134 160.415 305.563 143.738 339.943L149.136 342.562C166.305 307.168 173.739 266.57 168.448 224.701L162.495 225.453ZM274.624 213.427L359.195 202.055L358.395 196.109L273.824 207.481L274.624 213.427ZM323.829 313.533C299.58 285.106 282.85 249.705 277.194 210.031L271.254 210.877C277.075 251.71 294.299 288.161 319.265 317.427L323.829 313.533ZM355.821 199.478C361.58 242.692 346.956 283.92 319.356 313.431L323.738 317.53C352.516 286.759 367.774 243.754 361.769 198.686L355.821 199.478Z" fill="white" mask="url(#path-2-outside-1_103_195)"/>
</svg>
