<svg width="290" height="292" viewBox="0 0 290 292" fill="none" xmlns="http://www.w3.org/2000/svg">
<path d="M257.329 177.619C274.796 115.455 238.67 50.9262 176.63 33.494C114.591 16.0617 50.1417 52.3302 32.6746 114.494C15.2075 176.657 51.3339 241.186 113.373 258.618C175.413 276.051 239.862 239.782 257.329 177.619Z" fill="black" stroke="white" stroke-width="3"/>
<mask id="path-2-outside-1_103_242" maskUnits="userSpaceOnUse" x="-2.0335" y="-0.348081" width="293.508" height="293.508" fill="black">
<rect fill="white" x="-2.0335" y="-0.348081" width="293.508" height="293.508"/>
<path fill-rule="evenodd" clip-rule="evenodd" d="M238.646 78.738C257.834 105.582 265.392 140.416 256.554 174.728L190.366 156.13C199.311 125.237 216.404 98.8787 238.646 78.738ZM236.86 76.3075C214.102 96.8407 196.612 123.755 187.477 155.318L147.142 143.985L177.666 35.3542C202.182 42.5824 222.51 57.2986 236.86 76.3075ZM174.778 34.5427L144.254 143.173L107.2 132.762C116.034 100.359 114.885 67.5549 105.606 37.6467C127.082 29.7735 151.079 28.2096 174.778 34.5427ZM143.443 146.061L106.386 135.649C96.8293 168.466 78.2335 196.243 54.0782 217.028C68.3708 235.446 88.3493 249.688 112.338 256.76L143.443 146.061ZM115.226 257.572C140.375 264.293 165.86 262.12 188.312 252.952C179.084 223.154 177.927 190.486 186.668 158.207L146.331 146.873L115.226 257.572ZM102.797 38.7182C111.858 68.0428 112.965 100.192 104.312 131.95L34.8422 112.43C45.4706 77.5477 71.2109 51.2392 102.797 38.7182ZM103.498 134.837L34.0044 115.311C24.1629 150.826 32.0153 187.085 52.266 214.629C75.9177 194.23 94.1263 166.998 103.498 134.837ZM255.769 177.624L189.556 159.019C181.006 190.615 182.109 222.59 191.089 251.775C221.502 238.421 245.954 212.076 255.769 177.624Z"/>
</mask>
<path fill-rule="evenodd" clip-rule="evenodd" d="M238.646 78.738C257.834 105.582 265.392 140.416 256.554 174.728L190.366 156.13C199.311 125.237 216.404 98.8787 238.646 78.738ZM236.86 76.3075C214.102 96.8407 196.612 123.755 187.477 155.318L147.142 143.985L177.666 35.3542C202.182 42.5824 222.51 57.2986 236.86 76.3075ZM174.778 34.5427L144.254 143.173L107.2 132.762C116.034 100.359 114.885 67.5549 105.606 37.6467C127.082 29.7735 151.079 28.2096 174.778 34.5427ZM143.443 146.061L106.386 135.649C96.8293 168.466 78.2335 196.243 54.0782 217.028C68.3708 235.446 88.3493 249.688 112.338 256.76L143.443 146.061ZM115.226 257.572C140.375 264.293 165.86 262.12 188.312 252.952C179.084 223.154 177.927 190.486 186.668 158.207L146.331 146.873L115.226 257.572ZM102.797 38.7182C111.858 68.0428 112.965 100.192 104.312 131.95L34.8422 112.43C45.4706 77.5477 71.2109 51.2392 102.797 38.7182ZM103.498 134.837L34.0044 115.311C24.1629 150.826 32.0153 187.085 52.266 214.629C75.9177 194.23 94.1263 166.998 103.498 134.837ZM255.769 177.624L189.556 159.019C181.006 190.615 182.109 222.59 191.089 251.775C221.502 238.421 245.954 212.076 255.769 177.624Z" fill="#FF5E00"/>
<path d="M256.554 174.728L255.743 177.616L258.695 178.446L259.46 175.476L256.554 174.728ZM238.646 78.738L241.087 76.9934L239.128 74.2539L236.632 76.5142L238.646 78.738ZM190.366 156.13L187.484 155.295L186.643 158.2L189.554 159.018L190.366 156.13ZM187.477 155.318L186.666 158.206L189.532 159.012L190.359 156.152L187.477 155.318ZM236.86 76.3075L238.87 78.535L240.911 76.6937L239.255 74.5L236.86 76.3075ZM147.142 143.985L144.254 143.173L143.443 146.061L146.331 146.873L147.142 143.985ZM177.666 35.3542L178.514 32.4767L175.6 31.6174L174.778 34.5427L177.666 35.3542ZM144.254 143.173L143.443 146.061L146.331 146.873L147.142 143.985L144.254 143.173ZM174.778 34.5427L177.666 35.3542L178.488 32.4289L175.552 31.6444L174.778 34.5427ZM107.2 132.762L104.306 131.973L103.523 134.844L106.389 135.65L107.2 132.762ZM105.606 37.6467L104.574 34.83L101.896 35.8117L102.741 38.5357L105.606 37.6467ZM106.386 135.649L107.198 132.761L104.337 131.957L103.506 134.81L106.386 135.649ZM143.443 146.061L146.331 146.873L147.142 143.985L144.254 143.173L143.443 146.061ZM54.0782 217.028L52.1215 214.754L49.9597 216.615L51.7082 218.868L54.0782 217.028ZM112.338 256.76L111.489 259.638L114.404 260.497L115.226 257.572L112.338 256.76ZM188.312 252.952L189.446 255.729L191.99 254.69L191.177 252.064L188.312 252.952ZM115.226 257.572L112.338 256.76L111.516 259.686L114.451 260.47L115.226 257.572ZM186.668 158.207L189.564 158.991L190.341 156.123L187.48 155.319L186.668 158.207ZM146.331 146.873L147.142 143.985L144.254 143.173L143.443 146.061L146.331 146.873ZM104.312 131.95L103.501 134.838L106.412 135.656L107.207 132.739L104.312 131.95ZM102.797 38.7182L105.663 37.8325L104.706 34.7344L101.692 35.9293L102.797 38.7182ZM34.8422 112.43L31.9724 111.555L31.0787 114.489L34.0307 115.318L34.8422 112.43ZM34.0044 115.311L34.8159 112.422L31.9173 111.608L31.1133 114.509L34.0044 115.311ZM103.498 134.837L106.378 135.677L107.226 132.769L104.31 131.949L103.498 134.837ZM52.266 214.629L49.849 216.406L51.7698 219.019L54.2254 216.901L52.266 214.629ZM189.556 159.019L190.368 156.13L187.452 155.311L186.661 158.235L189.556 159.019ZM255.769 177.624L258.654 178.445L259.479 175.55L256.581 174.735L255.769 177.624ZM191.089 251.775L188.221 252.658L189.211 255.876L192.295 254.522L191.089 251.775ZM259.46 175.476C268.527 140.271 260.77 104.53 241.087 76.9934L236.205 80.4825C254.899 106.634 262.257 140.56 253.649 173.98L259.46 175.476ZM189.554 159.018L255.743 177.616L257.366 171.84L191.177 153.242L189.554 159.018ZM236.632 76.5142C213.99 97.0176 196.588 123.853 187.484 155.295L193.247 156.964C202.033 126.622 218.818 100.74 240.66 80.9617L236.632 76.5142ZM190.359 156.152C199.334 125.141 216.514 98.7049 238.87 78.535L234.851 74.0801C211.69 94.9766 193.89 122.369 184.596 154.484L190.359 156.152ZM146.331 146.873L186.666 158.206L188.289 152.43L147.954 141.097L146.331 146.873ZM174.778 34.5427L144.254 143.173L150.03 144.796L180.554 36.1658L174.778 34.5427ZM239.255 74.5C224.53 54.9961 203.668 39.893 178.514 32.4767L176.818 38.2318C200.696 45.2719 220.489 59.6012 234.466 78.1151L239.255 74.5ZM147.142 143.985L177.666 35.3542L171.89 33.7312L141.366 142.362L147.142 143.985ZM106.389 135.65L143.443 146.061L145.066 140.285L108.012 129.873L106.389 135.65ZM102.741 38.5357C111.856 67.915 112.985 100.137 104.306 131.973L110.095 133.551C119.083 100.581 117.915 67.1947 108.471 36.7577L102.741 38.5357ZM175.552 31.6444C151.238 25.1467 126.609 26.7515 104.574 34.83L106.639 40.4634C127.554 32.7955 150.921 31.2726 174.003 37.441L175.552 31.6444ZM105.575 138.537L142.631 148.949L144.254 143.173L107.198 132.761L105.575 138.537ZM56.035 219.302C80.6171 198.15 99.5423 169.879 109.267 136.488L103.506 134.81C94.1163 167.052 75.85 194.337 52.1215 214.754L56.035 219.302ZM113.186 253.883C89.8217 246.994 70.3684 233.127 56.4483 215.189L51.7082 218.868C66.3733 237.765 86.8769 252.381 111.489 259.638L113.186 253.883ZM115.226 257.572L146.331 146.873L140.555 145.25L109.45 255.949L115.226 257.572ZM187.177 250.175C165.311 259.104 140.495 261.219 116 254.674L114.451 260.47C140.255 267.366 166.41 265.136 189.446 255.729L187.177 250.175ZM183.772 157.423C174.878 190.267 176.056 223.515 185.446 253.839L191.177 252.064C182.113 222.794 180.976 190.706 189.564 158.991L183.772 157.423ZM145.519 149.761L185.857 161.095L187.48 155.319L147.142 143.985L145.519 149.761ZM143.443 146.061L112.338 256.76L118.114 258.383L149.219 147.684L143.443 146.061ZM107.207 132.739C116.013 100.415 114.887 67.685 105.663 37.8325L99.9308 39.6038C108.829 68.4007 109.916 99.9692 101.418 131.161L107.207 132.739ZM34.0307 115.318L103.501 134.838L105.124 129.062L35.6537 109.542L34.0307 115.318ZM101.692 35.9293C69.2907 48.7733 42.8774 75.7655 31.9724 111.555L37.7119 113.304C48.0637 79.33 73.1311 53.7051 103.903 41.5071L101.692 35.9293ZM33.1928 118.199L102.687 137.726L104.31 131.949L34.8159 112.422L33.1928 118.199ZM54.6831 212.852C34.9549 186.018 27.3096 150.704 36.8954 116.112L31.1133 114.509C21.0162 150.947 29.0758 188.151 49.849 216.406L54.6831 212.852ZM100.618 133.998C91.4131 165.585 73.5329 192.325 50.3066 212.358L54.2254 216.901C78.3024 196.135 96.8395 168.41 106.378 135.677L100.618 133.998ZM188.745 161.907L254.958 180.512L256.581 174.735L190.368 156.13L188.745 161.907ZM193.956 250.893C185.138 222.233 184.054 190.836 192.452 159.802L186.661 158.235C177.958 190.394 179.08 222.946 188.221 252.658L193.956 250.893ZM252.884 176.802C243.324 210.36 219.511 236.019 189.882 249.029L192.295 254.522C223.493 240.823 248.585 213.793 258.654 178.445L252.884 176.802Z" fill="white" mask="url(#path-2-outside-1_103_242)"/>
</svg>
