<svg width="275" height="276" viewBox="0 0 275 276" fill="none" xmlns="http://www.w3.org/2000/svg">
<path d="M251.275 162.659C265.186 99.6044 225.455 37.2303 162.526 23.3478C99.5967 9.46526 37.3103 49.3337 23.4 112.388C9.48974 175.443 49.2208 237.817 112.15 251.7C175.079 265.582 237.365 225.714 251.275 162.659Z" fill="black" stroke="white" stroke-width="3"/>
<mask id="path-2-outside-1_103_224" maskUnits="userSpaceOnUse" x="-4.76486" y="-3.95433" width="283.683" height="283.683" fill="black">
<rect fill="white" x="-4.76486" y="-3.95433" width="283.683" height="283.683"/>
<path fill-rule="evenodd" clip-rule="evenodd" d="M227.01 64.9969C247.691 90.7088 257.214 125.057 250.338 159.816L183.2 145.005C190.377 113.654 205.947 86.3677 227.01 64.9969ZM225.089 62.6717C203.533 84.4637 187.598 112.328 180.27 144.358L139.357 135.333L163.665 25.1445C188.552 30.9694 209.683 44.508 225.089 62.6717ZM160.736 24.4982L136.428 134.686L98.8426 126.395C105.822 93.5429 102.814 60.857 91.8518 31.5237C112.846 22.4441 136.716 19.5206 160.736 24.4982ZM135.781 137.616L98.1939 129.324C90.515 162.63 73.526 191.419 50.5896 213.541C65.9046 231.118 86.6593 244.202 111.01 249.902L135.781 137.616ZM113.94 250.548C139.43 255.831 164.751 252.215 186.645 241.787C175.742 212.561 172.732 180.012 179.627 147.289L138.711 138.262L113.94 250.548ZM89.108 32.7529C99.819 61.516 102.749 93.5507 95.913 125.749L25.4469 110.203C34.078 74.7741 58.2835 47.0467 89.108 32.7529ZM95.2642 128.678L24.7739 113.127C16.9644 149.144 26.8625 184.898 48.6441 211.249C71.0996 189.54 87.733 161.318 95.2642 128.678ZM249.718 162.751L182.556 147.935C175.813 179.966 178.729 211.826 189.351 240.455C218.958 225.395 241.875 197.705 249.718 162.751Z"/>
</mask>
<path fill-rule="evenodd" clip-rule="evenodd" d="M227.01 64.9969C247.691 90.7088 257.214 125.057 250.338 159.816L183.2 145.005C190.377 113.654 205.947 86.3677 227.01 64.9969ZM225.089 62.6717C203.533 84.4637 187.598 112.328 180.27 144.358L139.357 135.333L163.665 25.1445C188.552 30.9694 209.683 44.508 225.089 62.6717ZM160.736 24.4982L136.428 134.686L98.8426 126.395C105.822 93.5429 102.814 60.857 91.8518 31.5237C112.846 22.4441 136.716 19.5206 160.736 24.4982ZM135.781 137.616L98.1939 129.324C90.515 162.63 73.526 191.419 50.5896 213.541C65.9046 231.118 86.6593 244.202 111.01 249.902L135.781 137.616ZM113.94 250.548C139.43 255.831 164.751 252.215 186.645 241.787C175.742 212.561 172.732 180.012 179.627 147.289L138.711 138.262L113.94 250.548ZM89.108 32.7529C99.819 61.516 102.749 93.5507 95.913 125.749L25.4469 110.203C34.078 74.7741 58.2835 47.0467 89.108 32.7529ZM95.2642 128.678L24.7739 113.127C16.9644 149.144 26.8625 184.898 48.6441 211.249C71.0996 189.54 87.733 161.318 95.2642 128.678ZM249.718 162.751L182.556 147.935C175.813 179.966 178.729 211.826 189.351 240.455C218.958 225.395 241.875 197.705 249.718 162.751Z" fill="#FF5E00"/>
<path d="M250.338 159.816L249.692 162.745L252.686 163.406L253.281 160.398L250.338 159.816ZM227.01 64.9969L229.347 63.1166L227.237 60.4927L224.873 62.891L227.01 64.9969ZM183.2 145.005L180.276 144.335L179.601 147.283L182.554 147.934L183.2 145.005ZM180.27 144.358L179.624 147.288L182.531 147.929L183.195 145.027L180.27 144.358ZM225.089 62.6717L227.222 64.7815L229.155 62.8273L227.377 60.7311L225.089 62.6717ZM139.357 135.333L136.428 134.686L135.781 137.616L138.711 138.262L139.357 135.333ZM163.665 25.1445L164.349 22.2234L161.39 21.5309L160.736 24.4982L163.665 25.1445ZM136.428 134.686L135.781 137.616L138.711 138.262L139.357 135.333L136.428 134.686ZM160.736 24.4982L163.665 25.1445L164.32 22.1772L161.345 21.5606L160.736 24.4982ZM98.8426 126.395L95.9081 125.771L95.2895 128.683L98.1964 129.324L98.8426 126.395ZM91.8518 31.5237L90.6609 28.7702L88.0432 29.9023L89.0416 32.5739L91.8518 31.5237ZM98.1939 129.324L98.8402 126.394L95.9382 125.754L95.2706 128.65L98.1939 129.324ZM135.781 137.616L138.711 138.262L139.357 135.333L136.428 134.686L135.781 137.616ZM50.5896 213.541L48.5069 211.382L46.4542 213.362L48.3277 215.512L50.5896 213.541ZM111.01 249.902L110.327 252.823L113.285 253.516L113.94 250.548L111.01 249.902ZM186.645 241.787L187.936 244.495L190.417 243.314L189.456 240.738L186.645 241.787ZM113.94 250.548L111.01 249.902L110.356 252.869L113.331 253.486L113.94 250.548ZM179.627 147.289L182.562 147.907L183.175 144.999L180.273 144.359L179.627 147.289ZM138.711 138.262L139.357 135.333L136.428 134.686L135.781 137.616L138.711 138.262ZM95.913 125.749L95.2667 128.678L98.2196 129.33L98.8476 126.372L95.913 125.749ZM89.108 32.7529L91.9194 31.706L90.7878 28.6671L87.846 30.0313L89.108 32.7529ZM25.4469 110.203L22.5321 109.493L21.8064 112.472L24.8006 113.133L25.4469 110.203ZM24.7739 113.127L25.4202 110.197L22.48 109.549L21.842 112.491L24.7739 113.127ZM95.2642 128.678L98.1874 129.352L98.8684 126.401L95.9105 125.748L95.2642 128.678ZM48.6441 211.249L46.3318 213.16L48.3978 215.66L50.7293 213.406L48.6441 211.249ZM182.556 147.935L183.203 145.005L180.245 144.353L179.621 147.317L182.556 147.935ZM249.718 162.751L252.645 163.408L253.305 160.47L250.365 159.822L249.718 162.751ZM189.351 240.455L186.539 241.498L187.71 244.655L190.711 243.129L189.351 240.455ZM253.281 160.398C260.336 124.735 250.562 89.4917 229.347 63.1166L224.672 66.8772C244.82 91.9258 254.092 125.379 247.395 159.234L253.281 160.398ZM182.554 147.934L249.692 162.745L250.984 156.886L183.846 142.075L182.554 147.934ZM224.873 62.891C203.431 84.6467 187.581 112.426 180.276 144.335L186.124 145.674C193.174 114.882 208.463 88.0886 229.146 67.1027L224.873 62.891ZM183.195 145.027C190.395 113.557 206.047 86.1879 227.222 64.7815L222.956 60.5619C201.018 82.7395 184.802 111.098 177.346 143.689L183.195 145.027ZM138.711 138.262L179.624 147.288L180.917 141.429L140.003 132.403L138.711 138.262ZM160.736 24.4982L136.428 134.686L142.287 135.979L166.595 25.7908L160.736 24.4982ZM227.377 60.7311C211.569 42.0945 189.884 28.2 164.349 22.2234L162.982 28.0655C187.221 33.7389 207.796 46.9216 222.801 64.6122L227.377 60.7311ZM139.357 135.333L163.665 25.1445L157.806 23.8519L133.498 134.04L139.357 135.333ZM98.1964 129.324L135.781 137.616L137.074 131.757L99.4889 123.465L98.1964 129.324ZM89.0416 32.5739C99.8098 61.3885 102.766 93.4943 95.9081 125.771L101.777 127.018C108.879 93.5915 105.818 60.3254 94.662 30.4735L89.0416 32.5739ZM161.345 21.5606C136.7 16.4535 112.203 19.4537 90.6609 28.7702L93.0426 34.2772C113.489 25.4344 136.732 22.5876 160.127 27.4358L161.345 21.5606ZM97.5476 132.254L135.135 140.546L136.428 134.686L98.8402 126.394L97.5476 132.254ZM52.6722 215.701C76.0139 193.187 93.3038 163.888 101.117 129.998L95.2706 128.65C87.7261 161.373 71.0381 189.65 48.5069 211.382L52.6722 215.701ZM111.694 246.981C87.9764 241.43 67.7673 228.689 52.8514 211.57L48.3277 215.512C64.0419 233.547 85.3421 246.975 110.327 252.823L111.694 246.981ZM113.94 250.548L138.711 138.262L132.852 136.97L108.081 249.256L113.94 250.548ZM185.355 239.078C164.031 249.235 139.375 252.755 114.549 247.611L113.331 253.486C139.485 258.906 165.471 255.195 187.936 244.495L185.355 239.078ZM176.691 146.67C169.676 179.966 172.738 213.093 183.835 242.836L189.456 240.738C178.745 212.029 175.788 180.058 182.562 147.907L176.691 146.67ZM138.065 141.192L178.98 150.218L180.273 144.359L139.357 135.333L138.065 141.192ZM135.781 137.616L111.01 249.902L116.87 251.195L141.641 138.909L135.781 137.616ZM98.8476 126.372C105.805 93.6002 102.823 60.9868 91.9194 31.706L86.2966 33.7999C96.8149 62.0452 99.6926 93.5012 92.9784 125.126L98.8476 126.372ZM24.8006 113.133L95.2667 128.678L96.5593 122.819L26.0931 107.274L24.8006 113.133ZM87.846 30.0313C56.2264 44.6938 31.3878 73.1419 22.5321 109.493L28.3616 110.913C36.7681 76.4062 60.3406 49.3997 90.3701 35.4745L87.846 30.0313ZM24.1276 116.057L94.6179 131.607L95.9105 125.748L25.4202 110.197L24.1276 116.057ZM50.9564 209.338C29.7367 183.667 20.0992 148.844 27.7058 113.763L21.842 112.491C13.8297 149.444 23.9882 186.13 46.3318 213.16L50.9564 209.338ZM92.341 128.003C84.944 160.062 68.6105 187.774 46.5589 209.092L50.7293 213.406C73.5886 191.306 90.522 162.574 98.1874 129.352L92.341 128.003ZM181.91 150.864L249.072 165.681L250.365 159.822L183.203 145.005L181.91 150.864ZM192.164 239.411C181.733 211.298 178.869 180.013 185.492 148.553L179.621 147.317C172.757 179.918 175.726 212.354 186.539 241.498L192.164 239.411ZM246.791 162.094C239.151 196.141 216.833 223.11 187.991 237.781L190.711 243.129C221.082 227.681 244.599 199.27 252.645 163.408L246.791 162.094Z" fill="white" mask="url(#path-2-outside-1_103_224)"/>
</svg>
