<svg width="386" height="631" viewBox="0 0 386 631" fill="none" xmlns="http://www.w3.org/2000/svg">
<g clip-path="url(#clip0_98_43)">
<path d="M141.9 317.605C141.9 289.174 165.122 266.112 193.786 266.112C222.451 266.112 245.672 289.174 245.672 317.605C245.672 346.035 222.45 369.098 193.786 369.098C165.122 369.098 141.9 346.035 141.9 317.605Z" stroke="white" stroke-width="2.35845"/>
<path d="M141.9 510.997C141.9 482.567 165.122 459.504 193.786 459.504C222.451 459.504 245.672 482.567 245.672 510.997C245.672 539.428 222.45 562.49 193.786 562.49C165.122 562.49 141.9 539.428 141.9 510.997Z" stroke="white" stroke-width="2.35845"/>
<path d="M245.672 120.281C245.672 148.711 222.45 171.774 193.786 171.774C165.122 171.774 141.9 148.711 141.9 120.281C141.9 91.8505 165.122 68.7881 193.786 68.7881C222.45 68.7881 245.672 91.8505 245.672 120.281Z" stroke="white" stroke-width="2.35845"/>
<path d="M-37.9176 649.542C-37.9176 522.545 65.0341 419.593 192.031 419.593C319.029 419.593 421.98 522.545 421.98 649.542" stroke="white" stroke-width="2.35845"/>
<path d="M-37.9176 -14.4546C-37.9176 112.543 65.0341 215.494 192.031 215.494C319.029 215.494 421.98 112.543 421.98 -14.4546" stroke="white" stroke-width="2.35845"/>
<path d="M546.071 319.584L-161.343 315.429" stroke="white" stroke-width="2.35845"/>
<rect x="266.112" y="509.818" width="120.281" height="144.652" transform="rotate(90 266.112 509.818)" stroke="white" stroke-width="2.35845"/>
<rect x="121.46" y="121.46" width="120.281" height="144.652" transform="rotate(-90 121.46 121.46)" stroke="white" stroke-width="2.35845"/>
</g>
<rect x="384.821" y="1.17923" width="628.642" height="383.642" rx="9.82689" transform="rotate(90 384.821 1.17923)" stroke="white" stroke-width="2.35845"/>
<defs>
<clipPath id="clip0_98_43">
<rect x="386" width="631" height="386" rx="11.0061" transform="rotate(90 386 0)" fill="white"/>
</clipPath>
</defs>
</svg>
