<svg width="311" height="169" viewBox="0 0 311 169" fill="none" xmlns="http://www.w3.org/2000/svg">
<mask id="mask0_98_149" style="mask-type:alpha" maskUnits="userSpaceOnUse" x="0" y="0" width="311" height="169">
<path fill-rule="evenodd" clip-rule="evenodd" d="M227.864 158.218C227.864 163.73 232.332 168.199 237.844 168.199L295.86 168.199C304.144 168.199 310.86 161.483 310.86 153.199L310.86 15.1061C310.86 6.82179 304.144 0.106063 295.86 0.106063L237.844 0.106057C232.332 0.106057 227.864 4.57439 227.864 10.0864L227.864 12.9753C227.864 16.8917 224.689 20.0667 220.773 20.0667V20.0667C216.856 20.0667 213.681 16.8917 213.681 12.9752L213.681 10.0864C213.681 4.57439 209.213 0.106055 203.701 0.106054L15.9388 0.106038C7.65449 0.106037 0.938765 6.82176 0.938765 15.106L0.938753 153.199C0.938752 161.483 7.65449 168.199 15.9388 168.199L203.701 168.199C209.213 168.199 213.681 163.73 213.681 158.218L213.681 155.329C213.681 151.413 216.856 148.238 220.772 148.238V148.238C224.689 148.238 227.864 151.413 227.864 155.329L227.864 158.218ZM214.206 50.2711C214.206 54.1875 217.381 57.3625 221.298 57.3625V57.3625C225.214 57.3625 228.389 54.1875 228.389 50.2711L228.389 44.4929C228.389 40.5764 225.214 37.4015 221.298 37.4015V37.4015C217.381 37.4015 214.206 40.5764 214.206 44.4929L214.206 50.2711ZM228.389 87.0418C228.389 90.9583 225.214 94.1332 221.298 94.1332V94.1332C217.381 94.1332 214.206 90.9583 214.206 87.0418L214.206 81.2636C214.206 77.3471 217.381 74.1722 221.298 74.1722V74.1722C225.214 74.1722 228.389 77.3471 228.389 81.2636L228.389 87.0418ZM214.206 123.812C214.206 127.728 217.381 130.903 221.298 130.903V130.903C225.214 130.903 228.389 127.728 228.389 123.812L228.389 118.034C228.389 114.117 225.214 110.942 221.298 110.942V110.942C217.381 110.942 214.206 114.117 214.206 118.034L214.206 123.812Z" fill="#FF5F1F"/>
</mask>
<g mask="url(#mask0_98_149)">
<path fill-rule="evenodd" clip-rule="evenodd" d="M227.864 158.218C227.864 163.73 232.332 168.199 237.844 168.199L295.86 168.199C304.144 168.199 310.86 161.483 310.86 153.199L310.86 15.1061C310.86 6.82179 304.144 0.106063 295.86 0.106063L237.844 0.106057C232.332 0.106057 227.864 4.57439 227.864 10.0864L227.864 12.9753C227.864 16.8917 224.689 20.0667 220.773 20.0667V20.0667C216.856 20.0667 213.681 16.8917 213.681 12.9752L213.681 10.0864C213.681 4.57439 209.213 0.106055 203.701 0.106054L15.9388 0.106038C7.65449 0.106037 0.938765 6.82176 0.938765 15.106L0.938753 153.199C0.938752 161.483 7.65449 168.199 15.9388 168.199L203.701 168.199C209.213 168.199 213.681 163.73 213.681 158.218L213.681 155.329C213.681 151.413 216.856 148.238 220.772 148.238V148.238C224.689 148.238 227.864 151.413 227.864 155.329L227.864 158.218ZM214.206 50.2711C214.206 54.1875 217.381 57.3625 221.298 57.3625V57.3625C225.214 57.3625 228.389 54.1875 228.389 50.2711L228.389 44.4929C228.389 40.5764 225.214 37.4015 221.298 37.4015V37.4015C217.381 37.4015 214.206 40.5764 214.206 44.4929L214.206 50.2711ZM228.389 87.0418C228.389 90.9583 225.214 94.1332 221.298 94.1332V94.1332C217.381 94.1332 214.206 90.9583 214.206 87.0418L214.206 81.2636C214.206 77.3471 217.381 74.1722 221.298 74.1722V74.1722C225.214 74.1722 228.389 77.3471 228.389 81.2636L228.389 87.0418ZM214.206 123.812C214.206 127.728 217.381 130.903 221.298 130.903V130.903C225.214 130.903 228.389 127.728 228.389 123.812L228.389 118.034C228.389 114.117 225.214 110.942 221.298 110.942V110.942C217.381 110.942 214.206 114.117 214.206 118.034L214.206 123.812Z" fill="#FF5E00"/>
<rect x="300.354" y="157.693" width="61.9842" height="147.081" rx="14" transform="rotate(-180 300.354 157.693)" fill="white"/>
</g>
</svg>
