<svg width="306" height="306" viewBox="0 0 306 306" fill="none" xmlns="http://www.w3.org/2000/svg">
<path d="M163.013 1.50534C163.637 -0.547568 166.617 -0.309941 166.908 1.81597L173.292 48.444C173.546 50.299 175.981 50.8193 176.971 49.2301L201.852 9.28161C202.986 7.46024 205.803 8.46094 205.534 10.5898L199.632 57.2813C199.397 59.1388 201.615 60.2717 202.982 58.9928L237.355 26.8452C238.922 25.3794 241.383 27.075 240.573 29.0617L222.787 72.6348C222.08 74.3682 223.929 76.0365 225.581 75.1551L267.102 52.9991C268.995 51.9889 270.934 54.2638 269.637 55.9729L241.18 93.4581C240.048 94.9493 241.402 97.0394 243.226 96.6155L289.067 85.961C291.157 85.4753 292.441 88.1745 290.745 89.4895L253.556 118.332C252.077 119.48 252.844 121.849 254.715 121.912L301.752 123.485C303.896 123.556 304.438 126.496 302.46 127.327L259.073 145.562C257.347 146.288 257.475 148.775 259.266 149.319L304.293 163.013C306.346 163.637 306.108 166.617 303.982 166.908L257.354 173.292C255.499 173.546 254.979 175.981 256.568 176.971L296.517 201.852C298.338 202.986 297.337 205.803 295.208 205.534L248.517 199.632C246.659 199.397 245.526 201.615 246.805 202.982L278.953 237.355C280.419 238.922 278.723 241.384 276.736 240.573L233.163 222.787C231.43 222.08 229.762 223.929 230.643 225.581L252.799 267.102C253.809 268.995 251.534 270.934 249.825 269.637L212.34 241.18C210.849 240.048 208.759 241.402 209.183 243.226L219.837 289.067C220.323 291.157 217.624 292.441 216.309 290.745L187.466 253.556C186.318 252.077 183.949 252.844 183.887 254.715L182.313 301.752C182.242 303.896 179.302 304.438 178.471 302.46L160.236 259.073C159.511 257.347 157.024 257.475 156.479 259.266L142.785 304.293C142.161 306.346 139.181 306.108 138.89 303.982L132.506 257.354C132.252 255.499 129.817 254.979 128.827 256.568L103.946 296.517C102.812 298.338 99.9953 297.337 100.264 295.208L106.166 248.517C106.401 246.659 104.183 245.527 102.816 246.805L68.4434 278.953C66.8762 280.419 64.4146 278.723 65.2255 276.737L83.0108 233.163C83.7183 231.43 81.8693 229.762 80.2176 230.643L38.696 252.799C36.8029 253.809 34.864 251.534 36.1614 249.825L64.6183 212.34C65.7503 210.849 64.3961 208.759 62.5725 209.183L16.7313 219.837C14.6413 220.323 13.3573 217.624 15.0528 216.309L52.2419 187.466C53.7213 186.319 52.9542 183.949 51.083 183.887L4.04627 182.314C1.90172 182.242 1.36008 179.302 3.33822 178.471L46.7252 160.236C48.4511 159.511 48.3234 157.024 46.5322 156.479L1.50529 142.785C-0.547626 142.161 -0.309998 139.181 1.81592 138.89L48.444 132.506C50.2989 132.252 50.8192 129.817 49.23 128.827L9.28155 103.946C7.46018 102.812 8.46089 99.9954 10.5897 100.264L57.2813 106.166C59.1387 106.401 60.2716 104.183 58.9928 102.816L26.8451 68.4434C25.3794 66.8763 27.075 64.4147 29.0616 65.2256L72.6347 83.0109C74.3681 83.7184 76.0364 81.8694 75.155 80.2176L52.999 38.696C51.9889 36.8029 54.2638 34.8641 55.9728 36.1615L93.4581 64.6183C94.9493 65.7504 97.0393 64.3962 96.6154 62.5726L85.961 16.7314C85.4752 14.6413 88.1744 13.3573 89.4894 15.0529L118.332 52.242C119.48 53.7214 121.849 52.9543 121.911 51.0831L123.485 4.04633C123.556 1.90178 126.496 1.36013 127.327 3.33828L145.562 46.7252C146.287 48.4512 148.775 48.3235 149.319 46.5322L163.013 1.50534Z" fill="#FF5E00"/>
</svg>
