<svg width="955" height="169" viewBox="0 0 955 169" fill="none" xmlns="http://www.w3.org/2000/svg">
<mask id="mask0_99_165" style="mask-type:alpha" maskUnits="userSpaceOnUse" x="645" y="0" width="310" height="169">
<path fill-rule="evenodd" clip-rule="evenodd" d="M871.925 158.112C871.925 163.624 876.394 168.093 881.906 168.093L939.921 168.093C948.205 168.093 954.921 161.377 954.921 153.093L954.921 15.0001C954.921 6.71584 948.205 0.000106224 939.921 0.0001055L881.906 0.000100428C876.394 9.99464e-05 871.925 4.46844 871.925 9.9804L871.925 12.8693C871.925 16.7858 868.75 19.9607 864.834 19.9607V19.9607C860.917 19.9607 857.742 16.7858 857.742 12.8693L857.742 9.9804C857.742 4.46843 853.274 9.79253e-05 847.762 9.74434e-05L660 8.10287e-05C651.716 8.03045e-05 645 6.7158 645 15.0001L645 153.093C645 161.377 651.716 168.093 660 168.093L847.762 168.093C853.274 168.093 857.742 163.624 857.742 158.112L857.742 155.223C857.742 151.307 860.917 148.132 864.834 148.132V148.132C868.75 148.132 871.925 151.307 871.925 155.223L871.925 158.112ZM858.268 50.1651C858.268 54.0816 861.443 57.2565 865.359 57.2565V57.2565C869.275 57.2565 872.45 54.0816 872.45 50.1651L872.45 44.3869C872.45 40.4704 869.275 37.2955 865.359 37.2955V37.2955C861.443 37.2955 858.268 40.4704 858.268 44.3869L858.268 50.1651ZM872.45 86.9358C872.45 90.8523 869.275 94.0272 865.359 94.0272V94.0272C861.442 94.0272 858.267 90.8523 858.267 86.9358L858.267 81.1576C858.267 77.2412 861.442 74.0662 865.359 74.0662V74.0662C869.275 74.0662 872.45 77.2412 872.45 81.1576L872.45 86.9358ZM858.267 123.706C858.267 127.622 861.442 130.797 865.359 130.797V130.797C869.275 130.797 872.45 127.622 872.45 123.706L872.45 117.928C872.45 114.011 869.275 110.836 865.359 110.836V110.836C861.442 110.836 858.267 114.011 858.267 117.928L858.267 123.706Z" fill="#FF5F1F"/>
</mask>
<g mask="url(#mask0_99_165)">
<path fill-rule="evenodd" clip-rule="evenodd" d="M871.925 158.112C871.925 163.624 876.394 168.093 881.906 168.093L939.921 168.093C948.205 168.093 954.921 161.377 954.921 153.093L954.921 15.0001C954.921 6.71584 948.205 0.000106224 939.921 0.0001055L881.906 0.000100428C876.394 9.99464e-05 871.925 4.46844 871.925 9.9804L871.925 12.8693C871.925 16.7858 868.75 19.9607 864.834 19.9607V19.9607C860.917 19.9607 857.742 16.7858 857.742 12.8693L857.742 9.9804C857.742 4.46843 853.274 9.79253e-05 847.762 9.74434e-05L660 8.10287e-05C651.716 8.03045e-05 645 6.7158 645 15.0001L645 153.093C645 161.377 651.716 168.093 660 168.093L847.762 168.093C853.274 168.093 857.742 163.624 857.742 158.112L857.742 155.223C857.742 151.307 860.917 148.132 864.834 148.132V148.132C868.75 148.132 871.925 151.307 871.925 155.223L871.925 158.112ZM858.268 50.1651C858.268 54.0816 861.443 57.2565 865.359 57.2565V57.2565C869.275 57.2565 872.45 54.0816 872.45 50.1651L872.45 44.3869C872.45 40.4704 869.275 37.2955 865.359 37.2955V37.2955C861.443 37.2955 858.268 40.4704 858.268 44.3869L858.268 50.1651ZM872.45 86.9358C872.45 90.8523 869.275 94.0272 865.359 94.0272V94.0272C861.442 94.0272 858.267 90.8523 858.267 86.9358L858.267 81.1576C858.267 77.2412 861.442 74.0662 865.359 74.0662V74.0662C869.275 74.0662 872.45 77.2412 872.45 81.1576L872.45 86.9358ZM858.267 123.706C858.267 127.622 861.442 130.797 865.359 130.797V130.797C869.275 130.797 872.45 127.622 872.45 123.706L872.45 117.928C872.45 114.011 869.275 110.836 865.359 110.836V110.836C861.442 110.836 858.267 114.011 858.267 117.928L858.267 123.706Z" fill="#FF5E00"/>
<rect x="944.415" y="157.587" width="61.9842" height="147.081" rx="14" transform="rotate(-180 944.415 157.587)" fill="white"/>
</g>
<mask id="mask1_99_165" style="mask-type:alpha" maskUnits="userSpaceOnUse" x="322" y="0" width="311" height="169">
<path fill-rule="evenodd" clip-rule="evenodd" d="M549.864 158.218C549.864 163.73 554.332 168.199 559.844 168.199L617.86 168.199C626.144 168.199 632.86 161.483 632.86 153.199L632.86 15.1061C632.86 6.82179 626.144 0.106063 617.86 0.106063L559.844 0.106057C554.332 0.106057 549.864 4.57439 549.864 10.0864L549.864 12.9753C549.864 16.8917 546.689 20.0667 542.773 20.0667V20.0667C538.856 20.0667 535.681 16.8917 535.681 12.9752L535.681 10.0864C535.681 4.57439 531.213 0.106055 525.701 0.106054L337.939 0.106038C329.654 0.106037 322.939 6.82176 322.939 15.106L322.939 153.199C322.939 161.483 329.654 168.199 337.939 168.199L525.701 168.199C531.213 168.199 535.681 163.73 535.681 158.218L535.681 155.329C535.681 151.413 538.856 148.238 542.772 148.238V148.238C546.689 148.238 549.864 151.413 549.864 155.329L549.864 158.218ZM536.206 50.2711C536.206 54.1875 539.381 57.3625 543.298 57.3625V57.3625C547.214 57.3625 550.389 54.1875 550.389 50.2711L550.389 44.4929C550.389 40.5764 547.214 37.4015 543.298 37.4015V37.4015C539.381 37.4015 536.206 40.5764 536.206 44.4929L536.206 50.2711ZM550.389 87.0418C550.389 90.9583 547.214 94.1332 543.298 94.1332V94.1332C539.381 94.1332 536.206 90.9583 536.206 87.0418L536.206 81.2636C536.206 77.3471 539.381 74.1722 543.298 74.1722V74.1722C547.214 74.1722 550.389 77.3471 550.389 81.2636L550.389 87.0418ZM536.206 123.812C536.206 127.728 539.381 130.903 543.298 130.903V130.903C547.214 130.903 550.389 127.728 550.389 123.812L550.389 118.034C550.389 114.117 547.214 110.942 543.298 110.942V110.942C539.381 110.942 536.206 114.117 536.206 118.034L536.206 123.812Z" fill="#FF5F1F"/>
</mask>
<g mask="url(#mask1_99_165)">
<path fill-rule="evenodd" clip-rule="evenodd" d="M549.864 158.218C549.864 163.73 554.332 168.199 559.844 168.199L617.86 168.199C626.144 168.199 632.86 161.483 632.86 153.199L632.86 15.1061C632.86 6.82179 626.144 0.106063 617.86 0.106063L559.844 0.106057C554.332 0.106057 549.864 4.57439 549.864 10.0864L549.864 12.9753C549.864 16.8917 546.689 20.0667 542.773 20.0667V20.0667C538.856 20.0667 535.681 16.8917 535.681 12.9752L535.681 10.0864C535.681 4.57439 531.213 0.106055 525.701 0.106054L337.939 0.106038C329.654 0.106037 322.939 6.82176 322.939 15.106L322.939 153.199C322.939 161.483 329.654 168.199 337.939 168.199L525.701 168.199C531.213 168.199 535.681 163.73 535.681 158.218L535.681 155.329C535.681 151.413 538.856 148.238 542.772 148.238V148.238C546.689 148.238 549.864 151.413 549.864 155.329L549.864 158.218ZM536.206 50.2711C536.206 54.1875 539.381 57.3625 543.298 57.3625V57.3625C547.214 57.3625 550.389 54.1875 550.389 50.2711L550.389 44.4929C550.389 40.5764 547.214 37.4015 543.298 37.4015V37.4015C539.381 37.4015 536.206 40.5764 536.206 44.4929L536.206 50.2711ZM550.389 87.0418C550.389 90.9583 547.214 94.1332 543.298 94.1332V94.1332C539.381 94.1332 536.206 90.9583 536.206 87.0418L536.206 81.2636C536.206 77.3471 539.381 74.1722 543.298 74.1722V74.1722C547.214 74.1722 550.389 77.3471 550.389 81.2636L550.389 87.0418ZM536.206 123.812C536.206 127.728 539.381 130.903 543.298 130.903V130.903C547.214 130.903 550.389 127.728 550.389 123.812L550.389 118.034C550.389 114.117 547.214 110.942 543.298 110.942V110.942C539.381 110.942 536.206 114.117 536.206 118.034L536.206 123.812Z" fill="#FF5E00"/>
<rect x="622.354" y="157.693" width="61.9842" height="147.081" rx="14" transform="rotate(-180 622.354 157.693)" fill="white"/>
</g>
<mask id="mask2_99_165" style="mask-type:alpha" maskUnits="userSpaceOnUse" x="0" y="0" width="311" height="169">
<path fill-rule="evenodd" clip-rule="evenodd" d="M227.864 158.218C227.864 163.73 232.332 168.199 237.844 168.199L295.86 168.199C304.144 168.199 310.86 161.483 310.86 153.199L310.86 15.1061C310.86 6.82179 304.144 0.106063 295.86 0.106063L237.844 0.106057C232.332 0.106057 227.864 4.57439 227.864 10.0864L227.864 12.9753C227.864 16.8917 224.689 20.0667 220.773 20.0667V20.0667C216.856 20.0667 213.681 16.8917 213.681 12.9752L213.681 10.0864C213.681 4.57439 209.213 0.106055 203.701 0.106054L15.9388 0.106038C7.65449 0.106037 0.938765 6.82176 0.938765 15.106L0.938753 153.199C0.938752 161.483 7.65449 168.199 15.9388 168.199L203.701 168.199C209.213 168.199 213.681 163.73 213.681 158.218L213.681 155.329C213.681 151.413 216.856 148.238 220.772 148.238V148.238C224.689 148.238 227.864 151.413 227.864 155.329L227.864 158.218ZM214.206 50.2711C214.206 54.1875 217.381 57.3625 221.298 57.3625V57.3625C225.214 57.3625 228.389 54.1875 228.389 50.2711L228.389 44.4929C228.389 40.5764 225.214 37.4015 221.298 37.4015V37.4015C217.381 37.4015 214.206 40.5764 214.206 44.4929L214.206 50.2711ZM228.389 87.0418C228.389 90.9583 225.214 94.1332 221.298 94.1332V94.1332C217.381 94.1332 214.206 90.9583 214.206 87.0418L214.206 81.2636C214.206 77.3471 217.381 74.1722 221.298 74.1722V74.1722C225.214 74.1722 228.389 77.3471 228.389 81.2636L228.389 87.0418ZM214.206 123.812C214.206 127.728 217.381 130.903 221.298 130.903V130.903C225.214 130.903 228.389 127.728 228.389 123.812L228.389 118.034C228.389 114.117 225.214 110.942 221.298 110.942V110.942C217.381 110.942 214.206 114.117 214.206 118.034L214.206 123.812Z" fill="#FF5F1F"/>
</mask>
<g mask="url(#mask2_99_165)">
<path fill-rule="evenodd" clip-rule="evenodd" d="M227.864 158.218C227.864 163.73 232.332 168.199 237.844 168.199L295.86 168.199C304.144 168.199 310.86 161.483 310.86 153.199L310.86 15.1061C310.86 6.82179 304.144 0.106063 295.86 0.106063L237.844 0.106057C232.332 0.106057 227.864 4.57439 227.864 10.0864L227.864 12.9753C227.864 16.8917 224.689 20.0667 220.773 20.0667V20.0667C216.856 20.0667 213.681 16.8917 213.681 12.9752L213.681 10.0864C213.681 4.57439 209.213 0.106055 203.701 0.106054L15.9388 0.106038C7.65449 0.106037 0.938765 6.82176 0.938765 15.106L0.938753 153.199C0.938752 161.483 7.65449 168.199 15.9388 168.199L203.701 168.199C209.213 168.199 213.681 163.73 213.681 158.218L213.681 155.329C213.681 151.413 216.856 148.238 220.772 148.238V148.238C224.689 148.238 227.864 151.413 227.864 155.329L227.864 158.218ZM214.206 50.2711C214.206 54.1875 217.381 57.3625 221.298 57.3625V57.3625C225.214 57.3625 228.389 54.1875 228.389 50.2711L228.389 44.4929C228.389 40.5764 225.214 37.4015 221.298 37.4015V37.4015C217.381 37.4015 214.206 40.5764 214.206 44.4929L214.206 50.2711ZM228.389 87.0418C228.389 90.9583 225.214 94.1332 221.298 94.1332V94.1332C217.381 94.1332 214.206 90.9583 214.206 87.0418L214.206 81.2636C214.206 77.3471 217.381 74.1722 221.298 74.1722V74.1722C225.214 74.1722 228.389 77.3471 228.389 81.2636L228.389 87.0418ZM214.206 123.812C214.206 127.728 217.381 130.903 221.298 130.903V130.903C225.214 130.903 228.389 127.728 228.389 123.812L228.389 118.034C228.389 114.117 225.214 110.942 221.298 110.942V110.942C217.381 110.942 214.206 114.117 214.206 118.034L214.206 123.812Z" fill="#FF5E00"/>
<rect x="300.354" y="157.693" width="61.9842" height="147.081" rx="14" transform="rotate(-180 300.354 157.693)" fill="white"/>
</g>
</svg>
