<svg width="2182" height="315" viewBox="0 0 2182 315" fill="none" xmlns="http://www.w3.org/2000/svg">
<path d="M114.651 240.653H104.086C97.0428 240.653 90.782 234.783 90.782 227.348C90.782 220.305 97.0428 214.436 104.086 214.436H114.651C122.086 214.436 127.956 220.305 127.956 227.348C127.956 234.783 122.086 240.653 114.651 240.653ZM224.998 61.8279V14.0891C224.998 6.65436 219.129 0.784847 211.694 0.784847H12.913C5.86952 0.784847 0 6.65436 0 14.0891V302.087C0 309.13 5.86952 315 12.913 315H211.694C219.129 315 224.998 309.13 224.998 302.087V115.045C224.998 107.61 219.129 101.741 211.694 101.741H201.129C193.694 101.741 187.825 95.8711 187.825 88.4364C187.825 81.0017 193.694 75.1321 201.129 75.1321H211.694C219.129 75.1321 224.998 69.2626 224.998 61.8279ZM356.867 241.435C349.432 241.435 343.563 235.174 343.563 228.131V217.566C343.563 210.131 349.432 204.262 356.867 204.262C364.302 204.262 370.171 210.131 370.171 217.566V228.131C370.171 235.174 364.302 241.435 356.867 241.435ZM244.563 14.0891V302.087C244.563 309.13 250.433 315 257.476 315H330.65C337.693 315 343.563 309.13 343.563 302.087V291.522C343.563 284.087 349.432 278.218 356.867 278.218C364.302 278.218 370.171 284.087 370.171 291.522V302.087C370.171 309.13 376.041 315 383.476 315H456.258C463.692 315 469.562 309.13 469.562 302.087V14.0891C469.562 6.65436 463.692 0.784847 456.258 0.784847H257.476C250.433 0.784847 244.563 6.65436 244.563 14.0891ZM714.125 131.48V14.0891C714.125 6.65436 708.256 0.784847 700.821 0.784847H502.04C494.996 0.784847 489.127 6.65436 489.127 14.0891V302.087C489.127 309.13 494.996 315 502.04 315H700.821C708.256 315 714.125 309.13 714.125 302.087V184.305C714.125 177.262 708.256 171.001 700.821 171.001H690.256C682.821 171.001 676.952 165.132 676.952 158.088C676.952 150.653 682.821 144.784 690.256 144.784H700.821C708.256 144.784 714.125 138.914 714.125 131.48ZM958.689 131.48V14.0891C958.689 6.65436 952.819 0.784847 945.385 0.784847H872.602C865.168 0.784847 859.298 6.65436 859.298 14.0891V24.2629C859.298 31.6977 853.429 37.5672 845.994 37.5672C838.559 37.5672 832.69 31.6977 832.69 24.2629V14.0891C832.69 6.65436 826.82 0.784847 819.777 0.784847H746.603C739.56 0.784847 733.69 6.65436 733.69 14.0891V302.087C733.69 309.13 739.56 315 746.603 315H819.777C826.82 315 832.69 309.13 832.69 302.087V291.522C832.69 284.087 838.559 278.218 845.994 278.218C853.429 278.218 859.298 284.087 859.298 291.522V302.087C859.298 309.13 865.168 315 872.602 315H945.385C952.819 315 958.689 309.13 958.689 302.087V184.305C958.689 177.262 952.819 171.001 945.385 171.001H934.819C927.385 171.001 921.515 165.132 921.515 158.088C921.515 150.653 927.385 144.784 934.819 144.784H945.385C952.819 144.784 958.689 138.914 958.689 131.48ZM1203.25 61.8279V14.0891C1203.25 6.65436 1197.38 0.784847 1189.95 0.784847H991.167C984.123 0.784847 978.254 6.65436 978.254 14.0891V302.087C978.254 309.13 984.123 315 991.167 315H1189.95C1197.38 315 1203.25 309.13 1203.25 302.087V253.957C1203.25 246.522 1197.38 240.653 1189.95 240.653H1179.38C1171.95 240.653 1166.08 234.783 1166.08 227.348C1166.08 220.305 1171.95 214.436 1179.38 214.436H1189.95C1197.38 214.436 1203.25 208.175 1203.25 201.131V115.045C1203.25 107.61 1197.38 101.741 1189.95 101.741H1179.38C1171.95 101.741 1166.08 95.8711 1166.08 88.4364C1166.08 81.0017 1171.95 75.1321 1179.38 75.1321H1189.95C1197.38 75.1321 1203.25 69.2626 1203.25 61.8279ZM1222.82 14.0891V24.2629C1222.82 31.6977 1228.69 37.5672 1235.73 37.5672C1243.16 37.5672 1249.03 43.4367 1249.03 50.8715V302.087C1249.03 309.13 1254.9 315 1262.34 315H1407.9C1415.34 315 1421.21 309.13 1421.21 302.087V50.8715C1421.21 43.4367 1427.08 37.5672 1434.51 37.5672C1441.95 37.5672 1447.82 31.6977 1447.82 24.2629V14.0891C1447.82 6.65436 1441.95 0.784847 1434.51 0.784847H1235.73C1228.69 0.784847 1222.82 6.65436 1222.82 14.0891ZM1582.03 240.653H1571.47C1564.42 240.653 1558.16 234.783 1558.16 227.348C1558.16 220.305 1564.42 214.436 1571.47 214.436H1582.03C1589.47 214.436 1595.34 220.305 1595.34 227.348C1595.34 234.783 1589.47 240.653 1582.03 240.653ZM1692.38 61.8279V14.0891C1692.38 6.65436 1686.51 0.784847 1679.07 0.784847H1480.29C1473.25 0.784847 1467.38 6.65436 1467.38 14.0891V302.087C1467.38 309.13 1473.25 315 1480.29 315H1679.07C1686.51 315 1692.38 309.13 1692.38 302.087V115.045C1692.38 107.61 1686.51 101.741 1679.07 101.741H1668.51C1661.08 101.741 1655.21 95.8711 1655.21 88.4364C1655.21 81.0017 1661.08 75.1321 1668.51 75.1321H1679.07C1686.51 75.1321 1692.38 69.2626 1692.38 61.8279ZM1824.25 176.479C1816.81 176.479 1810.94 170.61 1810.94 163.175V152.61C1810.94 145.566 1816.81 139.697 1824.25 139.697C1831.68 139.697 1837.55 145.566 1837.55 152.61V163.175C1837.55 170.61 1831.68 176.479 1824.25 176.479ZM1711.94 14.0891V302.087C1711.94 309.13 1717.81 315 1724.86 315H1923.64C1931.07 315 1936.94 309.13 1936.94 302.087V14.0891C1936.94 6.65436 1931.07 0.784847 1923.64 0.784847H1724.86C1717.81 0.784847 1711.94 6.65436 1711.94 14.0891ZM1982.72 14.0891V227.348C1982.72 234.783 1976.86 240.653 1969.42 240.653C1962.38 240.653 1956.51 246.522 1956.51 253.957V302.087C1956.51 309.13 1962.38 315 1969.42 315H2042.59C2049.64 315 2055.51 309.13 2055.51 302.087V291.522C2055.51 284.087 2061.38 278.218 2068.81 278.218C2076.25 278.218 2082.12 284.087 2082.12 291.522V302.087C2082.12 309.13 2087.99 315 2095.42 315H2168.2C2175.64 315 2181.51 309.13 2181.51 302.087V14.0891C2181.51 6.65436 2175.64 0.784847 2168.2 0.784847H1996.03C1988.59 0.784847 1982.72 6.65436 1982.72 14.0891Z" fill="white"/>
</svg>
