<svg width="4261" height="315" viewBox="0 0 4261 315" fill="none" xmlns="http://www.w3.org/2000/svg">
<path d="M118.681 101.741H108.116C100.682 101.741 94.812 95.8711 94.812 88.4364C94.812 81.0017 100.682 75.1321 108.116 75.1321H118.681C125.725 75.1321 131.594 81.0017 131.594 88.4364C131.594 95.8711 125.725 101.741 118.681 101.741ZM118.681 240.653H108.116C100.682 240.653 94.812 234.783 94.812 227.348C94.812 220.305 100.682 214.436 108.116 214.436H118.681C125.725 214.436 131.594 220.305 131.594 227.348C131.594 234.783 125.725 240.653 118.681 240.653ZM225.898 131.48V14.0891C225.898 6.65436 220.028 0.784847 212.594 0.784847H13.8126C6.76913 0.784847 0.899605 6.65436 0.899605 14.0891V302.087C0.899605 309.13 6.76913 315 13.8126 315H212.594C220.028 315 225.898 309.13 225.898 302.087V184.305C225.898 177.262 220.028 171.001 212.594 171.001H202.029C194.594 171.001 188.724 165.132 188.724 158.088C188.724 150.653 194.594 144.784 202.029 144.784H212.594C220.028 144.784 225.898 138.914 225.898 131.48ZM592.361 131.48V14.0891C592.361 6.65436 586.492 0.784847 579.057 0.784847H506.275C498.84 0.784847 492.97 6.65436 492.97 14.0891V24.2629C492.97 31.6977 487.101 37.5672 479.666 37.5672C472.231 37.5672 466.362 31.6977 466.362 24.2629V14.0891C466.362 6.65436 460.492 0.784847 453.449 0.784847H380.276C373.232 0.784847 367.363 6.65436 367.363 14.0891V302.087C367.363 309.13 373.232 315 380.276 315H453.449C460.492 315 466.362 309.13 466.362 302.087V291.522C466.362 284.087 472.231 278.218 479.666 278.218C487.101 278.218 492.97 284.087 492.97 291.522V302.087C492.97 309.13 498.84 315 506.275 315H579.057C586.492 315 592.361 309.13 592.361 302.087V184.305C592.361 177.262 586.492 171.001 579.057 171.001H568.492C561.057 171.001 555.187 165.132 555.187 158.088C555.187 150.653 561.057 144.784 568.492 144.784H579.057C586.492 144.784 592.361 138.914 592.361 131.48ZM724.23 176.479C716.795 176.479 710.925 170.61 710.925 163.175V152.61C710.925 145.566 716.795 139.697 724.23 139.697C731.664 139.697 737.534 145.566 737.534 152.61V163.175C737.534 170.61 731.664 176.479 724.23 176.479ZM611.926 14.0891V302.087C611.926 309.13 617.796 315 624.839 315H823.62C831.055 315 836.925 309.13 836.925 302.087V14.0891C836.925 6.65436 831.055 0.784847 823.62 0.784847H624.839C617.796 0.784847 611.926 6.65436 611.926 14.0891ZM1081.49 131.48V14.0891C1081.49 6.65436 1075.62 0.784847 1068.18 0.784847H869.403C862.359 0.784847 856.49 6.65436 856.49 14.0891V302.087C856.49 309.13 862.359 315 869.403 315H1068.18C1075.62 315 1081.49 309.13 1081.49 302.087V184.305C1081.49 177.262 1075.62 171.001 1068.18 171.001H1057.62C1050.18 171.001 1044.31 165.132 1044.31 158.088C1044.31 150.653 1050.18 144.784 1057.62 144.784H1068.18C1075.62 144.784 1081.49 138.914 1081.49 131.48ZM1101.05 14.0891V302.087C1101.05 309.13 1106.92 315 1113.97 315H1142.14C1149.18 315 1155.05 309.13 1155.05 302.087V291.522C1155.05 284.087 1160.92 278.218 1168.36 278.218C1175.79 278.218 1181.66 284.087 1181.66 291.522V302.087C1181.66 309.13 1187.53 315 1194.97 315H1238.79C1246.23 315 1252.1 309.13 1252.1 302.087V291.522C1252.1 284.087 1257.97 278.218 1265.4 278.218C1272.83 278.218 1278.7 284.087 1278.7 291.522V302.087C1278.7 309.13 1284.57 315 1291.62 315H1312.75C1320.18 315 1326.05 309.13 1326.05 302.087V14.0891C1326.05 6.65436 1320.18 0.784847 1312.75 0.784847H1113.97C1106.92 0.784847 1101.05 6.65436 1101.05 14.0891ZM1457.92 176.479C1450.49 176.479 1444.62 170.61 1444.62 163.175V152.61C1444.62 145.566 1450.49 139.697 1457.92 139.697C1465.35 139.697 1471.22 145.566 1471.22 152.61V163.175C1471.22 170.61 1465.35 176.479 1457.92 176.479ZM1345.62 14.0891V302.087C1345.62 309.13 1351.49 315 1358.53 315H1557.31C1564.75 315 1570.61 309.13 1570.61 302.087V14.0891C1570.61 6.65436 1564.75 0.784847 1557.31 0.784847H1358.53C1351.49 0.784847 1345.62 6.65436 1345.62 14.0891ZM1815.18 131.48V14.0891C1815.18 6.65436 1809.31 0.784847 1801.87 0.784847H1603.09C1596.05 0.784847 1590.18 6.65436 1590.18 14.0891V302.087C1590.18 309.13 1596.05 315 1603.09 315H1801.87C1809.31 315 1815.18 309.13 1815.18 302.087V184.305C1815.18 177.262 1809.31 171.001 1801.87 171.001H1791.31C1783.87 171.001 1778 165.132 1778 158.088C1778 150.653 1783.87 144.784 1791.31 144.784H1801.87C1809.31 144.784 1815.18 138.914 1815.18 131.48ZM2059.74 61.8279V14.0891C2059.74 6.65436 2053.87 0.784847 2046.44 0.784847H1847.66C1840.61 0.784847 1834.74 6.65436 1834.74 14.0891V302.087C1834.74 309.13 1840.61 315 1847.66 315H2046.44C2053.87 315 2059.74 309.13 2059.74 302.087V253.957C2059.74 246.522 2053.87 240.653 2046.44 240.653H2035.87C2028.44 240.653 2022.57 234.783 2022.57 227.348C2022.57 220.305 2028.44 214.436 2035.87 214.436H2046.44C2053.87 214.436 2059.74 208.175 2059.74 201.131V115.045C2059.74 107.61 2053.87 101.741 2046.44 101.741H2035.87C2028.44 101.741 2022.57 95.8711 2022.57 88.4364C2022.57 81.0017 2028.44 75.1321 2035.87 75.1321H2046.44C2053.87 75.1321 2059.74 69.2626 2059.74 61.8279ZM2318.99 101.741H2308.42C2300.99 101.741 2295.12 95.8711 2295.12 88.4364C2295.12 81.0017 2300.99 75.1321 2308.42 75.1321H2318.99C2326.03 75.1321 2331.9 81.0017 2331.9 88.4364C2331.9 95.8711 2326.03 101.741 2318.99 101.741ZM2318.99 240.653H2308.42C2300.99 240.653 2295.12 234.783 2295.12 227.348C2295.12 220.305 2300.99 214.436 2308.42 214.436H2318.99C2326.03 214.436 2331.9 220.305 2331.9 227.348C2331.9 234.783 2326.03 240.653 2318.99 240.653ZM2426.2 131.48V14.0891C2426.2 6.65436 2420.34 0.784847 2412.9 0.784847H2214.12C2207.08 0.784847 2201.21 6.65436 2201.21 14.0891V302.087C2201.21 309.13 2207.08 315 2214.12 315H2412.9C2420.34 315 2426.2 309.13 2426.2 302.087V184.305C2426.2 177.262 2420.34 171.001 2412.9 171.001H2402.34C2394.9 171.001 2389.03 165.132 2389.03 158.088C2389.03 150.653 2394.9 144.784 2402.34 144.784H2412.9C2420.34 144.784 2426.2 138.914 2426.2 131.48ZM2792.67 131.48V14.0891C2792.67 6.65436 2786.8 0.784847 2779.36 0.784847H2706.58C2699.15 0.784847 2693.28 6.65436 2693.28 14.0891V24.2629C2693.28 31.6977 2687.41 37.5672 2679.97 37.5672C2672.54 37.5672 2666.67 31.6977 2666.67 24.2629V14.0891C2666.67 6.65436 2660.8 0.784847 2653.76 0.784847H2580.58C2573.54 0.784847 2567.67 6.65436 2567.67 14.0891V302.087C2567.67 309.13 2573.54 315 2580.58 315H2653.76C2660.8 315 2666.67 309.13 2666.67 302.087V291.522C2666.67 284.087 2672.54 278.218 2679.97 278.218C2687.41 278.218 2693.28 284.087 2693.28 291.522V302.087C2693.28 309.13 2699.15 315 2706.58 315H2779.36C2786.8 315 2792.67 309.13 2792.67 302.087V184.305C2792.67 177.262 2786.8 171.001 2779.36 171.001H2768.8C2761.36 171.001 2755.49 165.132 2755.49 158.088C2755.49 150.653 2761.36 144.784 2768.8 144.784H2779.36C2786.8 144.784 2792.67 138.914 2792.67 131.48ZM2924.54 176.479C2917.1 176.479 2911.23 170.61 2911.23 163.175V152.61C2911.23 145.566 2917.1 139.697 2924.54 139.697C2931.97 139.697 2937.84 145.566 2937.84 152.61V163.175C2937.84 170.61 2931.97 176.479 2924.54 176.479ZM2812.23 14.0891V302.087C2812.23 309.13 2818.1 315 2825.15 315H3023.93C3031.36 315 3037.23 309.13 3037.23 302.087V14.0891C3037.23 6.65436 3031.36 0.784847 3023.93 0.784847H2825.15C2818.1 0.784847 2812.23 6.65436 2812.23 14.0891ZM3281.79 131.48V14.0891C3281.79 6.65436 3275.93 0.784847 3268.49 0.784847H3069.71C3062.67 0.784847 3056.8 6.65436 3056.8 14.0891V302.087C3056.8 309.13 3062.67 315 3069.71 315H3268.49C3275.93 315 3281.79 309.13 3281.79 302.087V184.305C3281.79 177.262 3275.93 171.001 3268.49 171.001H3257.93C3250.49 171.001 3244.62 165.132 3244.62 158.088C3244.62 150.653 3250.49 144.784 3257.93 144.784H3268.49C3275.93 144.784 3281.79 138.914 3281.79 131.48ZM3301.36 14.0891V302.087C3301.36 309.13 3307.23 315 3314.27 315H3342.45C3349.49 315 3355.36 309.13 3355.36 302.087V291.522C3355.36 284.087 3361.23 278.218 3368.66 278.218C3376.1 278.218 3381.97 284.087 3381.97 291.522V302.087C3381.97 309.13 3387.84 315 3395.27 315H3439.1C3446.53 315 3452.4 309.13 3452.4 302.087V291.522C3452.4 284.087 3458.27 278.218 3465.71 278.218C3473.14 278.218 3479.01 284.087 3479.01 291.522V302.087C3479.01 309.13 3484.88 315 3491.92 315H3513.05C3520.49 315 3526.36 309.13 3526.36 302.087V14.0891C3526.36 6.65436 3520.49 0.784847 3513.05 0.784847H3314.27C3307.23 0.784847 3301.36 6.65436 3301.36 14.0891ZM3658.23 176.479C3650.79 176.479 3644.92 170.61 3644.92 163.175V152.61C3644.92 145.566 3650.79 139.697 3658.23 139.697C3665.66 139.697 3671.53 145.566 3671.53 152.61V163.175C3671.53 170.61 3665.66 176.479 3658.23 176.479ZM3545.92 14.0891V302.087C3545.92 309.13 3551.79 315 3558.84 315H3757.62C3765.05 315 3770.92 309.13 3770.92 302.087V14.0891C3770.92 6.65436 3765.05 0.784847 3757.62 0.784847H3558.84C3551.79 0.784847 3545.92 6.65436 3545.92 14.0891ZM4015.49 131.48V14.0891C4015.49 6.65436 4009.62 0.784847 4002.18 0.784847H3803.4C3796.36 0.784847 3790.49 6.65436 3790.49 14.0891V302.087C3790.49 309.13 3796.36 315 3803.4 315H4002.18C4009.62 315 4015.49 309.13 4015.49 302.087V184.305C4015.49 177.262 4009.62 171.001 4002.18 171.001H3991.62C3984.18 171.001 3978.31 165.132 3978.31 158.088C3978.31 150.653 3984.18 144.784 3991.62 144.784H4002.18C4009.62 144.784 4015.49 138.914 4015.49 131.48ZM4260.05 61.8279V14.0891C4260.05 6.65436 4254.18 0.784847 4246.74 0.784847H4047.96C4040.92 0.784847 4035.05 6.65436 4035.05 14.0891V302.087C4035.05 309.13 4040.92 315 4047.96 315H4246.74C4254.18 315 4260.05 309.13 4260.05 302.087V253.957C4260.05 246.522 4254.18 240.653 4246.74 240.653H4236.18C4228.74 240.653 4222.88 234.783 4222.88 227.348C4222.88 220.305 4228.74 214.436 4236.18 214.436H4246.74C4254.18 214.436 4260.05 208.175 4260.05 201.131V115.045C4260.05 107.61 4254.18 101.741 4246.74 101.741H4236.18C4228.74 101.741 4222.88 95.8711 4222.88 88.4364C4222.88 81.0017 4228.74 75.1321 4236.18 75.1321H4246.74C4254.18 75.1321 4260.05 69.2626 4260.05 61.8279Z" fill="white"/>
</svg>
