<svg width="4016" height="315" viewBox="0 0 4016 315" fill="none" xmlns="http://www.w3.org/2000/svg">
<path d="M112.304 176.479C104.869 176.479 98.9993 170.61 98.9993 163.175V152.61C98.9993 145.566 104.869 139.697 112.304 139.697C119.738 139.697 125.608 145.566 125.608 152.61V163.175C125.608 170.61 119.738 176.479 112.304 176.479ZM0 14.0891V302.087C0 309.13 5.86952 315 12.913 315H211.694C219.129 315 224.998 309.13 224.998 302.087V14.0891C224.998 6.65436 219.129 0.784847 211.694 0.784847H12.913C5.86952 0.784847 0 6.65436 0 14.0891ZM244.563 14.0891V24.2629C244.563 31.6977 250.433 37.5672 257.476 37.5672C264.911 37.5672 270.781 43.4367 270.781 50.8715V302.087C270.781 309.13 276.65 315 284.085 315H429.649C437.084 315 442.953 309.13 442.953 302.087V50.8715C442.953 43.4367 448.823 37.5672 456.258 37.5672C463.692 37.5672 469.562 31.6977 469.562 24.2629V14.0891C469.562 6.65436 463.692 0.784847 456.258 0.784847H257.476C250.433 0.784847 244.563 6.65436 244.563 14.0891ZM489.127 14.0891V61.8279C489.127 69.2626 494.996 75.1321 502.04 75.1321H512.605C520.04 75.1321 525.909 81.0017 525.909 88.4364C525.909 95.8711 520.04 101.741 512.605 101.741H502.04C494.996 101.741 489.127 107.61 489.127 115.045V201.131C489.127 208.175 494.996 214.436 502.04 214.436H512.605C520.04 214.436 525.909 220.305 525.909 227.348C525.909 234.783 520.04 240.653 512.605 240.653H502.04C494.996 240.653 489.127 246.522 489.127 253.957V302.087C489.127 309.13 494.996 315 502.04 315H700.821C708.256 315 714.125 309.13 714.125 302.087V14.0891C714.125 6.65436 708.256 0.784847 700.821 0.784847H502.04C494.996 0.784847 489.127 6.65436 489.127 14.0891ZM958.689 61.8279V14.0891C958.689 6.65436 952.819 0.784847 945.385 0.784847H746.603C739.56 0.784847 733.69 6.65436 733.69 14.0891V302.087C733.69 309.13 739.56 315 746.603 315H945.385C952.819 315 958.689 309.13 958.689 302.087V253.957C958.689 246.522 952.819 240.653 945.385 240.653H934.819C927.385 240.653 921.515 234.783 921.515 227.348C921.515 220.305 927.385 214.436 934.819 214.436H945.385C952.819 214.436 958.689 208.175 958.689 201.131V115.045C958.689 107.61 952.819 101.741 945.385 101.741H934.819C927.385 101.741 921.515 95.8711 921.515 88.4364C921.515 81.0017 927.385 75.1321 934.819 75.1321H945.385C952.819 75.1321 958.689 69.2626 958.689 61.8279ZM978.254 14.0891V302.087C978.254 309.13 984.123 315 991.167 315H1019.34C1026.38 315 1032.25 309.13 1032.25 302.087V291.522C1032.25 284.087 1038.12 278.218 1045.56 278.218C1052.99 278.218 1058.86 284.087 1058.86 291.522V302.087C1058.86 309.13 1064.73 315 1072.17 315H1115.99C1123.43 315 1129.3 309.13 1129.3 302.087V291.522C1129.3 284.087 1135.17 278.218 1142.6 278.218C1150.04 278.218 1155.9 284.087 1155.9 291.522V302.087C1155.9 309.13 1161.77 315 1168.82 315H1189.95C1197.38 315 1203.25 309.13 1203.25 302.087V14.0891C1203.25 6.65436 1197.38 0.784847 1189.95 0.784847H991.167C984.123 0.784847 978.254 6.65436 978.254 14.0891ZM1249.03 14.0891V227.348C1249.03 234.783 1243.16 240.653 1235.73 240.653C1228.69 240.653 1222.82 246.522 1222.82 253.957V302.087C1222.82 309.13 1228.69 315 1235.73 315H1308.9C1315.95 315 1321.82 309.13 1321.82 302.087V291.522C1321.82 284.087 1327.69 278.218 1335.12 278.218C1342.56 278.218 1348.43 284.087 1348.43 291.522V302.087C1348.43 309.13 1354.29 315 1361.73 315H1434.51C1441.95 315 1447.82 309.13 1447.82 302.087V14.0891C1447.82 6.65436 1441.95 0.784847 1434.51 0.784847H1262.34C1254.9 0.784847 1249.03 6.65436 1249.03 14.0891ZM1585.16 101.741H1574.6C1567.16 101.741 1561.29 95.8711 1561.29 88.4364C1561.29 81.0017 1567.16 75.1321 1574.6 75.1321H1585.16C1592.21 75.1321 1598.08 81.0017 1598.08 88.4364C1598.08 95.8711 1592.21 101.741 1585.16 101.741ZM1467.38 14.0891V201.131C1467.38 208.175 1473.25 214.436 1480.29 214.436H1490.86C1498.29 214.436 1504.16 220.305 1504.16 227.348C1504.16 234.783 1498.29 240.653 1490.86 240.653H1480.29C1473.25 240.653 1467.38 246.522 1467.38 253.957V302.087C1467.38 309.13 1473.25 315 1480.29 315H1558.55C1565.99 315 1571.86 309.13 1571.86 302.087V291.522C1571.86 284.087 1577.73 278.218 1585.16 278.218C1592.21 278.218 1598.08 284.087 1598.08 291.522V302.087C1598.08 309.13 1604.34 315 1611.38 315H1679.07C1686.51 315 1692.38 309.13 1692.38 302.087V14.0891C1692.38 6.65436 1686.51 0.784847 1679.07 0.784847H1480.29C1473.25 0.784847 1467.38 6.65436 1467.38 14.0891ZM1936.94 61.8279V14.0891C1936.94 6.65436 1931.07 0.784847 1923.64 0.784847H1724.86C1717.81 0.784847 1711.94 6.65436 1711.94 14.0891V302.087C1711.94 309.13 1717.81 315 1724.86 315H1923.64C1931.07 315 1936.94 309.13 1936.94 302.087V253.957C1936.94 246.522 1931.07 240.653 1923.64 240.653H1913.07C1905.64 240.653 1899.77 234.783 1899.77 227.348C1899.77 220.305 1905.64 214.436 1913.07 214.436H1923.64C1931.07 214.436 1936.94 208.175 1936.94 201.131V115.045C1936.94 107.61 1931.07 101.741 1923.64 101.741H1913.07C1905.64 101.741 1899.77 95.8711 1899.77 88.4364C1899.77 81.0017 1905.64 75.1321 1913.07 75.1321H1923.64C1931.07 75.1321 1936.94 69.2626 1936.94 61.8279ZM1956.51 14.0891V302.087C1956.51 309.13 1962.38 315 1969.42 315H1997.59C2004.64 315 2010.51 309.13 2010.51 302.087V291.522C2010.51 284.087 2016.38 278.218 2023.81 278.218C2031.25 278.218 2037.12 284.087 2037.12 291.522V302.087C2037.12 309.13 2042.99 315 2050.42 315H2094.25C2101.68 315 2107.55 309.13 2107.55 302.087V291.522C2107.55 284.087 2113.42 278.218 2120.85 278.218C2128.29 278.218 2134.16 284.087 2134.16 291.522V302.087C2134.16 309.13 2140.03 315 2147.07 315H2168.2C2175.64 315 2181.51 309.13 2181.51 302.087V14.0891C2181.51 6.65436 2175.64 0.784847 2168.2 0.784847H1969.42C1962.38 0.784847 1956.51 6.65436 1956.51 14.0891ZM2426.07 131.48V14.0891C2426.07 6.65436 2420.2 0.784847 2412.77 0.784847H2213.98C2206.94 0.784847 2201.07 6.65436 2201.07 14.0891V302.087C2201.07 309.13 2206.94 315 2213.98 315H2412.77C2420.2 315 2426.07 309.13 2426.07 302.087V184.305C2426.07 177.262 2420.2 171.001 2412.77 171.001H2402.2C2394.77 171.001 2388.9 165.132 2388.9 158.088C2388.9 150.653 2394.77 144.784 2402.2 144.784H2412.77C2420.2 144.784 2426.07 138.914 2426.07 131.48ZM2563.42 101.741H2552.85C2545.42 101.741 2539.55 95.8711 2539.55 88.4364C2539.55 81.0017 2545.42 75.1321 2552.85 75.1321H2563.42C2570.46 75.1321 2576.33 81.0017 2576.33 88.4364C2576.33 95.8711 2570.46 101.741 2563.42 101.741ZM2445.63 14.0891V201.131C2445.63 208.175 2451.5 214.436 2458.55 214.436H2469.11C2476.55 214.436 2482.42 220.305 2482.42 227.348C2482.42 234.783 2476.55 240.653 2469.11 240.653H2458.55C2451.5 240.653 2445.63 246.522 2445.63 253.957V302.087C2445.63 309.13 2451.5 315 2458.55 315H2536.81C2544.24 315 2550.11 309.13 2550.11 302.087V291.522C2550.11 284.087 2555.98 278.218 2563.42 278.218C2570.46 278.218 2576.33 284.087 2576.33 291.522V302.087C2576.33 309.13 2582.59 315 2589.63 315H2657.33C2664.76 315 2670.63 309.13 2670.63 302.087V14.0891C2670.63 6.65436 2664.76 0.784847 2657.33 0.784847H2458.55C2451.5 0.784847 2445.63 6.65436 2445.63 14.0891ZM2924.4 176.479C2916.97 176.479 2911.1 170.61 2911.1 163.175V152.61C2911.1 145.566 2916.97 139.697 2924.4 139.697C2931.84 139.697 2937.71 145.566 2937.71 152.61V163.175C2937.71 170.61 2931.84 176.479 2924.4 176.479ZM2812.1 14.0891V302.087C2812.1 309.13 2817.97 315 2825.01 315H3023.79C3031.23 315 3037.1 309.13 3037.1 302.087V14.0891C3037.1 6.65436 3031.23 0.784847 3023.79 0.784847H2825.01C2817.97 0.784847 2812.1 6.65436 2812.1 14.0891ZM3056.66 14.0891V24.2629C3056.66 31.6977 3062.53 37.5672 3069.57 37.5672C3077.01 37.5672 3082.88 43.4367 3082.88 50.8715V302.087C3082.88 309.13 3088.75 315 3096.18 315H3241.75C3249.18 315 3255.05 309.13 3255.05 302.087V50.8715C3255.05 43.4367 3260.92 37.5672 3268.36 37.5672C3275.79 37.5672 3281.66 31.6977 3281.66 24.2629V14.0891C3281.66 6.65436 3275.79 0.784847 3268.36 0.784847H3069.57C3062.53 0.784847 3056.66 6.65436 3056.66 14.0891ZM3301.22 14.0891V61.8279C3301.22 69.2626 3307.09 75.1321 3314.14 75.1321H3324.7C3332.14 75.1321 3338.01 81.0017 3338.01 88.4364C3338.01 95.8711 3332.14 101.741 3324.7 101.741H3314.14C3307.09 101.741 3301.22 107.61 3301.22 115.045V201.131C3301.22 208.175 3307.09 214.436 3314.14 214.436H3324.7C3332.14 214.436 3338.01 220.305 3338.01 227.348C3338.01 234.783 3332.14 240.653 3324.7 240.653H3314.14C3307.09 240.653 3301.22 246.522 3301.22 253.957V302.087C3301.22 309.13 3307.09 315 3314.14 315H3512.92C3520.35 315 3526.22 309.13 3526.22 302.087V14.0891C3526.22 6.65436 3520.35 0.784847 3512.92 0.784847H3314.14C3307.09 0.784847 3301.22 6.65436 3301.22 14.0891ZM3770.79 61.8279V14.0891C3770.79 6.65436 3764.92 0.784847 3757.48 0.784847H3558.7C3551.66 0.784847 3545.79 6.65436 3545.79 14.0891V302.087C3545.79 309.13 3551.66 315 3558.7 315H3757.48C3764.92 315 3770.79 309.13 3770.79 302.087V253.957C3770.79 246.522 3764.92 240.653 3757.48 240.653H3746.92C3739.48 240.653 3733.61 234.783 3733.61 227.348C3733.61 220.305 3739.48 214.436 3746.92 214.436H3757.48C3764.92 214.436 3770.79 208.175 3770.79 201.131V115.045C3770.79 107.61 3764.92 101.741 3757.48 101.741H3746.92C3739.48 101.741 3733.61 95.8711 3733.61 88.4364C3733.61 81.0017 3739.48 75.1321 3746.92 75.1321H3757.48C3764.92 75.1321 3770.79 69.2626 3770.79 61.8279ZM3790.35 14.0891V302.087C3790.35 309.13 3796.22 315 3803.26 315H3831.44C3838.48 315 3844.35 309.13 3844.35 302.087V291.522C3844.35 284.087 3850.22 278.218 3857.66 278.218C3865.09 278.218 3870.96 284.087 3870.96 291.522V302.087C3870.96 309.13 3876.83 315 3884.26 315H3928.09C3935.52 315 3941.39 309.13 3941.39 302.087V291.522C3941.39 284.087 3947.26 278.218 3954.7 278.218C3962.13 278.218 3968 284.087 3968 291.522V302.087C3968 309.13 3973.87 315 3980.92 315H4002.05C4009.48 315 4015.35 309.13 4015.35 302.087V14.0891C4015.35 6.65436 4009.48 0.784847 4002.05 0.784847H3803.26C3796.22 0.784847 3790.35 6.65436 3790.35 14.0891Z" fill="white"/>
</svg>
